solid glass_h_l
facet normal 9.62996325644577e-07 -0.923879532511171 -0.38268343236415736
outer loop
vertex 26.35365123190978 7.260801057280724 9.90255132583702
vertex 25.353650005551337 6.794926442959969 10.709467538624114
vertex 25.35365123191131 7.260800724136263 9.90254961368838
endloop
endfacet
facet normal 1.3065913657596319e-06 -0.7933533402910918 -0.6087614290075054
outer loop
vertex 25.353650005551337 6.794926442959969 10.709467538624114
vertex 26.35365123190978 7.260801057280724 9.90255132583702
vertex 26.353650005549817 6.794926776104476 10.709469250772745
endloop
endfacet
facet normal 1.4543301635664504e-06 0.3826834323652296 -0.9238795325100843
outer loop
vertex 26.35364947824033 2.5974145620477147 11.83418925874909
vertex 25.353650544708138 1.7904963039667057 11.368313265425298
vertex 25.353649478241817 2.597414228903287 11.834187546600457
endloop
endfacet
facet normal 1.1555332754994857e-06 0.6087614290088166 -0.79335334029032
outer loop
vertex 25.353650544708138 1.7904963039667057 11.368313265425298
vertex 26.35364947824033 2.5974145620477147 11.83418925874909
vertex 26.353650544706614 1.7904966371111388 11.368314977573936
endloop
endfacet
facet normal -1.4543301635664607e-06 -0.3826834323652197 0.9238795325100883
outer loop
vertex 25.353659859836622 5.329162791224044 5.2391631184630985
vertex 26.353658793368798 6.136081049305206 5.705039111786831
vertex 25.35365879337031 6.136080716160676 5.705037399638218
endloop
endfacet
facet normal -1.155533275499481e-06 -0.6087614290088197 0.7933533402903176
outer loop
vertex 26.353658793368798 6.136081049305206 5.705039111786831
vertex 25.353659859836622 5.329162791224044 5.2391631184630985
vertex 26.353659859835158 5.3291631243686295 5.239164830611695
endloop
endfacet
facet normal 1.0681419997603579e-07 -0.9914448613737765 0.13052619222026535
outer loop
vertex 26.353654287796264 7.501955330464685 8.070802763503483
vertex 25.35365269250581 7.501954997320037 9.002549613705792
vertex 25.35365428779783 7.501954997320223 8.070801051354858
endloop
endfacet
facet normal 5.537746773634949e-07 -0.9914448613737349 -0.13052619221945125
outer loop
vertex 25.35365269250581 7.501954997320037 9.002549613705792
vertex 26.353654287796264 7.501955330464685 8.070802763503483
vertex 26.35365269250431 7.5019553304644875 9.002551325854416
endloop
endfacet
facet normal -1.931926886645944e-08 -0.3826834323650042 -0.923879532511322
outer loop
vertex 26.35365170023207 4.863288843208281 10.09552277149239
vertex 37.85363339242728 4.429162440386793 10.275341703796219
vertex 26.353651536978774 4.429163124392798 10.275343532000667
endloop
endfacet
facet normal -1.931926886645944e-08 -0.3826834323650042 -0.923879532511322
outer loop
vertex 37.85363339242728 4.429162440386793 10.275341703796219
vertex 26.35365170023207 4.863288843208281 10.09552277149239
vertex 37.853633402698364 4.8632881592022805 10.095520943287907
endloop
endfacet
facet normal 1.931926790321688e-08 0.3826834323651441 0.923879532511264
outer loop
vertex 37.85363332551764 3.063288159202256 6.9778294896639474
vertex 26.353657801096578 3.497414562023597 6.798010557359932
vertex 26.353657637843416 3.063288843208109 6.97783131786832
endloop
endfacet
facet normal 1.931926790321688e-08 0.3826834323651441 0.923879532511264
outer loop
vertex 26.353657801096578 3.497414562023597 6.798010557359932
vertex 37.85363332551764 3.063288159202256 6.9778294896639474
vertex 37.85363333578853 3.4974138780177606 6.79800872915556
endloop
endfacet
facet normal -2.445317492067822e-08 -0.6087614290086563 -0.7933533402912841
outer loop
vertex 26.353652065804567 5.236081049344022 9.809469250816253
vertex 37.853633402698364 4.8632881592022805 10.095520943287907
vertex 26.35365170023207 4.863288843208281 10.09552277149239
endloop
endfacet
facet normal -2.445317492067822e-08 -0.6087614290086563 -0.7933533402912841
outer loop
vertex 37.853633402698364 4.8632881592022805 10.095520943287907
vertex 26.353652065804567 5.236081049344022 9.809469250816253
vertex 37.853633410339405 5.236080365338061 9.809467422611762
endloop
endfacet
facet normal 2.237931710723306e-08 0.923879532511288 -0.38268343236508645
outer loop
vertex 26.353654450618844 2.224622355887875 9.002551325864944
vertex 37.853633329504454 2.404442432390188 9.436675216475916
vertex 37.853633320695565 2.2246216718819145 9.002549497660443
endloop
endfacet
facet normal 2.237931710723306e-08 0.923879532511288 -0.38268343236508645
outer loop
vertex 37.853633329504454 2.404442432390188 9.436675216475916
vertex 26.353654450618844 2.224622355887875 9.002551325864944
vertex 26.35365364742486 2.4044431163962106 9.43667704468042
endloop
endfacet
facet normal 1.2868787101960313e-08 0.1305261922198803 0.991444861373833
outer loop
vertex 26.353657801096578 3.497414562023597 6.798010557359932
vertex 37.8536333479895 3.96328815920226 6.73667521647597
vertex 26.353657750905267 3.963288843208113 6.736677044680373
endloop
endfacet
facet normal 1.2868787101960313e-08 0.1305261922198803 0.991444861373833
outer loop
vertex 37.8536333479895 3.96328815920226 6.73667521647597
vertex 26.353657801096578 3.497414562023597 6.798010557359932
vertex 37.85363333578853 3.4974138780177606 6.79800872915556
endloop
endfacet
facet normal -2.6616955860041813e-08 -0.9914448613738143 0.13052619222002004
outer loop
vertex 37.853633413370616 5.763288159202251 8.536675216475931
vertex 26.353654887456447 5.701955330528515 8.070802763495832
vertex 37.85363340752029 5.701954646522583 8.070800935291375
endloop
endfacet
facet normal -2.6616955860041813e-08 -0.9914448613738143 0.13052619222002004
outer loop
vertex 26.353654887456447 5.701955330528515 8.070802763495832
vertex 37.853633413370616 5.763288159202251 8.536675216475931
vertex 26.353654069377534 5.763288843208172 8.536677044680394
endloop
endfacet
facet normal 2.9485353860385908e-08 0.9238795325112951 0.38268343236506885
outer loop
vertex 26.353656729292386 2.404443116396182 7.636677044680344
vertex 37.853633312352024 2.2246216718819314 8.070800935291409
vertex 37.85363331338594 2.4044424323902787 7.636675216475954
endloop
endfacet
facet normal 2.9485353860385908e-08 0.9238795325112951 0.38268343236506885
outer loop
vertex 37.853633312352024 2.2246216718819314 8.070800935291409
vertex 26.353656729292386 2.404443116396182 7.636677044680344
vertex 26.35365604591088 2.224622355887852 8.070802763495857
endloop
endfacet
facet normal 2.4453173660345138e-08 0.6087614290087988 0.7933533402911748
outer loop
vertex 37.85363331787645 2.6904959530664927 7.263883010340178
vertex 26.353657637843416 3.063288843208109 6.97783131786832
vertex 26.353657272270862 2.690496637072374 7.263884838544558
endloop
endfacet
facet normal 2.4453173660345138e-08 0.6087614290087988 0.7933533402911748
outer loop
vertex 26.353657637843416 3.063288843208109 6.97783131786832
vertex 37.85363331787645 2.6904959530664927 7.263883010340178
vertex 37.85363332551764 3.063288159202256 6.9778294896639474
endloop
endfacet
facet normal -2.7920637095092835e-08 -0.7933533402912576 -0.6087614290086909
outer loop
vertex 37.853633410339405 5.236080365338061 9.809467422611762
vertex 26.35365260878297 5.522134570020202 9.436677044680453
vertex 37.85363341482989 5.522133886014298 9.436675216475907
endloop
endfacet
facet normal -2.7920637095092835e-08 -0.7933533402912576 -0.6087614290086909
outer loop
vertex 26.35365260878297 5.522134570020202 9.436677044680453
vertex 37.853633410339405 5.236080365338061 9.809467422611762
vertex 26.353652065804567 5.236081049344022 9.809469250816253
endloop
endfacet
facet normal 5.54131776499575e-09 -0.1305261922199016 0.9914448613738301
outer loop
vertex 26.353657750905267 3.963288843208113 6.736677044680373
vertex 37.85363336128889 4.429162440386793 6.7980087291556
vertex 26.353657490689685 4.429163124392692 6.798010557359953
endloop
endfacet
facet normal 5.54131776499575e-09 -0.1305261922199016 0.9914448613738301
outer loop
vertex 37.85363336128889 4.429162440386793 6.7980087291556
vertex 26.353657750905267 3.963288843208113 6.736677044680373
vertex 37.8536333479895 3.96328815920226 6.73667521647597
endloop
endfacet
facet normal -2.163784398635494e-09 -0.38268343236515706 0.9238795325112591
outer loop
vertex 26.353657490689685 4.429163124392692 6.798010557359953
vertex 37.853633374780316 4.863288159202275 6.977829489663946
vertex 26.353657038183144 4.863288843208151 6.977831317868337
endloop
endfacet
facet normal -2.163784398635494e-09 -0.38268343236515706 0.9238795325112591
outer loop
vertex 37.853633374780316 4.863288159202275 6.977829489663946
vertex 26.353657490689685 4.429163124392692 6.798010557359953
vertex 37.85363336128889 4.429162440386793 6.7980087291556
endloop
endfacet
facet normal 0.21817868276107424 -0.6780379948085512 0.7018992377718056
outer loop
vertex 37.85363312927407 7.963269949662928 17.568403070490426
vertex 37.48868608394507 11.868116694456562 21.45394386571869
vertex 25.353633067820482 7.96328851253865 21.45392678599417
endloop
endfacet
facet normal 2.1637814015652054e-09 0.38268343236512714 -0.9238795325112713
outer loop
vertex 37.853633366927035 3.4974138780177326 10.275341703796231
vertex 26.353652299892296 3.06328884320825 10.095522771492346
vertex 26.353651847385727 3.497414562023732 10.275343532000702
endloop
endfacet
facet normal 2.1637814015652054e-09 0.38268343236512714 -0.9238795325112713
outer loop
vertex 26.353652299892296 3.06328884320825 10.095522771492346
vertex 37.853633366927035 3.4974138780177326 10.275341703796231
vertex 37.85363335343561 3.0632881592022727 10.095520943287855
endloop
endfacet
facet normal -2.9485352378803324e-08 -0.9238795325112956 -0.3826834323650672
outer loop
vertex 37.85363341482989 5.522133886014298 9.436675216475907
vertex 26.353653292164484 5.7019553305285315 9.002551325864916
vertex 37.85363341586388 5.701954646522577 9.00254949766051
endloop
endfacet
facet normal -2.9485352378803324e-08 -0.9238795325112956 -0.3826834323650672
outer loop
vertex 26.353653292164484 5.7019553305285315 9.002551325864916
vertex 37.85363341482989 5.522133886014298 9.436675216475907
vertex 26.35365260878297 5.522134570020202 9.436677044680453
endloop
endfacet
facet normal -2.237931685285909e-08 -0.9238795325112816 0.38268343236510194
outer loop
vertex 37.85363340752029 5.701954646522583 8.070800935291375
vertex 26.35365569065056 5.522134570020162 7.636677044680432
vertex 37.85363339871153 5.522133886014304 7.636675216476028
endloop
endfacet
facet normal -2.237931685285909e-08 -0.9238795325112816 0.38268343236510194
outer loop
vertex 26.35365569065056 5.522134570020162 7.636677044680432
vertex 37.85363340752029 5.701954646522583 8.070800935291375
vertex 26.353654887456447 5.701955330528515 8.070802763495832
endloop
endfacet
facet normal -2.904069249888085e-08 -0.9914448613738109 -0.13052619222004477
outer loop
vertex 37.85363341586388 5.701954646522577 9.00254949766051
vertex 26.353654069377534 5.763288843208172 8.536677044680394
vertex 37.853633413370616 5.763288159202251 8.536675216475931
endloop
endfacet
facet normal -2.904069249888085e-08 -0.9914448613738109 -0.13052619222004477
outer loop
vertex 26.353654069377534 5.763288843208172 8.536677044680394
vertex 37.85363341586388 5.701954646522577 9.00254949766051
vertex 26.353653292164484 5.7019553305285315 9.002551325864916
endloop
endfacet
facet normal -5.541319583553427e-09 0.13052619222009484 -0.9914448613738048
outer loop
vertex 37.853633380226405 3.9632881592022713 10.336675216475923
vertex 26.353651847385727 3.497414562023732 10.275343532000702
vertex 26.3536515871702 3.9632888432082822 10.33667704468039
endloop
endfacet
facet normal -5.541319583553427e-09 0.13052619222009484 -0.9914448613738048
outer loop
vertex 26.353651847385727 3.497414562023732 10.275343532000702
vertex 37.853633380226405 3.9632881592022713 10.336675216475923
vertex 37.853633366927035 3.4974138780177326 10.275341703796231
endloop
endfacet
facet normal -1.6616566859708233e-08 -0.7933533402912342 0.6087614290087219
outer loop
vertex 37.85363339871153 5.522133886014304 7.636675216476028
vertex 26.353656424223345 5.236081049343965 7.263884838544607
vertex 37.853633387544434 5.23608036533805 7.2638830103402
endloop
endfacet
facet normal -1.6616566859708233e-08 -0.7933533402912342 0.6087614290087219
outer loop
vertex 26.353656424223345 5.236081049343965 7.263884838544607
vertex 37.85363339871153 5.522133886014304 7.636675216476028
vertex 26.35365569065056 5.522134570020162 7.636677044680432
endloop
endfacet
facet normal -9.721425665220137e-09 -0.6087614290087777 0.7933533402911912
outer loop
vertex 26.353657038183144 4.863288843208151 6.977831317868337
vertex 37.853633387544434 5.23608036533805 7.2638830103402
vertex 26.353656424223345 5.236081049343965 7.263884838544607
endloop
endfacet
facet normal -9.721425665220137e-09 -0.6087614290087777 0.7933533402911912
outer loop
vertex 37.853633387544434 5.23608036533805 7.2638830103402
vertex 26.353657038183144 4.863288843208151 6.977831317868337
vertex 37.853633374780316 4.863288159202275 6.977829489663946
endloop
endfacet
facet normal 9.721423031328934e-09 0.6087614290087108 -0.7933533402912428
outer loop
vertex 37.85363335343561 3.0632881592022727 10.095520943287855
vertex 26.353652913852066 2.6904966370724472 9.809469250816147
vertex 26.353652299892296 3.06328884320825 10.095522771492346
endloop
endfacet
facet normal 9.721423031328934e-09 0.6087614290087108 -0.7933533402912428
outer loop
vertex 26.353652913852066 2.6904966370724472 9.809469250816147
vertex 37.85363335343561 3.0632881592022727 10.095520943287855
vertex 37.85363334067144 2.6904959530664816 9.809467422611712
endloop
endfacet
facet normal 2.6616956878354368e-08 0.9914448613738123 -0.1305261922200357
outer loop
vertex 26.353655268697867 2.1632888432081727 8.536677044680356
vertex 37.853633320695565 2.2246216718819145 9.002549497660443
vertex 37.85363331484519 2.163288159202252 8.536675216476011
endloop
endfacet
facet normal 2.6616956878354368e-08 0.9914448613738123 -0.1305261922200357
outer loop
vertex 37.853633320695565 2.2246216718819145 9.002549497660443
vertex 26.353655268697867 2.1632888432081727 8.536677044680356
vertex 26.353654450618844 2.224622355887875 9.002551325864944
endloop
endfacet
facet normal -1.2868788040475924e-08 -0.13052619222013795 -0.991444861373799
outer loop
vertex 37.85363339242728 4.429162440386793 10.275341703796219
vertex 26.3536515871702 3.9632888432082822 10.33667704468039
vertex 26.353651536978774 4.429163124392798 10.275343532000667
endloop
endfacet
facet normal -1.2868788040475924e-08 -0.13052619222013795 -0.991444861373799
outer loop
vertex 26.3536515871702 3.9632888432082822 10.33667704468039
vertex 37.85363339242728 4.429162440386793 10.275341703796219
vertex 37.853633380226405 3.9632881592022713 10.336675216475923
endloop
endfacet
facet normal 1.6616565379297284e-08 0.7933533402911692 -0.6087614290088064
outer loop
vertex 26.35365364742486 2.4044431163962106 9.43667704468042
vertex 37.85363334067144 2.6904959530664816 9.809467422611712
vertex 37.853633329504454 2.404442432390188 9.436675216475916
endloop
endfacet
facet normal 1.6616565379297284e-08 0.7933533402911692 -0.6087614290088064
outer loop
vertex 37.85363334067144 2.6904959530664816 9.809467422611712
vertex 26.35365364742486 2.4044431163962106 9.43667704468042
vertex 26.353652913852066 2.6904966370724472 9.809469250816147
endloop
endfacet
facet normal 2.7920636911187006e-08 0.7933533402912075 0.6087614290087561
outer loop
vertex 26.353657272270862 2.690496637072374 7.263884838544558
vertex 37.85363331338594 2.4044424323902787 7.636675216475954
vertex 37.85363331787645 2.6904959530664927 7.263883010340178
endloop
endfacet
facet normal 2.7920636911187006e-08 0.7933533402912075 0.6087614290087561
outer loop
vertex 37.85363331338594 2.4044424323902787 7.636675216475954
vertex 26.353657272270862 2.690496637072374 7.263884838544558
vertex 26.353656729292386 2.404443116396182 7.636677044680344
endloop
endfacet
facet normal 2.9040692169069572e-08 0.9914448613738076 0.13052619222007084
outer loop
vertex 26.35365604591088 2.224622355887852 8.070802763495857
vertex 37.85363331484519 2.163288159202252 8.536675216476011
vertex 37.853633312352024 2.2246216718819314 8.070800935291409
endloop
endfacet
facet normal 2.9040692169069572e-08 0.9914448613738076 0.13052619222007084
outer loop
vertex 37.85363331484519 2.163288159202252 8.536675216476011
vertex 26.35365604591088 2.224622355887852 8.070802763495857
vertex 26.353655268697867 2.1632888432081727 8.536677044680356
endloop
endfacet
facet normal 1.7409850299608193e-06 -0.13052619221988532 -0.9914448613723038
outer loop
vertex 26.353648455111333 4.429163124383707 12.075343531931669
vertex 25.35364876551978 3.4974142288869805 12.075341819783414
vertex 25.35364845511285 4.4291627912392055 12.075341819783045
endloop
endfacet
facet normal 1.654016854380616e-06 0.13052619222020284 -0.9914448613724108
outer loop
vertex 25.35364876551978 3.4974142288869805 12.075341819783414
vertex 26.353648455111333 4.429163124383707 12.075343531931669
vertex 26.35364876551827 3.4974145620314534 12.075343531932035
endloop
endfacet
facet normal 7.779887043162461e-07 0.793353340291292 -0.6087614290081494
outer loop
vertex 25.353651892240762 1.1316505771667016 10.709467538626404
vertex 26.353653429006133 0.6657766291351689 9.902551325839699
vertex 25.35365342900767 0.6657762959907074 9.90254961369104
endloop
endfacet
facet normal 3.474254886209834e-07 0.9238795325112978 -0.38268343236490565
outer loop
vertex 26.353653429006133 0.6657766291351689 9.902551325839699
vertex 25.353651892240762 1.1316505771667016 10.709467538626404
vertex 26.353651892239263 1.1316509103111745 10.709469250775026
endloop
endfacet
facet normal 1.5611443635424971e-06 -0.6087614290085619 -0.7933533402898212
outer loop
vertex 25.353649097000428 6.136080716159763 11.368313265423572
vertex 26.353648568173224 5.329163124367468 11.834189258747953
vertex 25.353648568174734 5.329162791223029 11.83418754659934
endloop
endfacet
facet normal 1.7093079528629942e-06 -0.38268343236490965 -0.9238795325097803
outer loop
vertex 26.353648568173224 5.329163124367468 11.834189258747953
vertex 25.353649097000428 6.136080716159763 11.368313265423572
vertex 26.353649096998872 6.136081049304218 11.368314977572156
endloop
endfacet
facet normal 0.999999998156983 -5.682738741549635e-05 -2.137012397170408e-05
outer loop
vertex 36.356930183119275 23.9678669320567 0.20614379291846438
vertex 36.357838867526766 31.96776726559317 21.453997017014927
vertex 36.35783813098204 23.967866903247867 21.453997022646767
endloop
endfacet
facet normal 0.999999998156983 -5.682738741549635e-05 -2.137012397170408e-05
outer loop
vertex 36.357838867526766 31.96776726559317 21.453997017014927
vertex 36.356930183119275 23.9678669320567 0.20614379291846438
vertex 36.357838670025274 31.967767265231647 0.20598350815317537
endloop
endfacet
facet normal 3.4742548862098164e-07 0.9238795325112981 -0.3826834323649047
outer loop
vertex 25.35365342900767 0.6657762959907074 9.90254961369104
vertex 26.353655050279134 0.42462235595166 9.00255132585731
vertex 25.353655050280636 0.4246220228072267 9.002549613708666
endloop
endfacet
facet normal -1.0681419997603511e-07 0.9914448613737764 -0.13052619222026585
outer loop
vertex 26.353655050279134 0.42462235595166 9.00255132585731
vertex 25.35365342900767 0.6657762959907074 9.90254961369104
vertex 26.353653429006133 0.6657766291351689 9.902551325839699
endloop
endfacet
facet normal -0.00014147733461875365 -2.6050089200686272e-06 -0.9999999899886888
outer loop
vertex 29.3550501315732 31.96775893696593 0.20755592971855555
vertex 29.354305234934763 16.969018394048522 0.20720969088581076
vertex 25.353410835187905 31.967767566782506 0.20754640401341948
endloop
endfacet
facet normal -0.00014147733461875365 -2.6050089200686272e-06 -0.9999999899886888
outer loop
vertex 36.357838670025274 31.967767265231647 0.20598350815317537
vertex 36.356930183119275 23.9678669320567 0.20614379291846438
vertex 33.357839509779986 31.9677673466522 0.20598353600662367
endloop
endfacet
facet normal -0.00014147733461875365 -2.6050089200686272e-06 -0.9999999899886888
outer loop
vertex 25.353409752861914 -7.032232433217355 0.20754640538287028
vertex 29.354305234934763 16.969018394048522 0.20720969088581076
vertex 37.85363305677541 -4.649800132955669 0.20598349503372299
endloop
endfacet
facet normal -0.00014147733461875365 -2.6050089200686272e-06 -0.9999999899886888
outer loop
vertex 29.354305234934763 16.969018394048522 0.20720969088581076
vertex 25.353409752861914 -7.032232433217355 0.20754640538287028
vertex 25.353410835187905 31.967767566782506 0.20754640401341948
endloop
endfacet
facet normal -0.00014147733461875365 -2.6050089200686272e-06 -0.9999999899886888
outer loop
vertex 37.85363305677541 -4.649800132955669 0.20598349503372299
vertex 29.354305234934763 16.969018394048522 0.20720969088581076
vertex 31.353649442116296 15.967890530387404 0.20707595680551122
endloop
endfacet
facet normal -0.00014147733461875365 -2.6050089200686272e-06 -0.9999999899886888
outer loop
vertex 37.85363305677541 -4.649800132955669 0.20598349503372299
vertex 31.353649442116296 15.967890530387404 0.20707595680551122
vertex 33.35458942478155 16.969026800963533 0.2069070688911673
endloop
endfacet
facet normal -0.00014147733461875365 -2.6050089200686272e-06 -0.9999999899886888
outer loop
vertex 37.85363305677541 -4.649800132955669 0.20598349503372299
vertex 33.35458942478155 16.969026800963533 0.2069070688911673
vertex 33.357839509779986 31.9677673466522 0.20598353600662367
endloop
endfacet
facet normal -0.00014147733461875365 -2.6050089200686272e-06 -0.9999999899886888
outer loop
vertex 37.85363305677541 -4.649800132955669 0.20598349503372299
vertex 33.357839509779986 31.9677673466522 0.20598353600662367
vertex 36.356930183119275 23.9678669320567 0.20614379291846438
endloop
endfacet
facet normal -0.00014147733461875365 -2.6050089200686272e-06 -0.9999999899886888
outer loop
vertex 37.85363305677541 -4.649800132955669 0.20598349503372299
vertex 36.356930183119275 23.9678669320567 0.20614379291846438
vertex 37.85363339909633 7.963269949662928 0.20598349476909134
endloop
endfacet
facet normal 0.999999998899179 1.2911708176251946e-05 -4.511019818594653e-05
outer loop
vertex 29.3550501315732 31.96775893696593 0.20755592971855555
vertex 29.355847482478897 16.96919346863078 18.454111542726363
vertex 29.354305234934763 16.969018394048522 0.20720969088581076
endloop
endfacet
facet normal 0.999999998899179 1.2911708176251946e-05 -4.511019818594653e-05
outer loop
vertex 29.355847482478897 16.96919346863078 18.454111542726363
vertex 29.3550501315732 31.96775893696593 0.20755592971855555
vertex 29.35521305863876 31.967851480513033 18.454006643477516
endloop
endfacet
facet normal 0.9999999999999998 -1.8676721629763344e-08 9.392237745058057e-09
outer loop
vertex 37.85363305677541 -4.649800132955669 0.20598349503372299
vertex 37.85363331338594 2.4044424323902787 7.636675216475954
vertex 37.85363300045284 -4.649800132955669 17.568462214521354
endloop
endfacet
facet normal 0.9999999999999998 -1.8676721629763344e-08 9.392237745058057e-09
outer loop
vertex 37.85363331338594 2.4044424323902787 7.636675216475954
vertex 37.85363305677541 -4.649800132955669 0.20598349503372299
vertex 37.85363339909633 7.963269949662928 0.20598349476909134
endloop
endfacet
facet normal 0.9999999999999998 -1.8676721629763344e-08 9.392237745058057e-09
outer loop
vertex 37.85363300045284 -4.649800132955669 17.568462214521354
vertex 37.85363331338594 2.4044424323902787 7.636675216475954
vertex 37.853633312352024 2.2246216718819314 8.070800935291409
endloop
endfacet
facet normal 0.9999999999999998 -1.8676721629763344e-08 9.392237745058057e-09
outer loop
vertex 37.85363300045284 -4.649800132955669 17.568462214521354
vertex 37.853633312352024 2.2246216718819314 8.070800935291409
vertex 37.85363331484519 2.163288159202252 8.536675216476011
endloop
endfacet
facet normal 0.9999999999999998 -1.8676721629763344e-08 9.392237745058057e-09
outer loop
vertex 37.85363331338594 2.4044424323902787 7.636675216475954
vertex 37.85363339909633 7.963269949662928 0.20598349476909134
vertex 37.85363331787645 2.6904959530664927 7.263883010340178
endloop
endfacet
facet normal 0.9999999999999998 -1.8676721629763344e-08 9.392237745058057e-09
outer loop
vertex 37.85363331787645 2.6904959530664927 7.263883010340178
vertex 37.85363339909633 7.963269949662928 0.20598349476909134
vertex 37.85363332551764 3.063288159202256 6.9778294896639474
endloop
endfacet
facet normal 0.9999999999999998 -1.8676721629763344e-08 9.392237745058057e-09
outer loop
vertex 37.85363332551764 3.063288159202256 6.9778294896639474
vertex 37.85363339909633 7.963269949662928 0.20598349476909134
vertex 37.85363333578853 3.4974138780177606 6.79800872915556
endloop
endfacet
facet normal 0.9999999999999998 -1.8676721629763344e-08 9.392237745058057e-09
outer loop
vertex 37.85363333578853 3.4974138780177606 6.79800872915556
vertex 37.85363339909633 7.963269949662928 0.20598349476909134
vertex 37.8536333479895 3.96328815920226 6.73667521647597
endloop
endfacet
facet normal 0.9999999999999998 -1.8676721629763344e-08 9.392237745058057e-09
outer loop
vertex 37.8536333479895 3.96328815920226 6.73667521647597
vertex 37.85363339909633 7.963269949662928 0.20598349476909134
vertex 37.85363336128889 4.429162440386793 6.7980087291556
endloop
endfacet
facet normal 0.9999999999999998 -1.8676721629763344e-08 9.392237745058057e-09
outer loop
vertex 37.85363336128889 4.429162440386793 6.7980087291556
vertex 37.85363339909633 7.963269949662928 0.20598349476909134
vertex 37.853633374780316 4.863288159202275 6.977829489663946
endloop
endfacet
facet normal 0.9999999999999998 -1.8676721629763344e-08 9.392237745058057e-09
outer loop
vertex 37.853633374780316 4.863288159202275 6.977829489663946
vertex 37.85363339909633 7.963269949662928 0.20598349476909134
vertex 37.853633387544434 5.23608036533805 7.2638830103402
endloop
endfacet
facet normal 0.9999999999999998 -1.8676721629763344e-08 9.392237745058057e-09
outer loop
vertex 37.853633387544434 5.23608036533805 7.2638830103402
vertex 37.85363339909633 7.963269949662928 0.20598349476909134
vertex 37.85363339871153 5.522133886014304 7.636675216476028
endloop
endfacet
facet normal 0.9999999999999998 -1.8676721629763344e-08 9.392237745058057e-09
outer loop
vertex 37.85363339871153 5.522133886014304 7.636675216476028
vertex 37.85363339909633 7.963269949662928 0.20598349476909134
vertex 37.85363340752029 5.701954646522583 8.070800935291375
endloop
endfacet
facet normal 0.9999999999999998 -1.8676721629763344e-08 9.392237745058057e-09
outer loop
vertex 37.85363340752029 5.701954646522583 8.070800935291375
vertex 37.85363339909633 7.963269949662928 0.20598349476909134
vertex 37.853633413370616 5.763288159202251 8.536675216475931
endloop
endfacet
facet normal 0.9999999999999998 -1.8676721629763344e-08 9.392237745058057e-09
outer loop
vertex 37.85363300045284 -4.649800132955669 17.568462214521354
vertex 37.853633329504454 2.404442432390188 9.436675216475916
vertex 37.85363312927407 7.963269949662928 17.568403070490426
endloop
endfacet
facet normal 0.9999999999999998 -1.8676721629763344e-08 9.392237745058057e-09
outer loop
vertex 37.853633329504454 2.404442432390188 9.436675216475916
vertex 37.85363300045284 -4.649800132955669 17.568462214521354
vertex 37.853633320695565 2.2246216718819145 9.002549497660443
endloop
endfacet
facet normal 0.9999999999999998 -1.8676721629763344e-08 9.392237745058057e-09
outer loop
vertex 37.853633320695565 2.2246216718819145 9.002549497660443
vertex 37.85363300045284 -4.649800132955669 17.568462214521354
vertex 37.85363331484519 2.163288159202252 8.536675216476011
endloop
endfacet
facet normal 0.9999999999999998 -1.8676721629763344e-08 9.392237745058057e-09
outer loop
vertex 37.85363312927407 7.963269949662928 17.568403070490426
vertex 37.853633329504454 2.404442432390188 9.436675216475916
vertex 37.85363334067144 2.6904959530664816 9.809467422611712
endloop
endfacet
facet normal 0.9999999999999998 -1.8676721629763344e-08 9.392237745058057e-09
outer loop
vertex 37.85363312927407 7.963269949662928 17.568403070490426
vertex 37.85363334067144 2.6904959530664816 9.809467422611712
vertex 37.85363335343561 3.0632881592022727 10.095520943287855
endloop
endfacet
facet normal 0.9999999999999998 -1.8676721629763344e-08 9.392237745058057e-09
outer loop
vertex 37.85363312927407 7.963269949662928 17.568403070490426
vertex 37.85363335343561 3.0632881592022727 10.095520943287855
vertex 37.853633366927035 3.4974138780177326 10.275341703796231
endloop
endfacet
facet normal 0.9999999999999998 -1.8676721629763344e-08 9.392237745058057e-09
outer loop
vertex 37.85363312927407 7.963269949662928 17.568403070490426
vertex 37.853633366927035 3.4974138780177326 10.275341703796231
vertex 37.853633380226405 3.9632881592022713 10.336675216475923
endloop
endfacet
facet normal 0.9999999999999998 -1.8676721629763344e-08 9.392237745058057e-09
outer loop
vertex 37.85363312927407 7.963269949662928 17.568403070490426
vertex 37.853633380226405 3.9632881592022713 10.336675216475923
vertex 37.85363339242728 4.429162440386793 10.275341703796219
endloop
endfacet
facet normal 0.9999999999999998 -1.8676721629763344e-08 9.392237745058057e-09
outer loop
vertex 37.85363312927407 7.963269949662928 17.568403070490426
vertex 37.85363339242728 4.429162440386793 10.275341703796219
vertex 37.853633402698364 4.8632881592022805 10.095520943287907
endloop
endfacet
facet normal 0.9999999999999998 -1.8676721629763344e-08 9.392237745058057e-09
outer loop
vertex 37.85363312927407 7.963269949662928 17.568403070490426
vertex 37.853633402698364 4.8632881592022805 10.095520943287907
vertex 37.853633410339405 5.236080365338061 9.809467422611762
endloop
endfacet
facet normal 0.9999999999999998 -1.8676721629763344e-08 9.392237745058057e-09
outer loop
vertex 37.85363312927407 7.963269949662928 17.568403070490426
vertex 37.853633410339405 5.236080365338061 9.809467422611762
vertex 37.85363341482989 5.522133886014298 9.436675216475907
endloop
endfacet
facet normal 0.9999999999999998 -1.8676721629763344e-08 9.392237745058057e-09
outer loop
vertex 37.85363312927407 7.963269949662928 17.568403070490426
vertex 37.85363341482989 5.522133886014298 9.436675216475907
vertex 37.85363341586388 5.701954646522577 9.00254949766051
endloop
endfacet
facet normal 0.9999999999999998 -1.8676721629763344e-08 9.392237745058057e-09
outer loop
vertex 37.85363312927407 7.963269949662928 17.568403070490426
vertex 37.85363341586388 5.701954646522577 9.00254949766051
vertex 37.853633413370616 5.763288159202251 8.536675216475931
endloop
endfacet
facet normal 0.9999999999999998 -1.8676721629763344e-08 9.392237745058057e-09
outer loop
vertex 37.85363312927407 7.963269949662928 17.568403070490426
vertex 37.853633413370616 5.763288159202251 8.536675216475931
vertex 37.85363339909633 7.963269949662928 0.20598349476909134
endloop
endfacet
facet normal 0.187219178839108 -0.9823181659077161 1.584584096988445e-06
outer loop
vertex 37.85363300045284 -4.649800132955669 17.568462214521354
vertex 25.353409752861914 -7.032232433217355 0.20754640538287028
vertex 37.85363305677541 -4.649800132955669 0.20598349503372299
endloop
endfacet
facet normal 0.187219178839108 -0.9823181659077161 1.584584096988445e-06
outer loop
vertex 25.353409752861914 -7.032232433217355 0.20754640538287028
vertex 37.85363300045284 -4.649800132955669 17.568462214521354
vertex 25.353632656057574 -7.032132798707855 21.453997101124124
endloop
endfacet
facet normal 0.9956582958558367 0.0930836044563834 -2.1791259529575085e-05
outer loop
vertex 36.356930183119275 23.9678669320567 0.20614379291846438
vertex 37.85363312927407 7.963269949662928 17.568403070490426
vertex 37.85363339909633 7.963269949662928 0.20598349476909134
endloop
endfacet
facet normal 0.9956582958558367 0.0930836044563834 -2.1791259529575085e-05
outer loop
vertex 37.85363312927407 7.963269949662928 17.568403070490426
vertex 36.356930183119275 23.9678669320567 0.20614379291846438
vertex 37.48868608394507 11.868116694456562 21.45394386571869
endloop
endfacet
facet normal 0.9956582958558367 0.0930836044563834 -2.1791259529575085e-05
outer loop
vertex 37.48868608394507 11.868116694456562 21.45394386571869
vertex 36.356930183119275 23.9678669320567 0.20614379291846438
vertex 36.35783813098204 23.967866903247867 21.453997022646767
endloop
endfacet
facet normal -3.4742548862099143e-07 -0.923879532511296 0.3826834323649099
outer loop
vertex 26.353655909069335 7.26080105728121 7.170802763521073
vertex 25.35365428779783 7.501954997320223 8.070801051354858
vertex 25.353655909070813 7.260800724136737 7.170801051372483
endloop
endfacet
facet normal 1.0681419997603916e-07 -0.9914448613737769 0.13052619222026343
outer loop
vertex 25.35365428779783 7.501954997320223 8.070801051354858
vertex 26.353655909069335 7.26080105728121 7.170802763521073
vertex 26.353654287796264 7.501955330464685 8.070802763503483
endloop
endfacet
facet normal 5.510430964126273e-06 0.9999999999826892 -2.0631821965213164e-06
outer loop
vertex 25.35363375005998 31.96786720129226 21.453997116877066
vertex 29.3550501315732 31.96775893696593 0.20755592971855555
vertex 25.353410835187905 31.967767566782506 0.20754640401341948
endloop
endfacet
facet normal 5.510430964126273e-06 0.9999999999826892 -2.0631821965213164e-06
outer loop
vertex 29.3550501315732 31.96775893696593 0.20755592971855555
vertex 25.35363375005998 31.96786720129226 21.453997116877066
vertex 29.35521305863876 31.967851480513033 18.454006643477516
endloop
endfacet
facet normal 5.510430964126273e-06 0.9999999999826892 -2.0631821965213164e-06
outer loop
vertex 29.35521305863876 31.967851480513033 18.454006643477516
vertex 25.35363375005998 31.96786720129226 21.453997116877066
vertex 36.357838867526766 31.96776726559317 21.453997017014927
endloop
endfacet
facet normal 5.510430964126273e-06 0.9999999999826892 -2.0631821965213164e-06
outer loop
vertex 33.357839509779986 31.9677673466522 0.20598353600662367
vertex 36.357838867526766 31.96776726559317 21.453997017014927
vertex 36.357838670025274 31.967767265231647 0.20598350815317537
endloop
endfacet
facet normal 5.510430964126273e-06 0.9999999999826892 -2.0631821965213164e-06
outer loop
vertex 36.357838867526766 31.96776726559317 21.453997017014927
vertex 33.357839509779986 31.9677673466522 0.20598353600662367
vertex 33.357722695780105 31.96777420770462 18.45399704715818
endloop
endfacet
facet normal 5.510430964126273e-06 0.9999999999826892 -2.0631821965213164e-06
outer loop
vertex 36.357838867526766 31.96776726559317 21.453997017014927
vertex 33.357722695780105 31.96777420770462 18.45399704715818
vertex 29.35521305863876 31.967851480513033 18.454006643477516
endloop
endfacet
facet normal -6.619896346665984e-07 -2.895788854476938e-06 0.9999999999955882
outer loop
vertex 37.48868608394507 11.868116694456562 21.45394386571869
vertex 25.35363375005998 31.96786720129226 21.453997116877066
vertex 25.353633067820482 7.96328851253865 21.45392678599417
endloop
endfacet
facet normal -6.619896346665984e-07 -2.895788854476938e-06 0.9999999999955882
outer loop
vertex 25.35363375005998 31.96786720129226 21.453997116877066
vertex 37.48868608394507 11.868116694456562 21.45394386571869
vertex 36.35783813098204 23.967866903247867 21.453997022646767
endloop
endfacet
facet normal -6.619896346665984e-07 -2.895788854476938e-06 0.9999999999955882
outer loop
vertex 36.357838867526766 31.96776726559317 21.453997017014927
vertex 25.35363375005998 31.96786720129226 21.453997116877066
vertex 36.35783813098204 23.967866903247867 21.453997022646767
endloop
endfacet
facet normal 1.709307952862988e-06 -0.38268343236492497 -0.9238795325097737
outer loop
vertex 25.353648568174734 5.329162791223029 11.83418754659934
vertex 26.353648455111333 4.429163124383707 12.075343531931669
vertex 25.35364845511285 4.4291627912392055 12.075341819783045
endloop
endfacet
facet normal 1.7409850299608193e-06 -0.13052619221988532 -0.9914448613723038
outer loop
vertex 26.353648455111333 4.429163124383707 12.075343531931669
vertex 25.353648568174734 5.329162791223029 11.83418754659934
vertex 26.353648568173224 5.329163124367468 11.834189258747953
endloop
endfacet
facet normal -0.9999999890201482 0.00014295008496039804 3.9050951112359844e-05
outer loop
vertex 33.35613167232569 16.969201875545796 18.453808920731724
vertex 33.357839509779986 31.9677673466522 0.20598353600662367
vertex 33.35458942478155 16.969026800963533 0.2069070688911673
endloop
endfacet
facet normal -0.9999999890201482 0.00014295008496039804 3.9050951112359844e-05
outer loop
vertex 33.357839509779986 31.9677673466522 0.20598353600662367
vertex 33.35613167232569 16.969201875545796 18.453808920731724
vertex 33.357722695780105 31.96777420770462 18.45399704715818
endloop
endfacet
facet normal 0.29683214646743106 4.471737399473763e-06 0.9549296711295243
outer loop
vertex 25.353632656057574 -7.032132798707855 21.453997101124124
vertex 29.423271851330597 0.4707340878103357 20.18894763292734
vertex 25.353633067820482 7.96328851253865 21.45392678599417
endloop
endfacet
facet normal 0.29683214646743106 4.471737399473763e-06 0.9549296711295243
outer loop
vertex 29.423271851330597 0.4707340878103357 20.18894763292734
vertex 25.353632656057574 -7.032132798707855 21.453997101124124
vertex 37.85363300045284 -4.649800132955669 17.568462214521354
endloop
endfacet
facet normal 0.29683214646743106 4.471737399473763e-06 0.9549296711295243
outer loop
vertex 25.353633067820482 7.96328851253865 21.45392678599417
vertex 29.423271851330597 0.4707340878103357 20.18894763292734
vertex 29.423224929055834 3.585415986853275 20.188947632927338
endloop
endfacet
facet normal 0.29683214646743106 4.471737399473763e-06 0.9549296711295243
outer loop
vertex 29.423271851330597 0.4707340878103357 20.18894763292734
vertex 37.85363300045284 -4.649800132955669 17.568462214521354
vertex 30.13514455859509 0.470744812079409 19.967667773116386
endloop
endfacet
facet normal 0.29683214646743106 4.471737399473763e-06 0.9549296711295243
outer loop
vertex 30.13514455859509 0.470744812079409 19.967667773116386
vertex 37.85363300045284 -4.649800132955669 17.568462214521354
vertex 33.61377651030812 2.6921207426170004 18.886352830639392
endloop
endfacet
facet normal 0.29683214646743106 4.471737399473763e-06 0.9549296711295243
outer loop
vertex 29.423224929055834 3.585415986853275 20.188947632927338
vertex 37.85363312927407 7.963269949662928 17.568403070490426
vertex 25.353633067820482 7.96328851253865 21.45392678599417
endloop
endfacet
facet normal 0.29683214646743106 4.471737399473763e-06 0.9549296711295243
outer loop
vertex 37.85363312927407 7.963269949662928 17.568403070490426
vertex 29.423224929055834 3.585415986853275 20.188947632927338
vertex 33.61376305198125 3.585479116761099 18.886352830639392
endloop
endfacet
facet normal 0.29683214646743106 4.471737399473763e-06 0.9549296711295243
outer loop
vertex 37.85363312927407 7.963269949662928 17.568403070490426
vertex 33.61376305198125 3.585479116761099 18.886352830639392
vertex 33.61377651030812 2.6921207426170004 18.886352830639392
endloop
endfacet
facet normal 0.29683214646743106 4.471737399473763e-06 0.9549296711295243
outer loop
vertex 37.85363312927407 7.963269949662928 17.568403070490426
vertex 33.61377651030812 2.6921207426170004 18.886352830639392
vertex 37.85363300045284 -4.649800132955669 17.568462214521354
endloop
endfacet
facet normal 0.29683214646743106 4.471737399473763e-06 0.9549296711295243
outer loop
vertex 33.61377651030812 2.6921207426170004 18.886352830639392
vertex 30.1351110946472 2.692068336978249 19.967667773116386
vertex 30.13514455859509 0.470744812079409 19.967667773116386
endloop
endfacet
facet normal 1.6540168543806103e-06 0.1305261922202133 -0.9914448613724095
outer loop
vertex 26.35364876551827 3.4974145620314534 12.075343531932035
vertex 25.353649478241817 2.597414228903287 11.834187546600457
vertex 25.35364876551978 3.4974142288869805 12.075341819783414
endloop
endfacet
facet normal 1.4543301635664662e-06 0.3826834323652142 -0.9238795325100906
outer loop
vertex 25.353649478241817 2.597414228903287 11.834187546600457
vertex 26.35364876551827 3.4974145620314534 12.075343531932035
vertex 26.35364947824033 2.5974145620477147 11.83418925874909
endloop
endfacet
facet normal 1.1555332754994857e-06 0.6087614290088166 -0.79335334029032
outer loop
vertex 25.353650544708138 1.7904963039667057 11.368313265425298
vertex 26.353651892239263 1.1316509103111745 10.709469250775026
vertex 25.353651892240762 1.1316505771667016 10.709467538626404
endloop
endfacet
facet normal 7.779887043162385e-07 0.793353340291295 -0.6087614290081454
outer loop
vertex 26.353651892239263 1.1316509103111745 10.709469250775026
vertex 25.353650544708138 1.7904963039667057 11.368313265425298
vertex 26.353650544706614 1.7904966371111388 11.368314977573936
endloop
endfacet
facet normal -1.155533275499481e-06 -0.6087614290088197 0.7933533402903176
outer loop
vertex 26.353658793368798 6.136081049305206 5.705039111786831
vertex 25.35365744583768 6.794926442960629 6.36388312643712
vertex 25.35365879337031 6.136080716160676 5.705037399638218
endloop
endfacet
facet normal -7.779887043162449e-07 -0.7933533402912925 0.6087614290081487
outer loop
vertex 25.35365744583768 6.794926442960629 6.36388312643712
vertex 26.353658793368798 6.136081049305206 5.705039111786831
vertex 26.353657445836173 6.794926776105193 6.3638848385857365
endloop
endfacet
facet normal -0.999999999944963 2.7902728392941623e-08 1.049158050805274e-05
outer loop
vertex 25.353632656057574 -7.032132798707855 21.453997101124124
vertex 25.35365342900767 0.6657762959907074 9.90254961369104
vertex 25.353655050280636 0.4246220228072267 9.002549613708666
endloop
endfacet
facet normal -0.999999999944963 2.7902728392941623e-08 1.049158050805274e-05
outer loop
vertex 25.35365342900767 0.6657762959907074 9.90254961369104
vertex 25.353632656057574 -7.032132798707855 21.453997101124124
vertex 25.353651892240762 1.1316505771667016 10.709467538626404
endloop
endfacet
facet normal -0.999999999944963 2.7902728392941623e-08 1.049158050805274e-05
outer loop
vertex 25.353651892240762 1.1316505771667016 10.709467538626404
vertex 25.353632656057574 -7.032132798707855 21.453997101124124
vertex 25.353633067820482 7.96328851253865 21.45392678599417
endloop
endfacet
facet normal -0.999999999944963 2.7902728392941623e-08 1.049158050805274e-05
outer loop
vertex 25.353651892240762 1.1316505771667016 10.709467538626404
vertex 25.353633067820482 7.96328851253865 21.45392678599417
vertex 25.353650544708138 1.7904963039667057 11.368313265425298
endloop
endfacet
facet normal -0.999999999944963 2.7902728392941623e-08 1.049158050805274e-05
outer loop
vertex 25.353650544708138 1.7904963039667057 11.368313265425298
vertex 25.353633067820482 7.96328851253865 21.45392678599417
vertex 25.353649478241817 2.597414228903287 11.834187546600457
endloop
endfacet
facet normal -0.999999999944963 2.7902728392941623e-08 1.049158050805274e-05
outer loop
vertex 25.353649478241817 2.597414228903287 11.834187546600457
vertex 25.353633067820482 7.96328851253865 21.45392678599417
vertex 25.35364876551978 3.4974142288869805 12.075341819783414
endloop
endfacet
facet normal -0.999999999944963 2.7902728392941623e-08 1.049158050805274e-05
outer loop
vertex 25.35364876551978 3.4974142288869805 12.075341819783414
vertex 25.353633067820482 7.96328851253865 21.45392678599417
vertex 25.35364845511285 4.4291627912392055 12.075341819783045
endloop
endfacet
facet normal -0.999999999944963 2.7902728392941623e-08 1.049158050805274e-05
outer loop
vertex 25.35364845511285 4.4291627912392055 12.075341819783045
vertex 25.353633067820482 7.96328851253865 21.45392678599417
vertex 25.353648568174734 5.329162791223029 11.83418754659934
endloop
endfacet
facet normal -0.999999999944963 2.7902728392941623e-08 1.049158050805274e-05
outer loop
vertex 25.353648568174734 5.329162791223029 11.83418754659934
vertex 25.353633067820482 7.96328851253865 21.45392678599417
vertex 25.353649097000428 6.136080716159763 11.368313265423572
endloop
endfacet
facet normal -0.999999999944963 2.7902728392941623e-08 1.049158050805274e-05
outer loop
vertex 25.353649097000428 6.136080716159763 11.368313265423572
vertex 25.353633067820482 7.96328851253865 21.45392678599417
vertex 25.353650005551337 6.794926442959969 10.709467538624114
endloop
endfacet
facet normal -0.999999999944963 2.7902728392941623e-08 1.049158050805274e-05
outer loop
vertex 25.353650005551337 6.794926442959969 10.709467538624114
vertex 25.353633067820482 7.96328851253865 21.45392678599417
vertex 25.35365123191131 7.260800724136263 9.90254961368838
endloop
endfacet
facet normal -0.999999999944963 2.7902728392941623e-08 1.049158050805274e-05
outer loop
vertex 25.35365123191131 7.260800724136263 9.90254961368838
vertex 25.353633067820482 7.96328851253865 21.45392678599417
vertex 25.35365269250581 7.501954997320037 9.002549613705792
endloop
endfacet
facet normal -0.999999999944963 2.7902728392941623e-08 1.049158050805274e-05
outer loop
vertex 25.35365269250581 7.501954997320037 9.002549613705792
vertex 25.353633067820482 7.96328851253865 21.45392678599417
vertex 25.35365428779783 7.501954997320223 8.070801051354858
endloop
endfacet
facet normal -0.999999999944963 2.7902728392941623e-08 1.049158050805274e-05
outer loop
vertex 25.353409752861914 -7.032232433217355 0.20754640538287028
vertex 25.353660882965613 3.4974142288880974 4.998008845280519
vertex 25.353410835187905 31.967767566782506 0.20754640401341948
endloop
endfacet
facet normal -0.999999999944963 2.7902728392941623e-08 1.049158050805274e-05
outer loop
vertex 25.353660882965613 3.4974142288880974 4.998008845280519
vertex 25.353409752861914 -7.032232433217355 0.20754640538287028
vertex 25.353660769903765 2.597414228904308 5.2391631184642184
endloop
endfacet
facet normal -0.999999999944963 2.7902728392941623e-08 1.049158050805274e-05
outer loop
vertex 25.353660769903765 2.597414228904308 5.2391631184642184
vertex 25.353409752861914 -7.032232433217355 0.20754640538287028
vertex 25.35366024107803 1.7904963039675572 5.705037399640009
endloop
endfacet
facet normal -0.999999999944963 2.7902728392941623e-08 1.049158050805274e-05
outer loop
vertex 25.35366024107803 1.7904963039675572 5.705037399640009
vertex 25.353409752861914 -7.032232433217355 0.20754640538287028
vertex 25.353659332527076 1.1316505771673673 6.3638831264394495
endloop
endfacet
facet normal -0.999999999944963 2.7902728392941623e-08 1.049158050805274e-05
outer loop
vertex 25.353659332527076 1.1316505771673673 6.3638831264394495
vertex 25.353409752861914 -7.032232433217355 0.20754640538287028
vertex 25.35365810616715 0.6657762959910966 7.170801051375165
endloop
endfacet
facet normal -0.999999999944963 2.7902728392941623e-08 1.049158050805274e-05
outer loop
vertex 25.35365810616715 0.6657762959910966 7.170801051375165
vertex 25.353409752861914 -7.032232433217355 0.20754640538287028
vertex 25.353632656057574 -7.032132798707855 21.453997101124124
endloop
endfacet
facet normal -0.999999999944963 2.7902728392941623e-08 1.049158050805274e-05
outer loop
vertex 25.35365810616715 0.6657762959910966 7.170801051375165
vertex 25.353632656057574 -7.032132798707855 21.453997101124124
vertex 25.353656645572645 0.4246220228072944 8.070801051357744
endloop
endfacet
facet normal -0.999999999944963 2.7902728392941623e-08 1.049158050805274e-05
outer loop
vertex 25.353656645572645 0.4246220228072944 8.070801051357744
vertex 25.353632656057574 -7.032132798707855 21.453997101124124
vertex 25.353655050280636 0.4246220228072267 9.002549613708666
endloop
endfacet
facet normal -0.999999999944963 2.7902728392941623e-08 1.049158050805274e-05
outer loop
vertex 25.353410835187905 31.967767566782506 0.20754640401341948
vertex 25.353660882965613 3.4974142288880974 4.998008845280519
vertex 25.353660572558667 4.429162791240357 4.998008845280144
endloop
endfacet
facet normal -0.999999999944963 2.7902728392941623e-08 1.049158050805274e-05
outer loop
vertex 25.353410835187905 31.967767566782506 0.20754640401341948
vertex 25.353660572558667 4.429162791240357 4.998008845280144
vertex 25.353659859836622 5.329162791224044 5.2391631184630985
endloop
endfacet
facet normal -0.999999999944963 2.7902728392941623e-08 1.049158050805274e-05
outer loop
vertex 25.353410835187905 31.967767566782506 0.20754640401341948
vertex 25.353659859836622 5.329162791224044 5.2391631184630985
vertex 25.35365879337031 6.136080716160676 5.705037399638218
endloop
endfacet
facet normal -0.999999999944963 2.7902728392941623e-08 1.049158050805274e-05
outer loop
vertex 25.353410835187905 31.967767566782506 0.20754640401341948
vertex 25.35365879337031 6.136080716160676 5.705037399638218
vertex 25.35365744583768 6.794926442960629 6.36388312643712
endloop
endfacet
facet normal -0.999999999944963 2.7902728392941623e-08 1.049158050805274e-05
outer loop
vertex 25.353410835187905 31.967767566782506 0.20754640401341948
vertex 25.35365744583768 6.794926442960629 6.36388312643712
vertex 25.353655909070813 7.260800724136737 7.170801051372483
endloop
endfacet
facet normal -0.999999999944963 2.7902728392941623e-08 1.049158050805274e-05
outer loop
vertex 25.353410835187905 31.967767566782506 0.20754640401341948
vertex 25.353655909070813 7.260800724136737 7.170801051372483
vertex 25.35365428779783 7.501954997320223 8.070801051354858
endloop
endfacet
facet normal -0.999999999944963 2.7902728392941623e-08 1.049158050805274e-05
outer loop
vertex 25.353410835187905 31.967767566782506 0.20754640401341948
vertex 25.35365428779783 7.501954997320223 8.070801051354858
vertex 25.353633067820482 7.96328851253865 21.45392678599417
endloop
endfacet
facet normal -0.999999999944963 2.7902728392941623e-08 1.049158050805274e-05
outer loop
vertex 25.353410835187905 31.967767566782506 0.20754640401341948
vertex 25.353633067820482 7.96328851253865 21.45392678599417
vertex 25.35363375005998 31.96786720129226 21.453997116877066
endloop
endfacet
facet normal -7.779887043162329e-07 -0.7933533402912972 0.6087614290081427
outer loop
vertex 26.353657445836173 6.794926776105193 6.3638848385857365
vertex 25.353655909070813 7.260800724136737 7.170801051372483
vertex 25.35365744583768 6.794926442960629 6.36388312643712
endloop
endfacet
facet normal -3.4742548862097544e-07 -0.9238795325112995 0.3826834323649012
outer loop
vertex 25.353655909070813 7.260800724136737 7.170801051372483
vertex 26.353657445836173 6.794926776105193 6.3638848385857365
vertex 26.353655909069335 7.26080105728121 7.170802763521073
endloop
endfacet
facet normal -0.9999999999984788 -3.331445363611023e-07 -1.7121486108854298e-06
outer loop
vertex 26.353653429006133 0.6657766291351689 9.902551325839699
vertex 26.35365664557112 0.4246223559518574 8.070802763506347
vertex 26.353655050279134 0.42462235595166 9.00255132585731
endloop
endfacet
facet normal -0.9999999999984788 -3.331445363611023e-07 -1.7121486108854298e-06
outer loop
vertex 26.35365664557112 0.4246223559518574 8.070802763506347
vertex 26.353653429006133 0.6657766291351689 9.902551325839699
vertex 26.35365810616566 0.6657766291356708 7.170802763523741
endloop
endfacet
facet normal -0.9999999999984788 -3.331445363611023e-07 -1.7121486108854298e-06
outer loop
vertex 26.35365810616566 0.6657766291356708 7.170802763523741
vertex 26.353653429006133 0.6657766291351689 9.902551325839699
vertex 26.353651892239263 1.1316509103111745 10.709469250775026
endloop
endfacet
facet normal -0.9999999999984788 -3.331445363611023e-07 -1.7121486108854298e-06
outer loop
vertex 26.35365810616566 0.6657766291356708 7.170802763523741
vertex 26.353651892239263 1.1316509103111745 10.709469250775026
vertex 26.35365933252552 1.1316509103119359 6.3638848385880475
endloop
endfacet
facet normal -0.9999999999984788 -3.331445363611023e-07 -1.7121486108854298e-06
outer loop
vertex 26.35365933252552 1.1316509103119359 6.3638848385880475
vertex 26.353651892239263 1.1316509103111745 10.709469250775026
vertex 26.353650544706614 1.7904966371111388 11.368314977573936
endloop
endfacet
facet normal -0.9999999999984788 -3.331445363611023e-07 -1.7121486108854298e-06
outer loop
vertex 26.35365933252552 1.1316509103119359 6.3638848385880475
vertex 26.353650544706614 1.7904966371111388 11.368314977573936
vertex 26.35366024107651 1.7904966371120976 5.7050391117886035
endloop
endfacet
facet normal -0.9999999999984788 -3.331445363611023e-07 -1.7121486108854298e-06
outer loop
vertex 26.35366024107651 1.7904966371120976 5.7050391117886035
vertex 26.353650544706614 1.7904966371111388 11.368314977573936
vertex 26.353655268697867 2.1632888432081727 8.536677044680356
endloop
endfacet
facet normal -0.9999999999984788 -3.331445363611023e-07 -1.7121486108854298e-06
outer loop
vertex 26.353655268697867 2.1632888432081727 8.536677044680356
vertex 26.353650544706614 1.7904966371111388 11.368314977573936
vertex 26.353654450618844 2.224622355887875 9.002551325864944
endloop
endfacet
facet normal -0.9999999999984788 -3.331445363611023e-07 -1.7121486108854298e-06
outer loop
vertex 26.353654450618844 2.224622355887875 9.002551325864944
vertex 26.353650544706614 1.7904966371111388 11.368314977573936
vertex 26.35364947824033 2.5974145620477147 11.83418925874909
endloop
endfacet
facet normal -0.9999999999984788 -3.331445363611023e-07 -1.7121486108854298e-06
outer loop
vertex 26.353654450618844 2.224622355887875 9.002551325864944
vertex 26.35364947824033 2.5974145620477147 11.83418925874909
vertex 26.35365364742486 2.4044431163962106 9.43667704468042
endloop
endfacet
facet normal -0.9999999999984788 -3.331445363611023e-07 -1.7121486108854298e-06
outer loop
vertex 26.35365364742486 2.4044431163962106 9.43667704468042
vertex 26.35364947824033 2.5974145620477147 11.83418925874909
vertex 26.353652913852066 2.6904966370724472 9.809469250816147
endloop
endfacet
facet normal -0.9999999999984788 -3.331445363611023e-07 -1.7121486108854298e-06
outer loop
vertex 26.353652913852066 2.6904966370724472 9.809469250816147
vertex 26.35364947824033 2.5974145620477147 11.83418925874909
vertex 26.35364876551827 3.4974145620314534 12.075343531932035
endloop
endfacet
facet normal -0.9999999999984788 -3.331445363611023e-07 -1.7121486108854298e-06
outer loop
vertex 26.353652913852066 2.6904966370724472 9.809469250816147
vertex 26.35364876551827 3.4974145620314534 12.075343531932035
vertex 26.353652299892296 3.06328884320825 10.095522771492346
endloop
endfacet
facet normal -0.9999999999984788 -3.331445363611023e-07 -1.7121486108854298e-06
outer loop
vertex 26.353652299892296 3.06328884320825 10.095522771492346
vertex 26.35364876551827 3.4974145620314534 12.075343531932035
vertex 26.353651847385727 3.497414562023732 10.275343532000702
endloop
endfacet
facet normal -0.9999999999984788 -3.331445363611023e-07 -1.7121486108854298e-06
outer loop
vertex 26.353651847385727 3.497414562023732 10.275343532000702
vertex 26.35364876551827 3.4974145620314534 12.075343531932035
vertex 26.3536515871702 3.9632888432082822 10.33667704468039
endloop
endfacet
facet normal -0.9999999999984788 -3.331445363611023e-07 -1.7121486108854298e-06
outer loop
vertex 26.3536515871702 3.9632888432082822 10.33667704468039
vertex 26.35364876551827 3.4974145620314534 12.075343531932035
vertex 26.353648455111333 4.429163124383707 12.075343531931669
endloop
endfacet
facet normal -0.9999999999984788 -3.331445363611023e-07 -1.7121486108854298e-06
outer loop
vertex 26.3536515871702 3.9632888432082822 10.33667704468039
vertex 26.353648455111333 4.429163124383707 12.075343531931669
vertex 26.353651536978774 4.429163124392798 10.275343532000667
endloop
endfacet
facet normal -0.9999999999984788 -3.331445363611023e-07 -1.7121486108854298e-06
outer loop
vertex 26.353651536978774 4.429163124392798 10.275343532000667
vertex 26.353648455111333 4.429163124383707 12.075343531931669
vertex 26.353648568173224 5.329163124367468 11.834189258747953
endloop
endfacet
facet normal -0.9999999999984788 -3.331445363611023e-07 -1.7121486108854298e-06
outer loop
vertex 26.353651536978774 4.429163124392798 10.275343532000667
vertex 26.353648568173224 5.329163124367468 11.834189258747953
vertex 26.35365170023207 4.863288843208281 10.09552277149239
endloop
endfacet
facet normal -0.9999999999984788 -3.331445363611023e-07 -1.7121486108854298e-06
outer loop
vertex 26.35365170023207 4.863288843208281 10.09552277149239
vertex 26.353648568173224 5.329163124367468 11.834189258747953
vertex 26.353652065804567 5.236081049344022 9.809469250816253
endloop
endfacet
facet normal -0.9999999999984788 -3.331445363611023e-07 -1.7121486108854298e-06
outer loop
vertex 26.353652065804567 5.236081049344022 9.809469250816253
vertex 26.353648568173224 5.329163124367468 11.834189258747953
vertex 26.35365260878297 5.522134570020202 9.436677044680453
endloop
endfacet
facet normal -0.9999999999984788 -3.331445363611023e-07 -1.7121486108854298e-06
outer loop
vertex 26.35365260878297 5.522134570020202 9.436677044680453
vertex 26.353648568173224 5.329163124367468 11.834189258747953
vertex 26.353649096998872 6.136081049304218 11.368314977572156
endloop
endfacet
facet normal -0.9999999999984788 -3.331445363611023e-07 -1.7121486108854298e-06
outer loop
vertex 26.35365260878297 5.522134570020202 9.436677044680453
vertex 26.353649096998872 6.136081049304218 11.368314977572156
vertex 26.353653292164484 5.7019553305285315 9.002551325864916
endloop
endfacet
facet normal -0.9999999999984788 -3.331445363611023e-07 -1.7121486108854298e-06
outer loop
vertex 26.353653292164484 5.7019553305285315 9.002551325864916
vertex 26.353649096998872 6.136081049304218 11.368314977572156
vertex 26.353654069377534 5.763288843208172 8.536677044680394
endloop
endfacet
facet normal -0.9999999999984788 -3.331445363611023e-07 -1.7121486108854298e-06
outer loop
vertex 26.35366024107651 1.7904966371120976 5.7050391117886035
vertex 26.35365604591088 2.224622355887852 8.070802763495857
vertex 26.35366076990219 2.5974145620488596 5.239164830612832
endloop
endfacet
facet normal -0.9999999999984788 -3.331445363611023e-07 -1.7121486108854298e-06
outer loop
vertex 26.35365604591088 2.224622355887852 8.070802763495857
vertex 26.35366024107651 1.7904966371120976 5.7050391117886035
vertex 26.353655268697867 2.1632888432081727 8.536677044680356
endloop
endfacet
facet normal -0.9999999999984788 -3.331445363611023e-07 -1.7121486108854298e-06
outer loop
vertex 26.35366076990219 2.5974145620488596 5.239164830612832
vertex 26.35365604591088 2.224622355887852 8.070802763495857
vertex 26.353656729292386 2.404443116396182 7.636677044680344
endloop
endfacet
facet normal -0.9999999999984788 -3.331445363611023e-07 -1.7121486108854298e-06
outer loop
vertex 26.35366076990219 2.5974145620488596 5.239164830612832
vertex 26.353656729292386 2.404443116396182 7.636677044680344
vertex 26.353657272270862 2.690496637072374 7.263884838544558
endloop
endfacet
facet normal -0.9999999999984788 -3.331445363611023e-07 -1.7121486108854298e-06
outer loop
vertex 26.35366076990219 2.5974145620488596 5.239164830612832
vertex 26.353657272270862 2.690496637072374 7.263884838544558
vertex 26.353660882964114 3.497414562032638 4.99801055742914
endloop
endfacet
facet normal -0.9999999999984788 -3.331445363611023e-07 -1.7121486108854298e-06
outer loop
vertex 26.353660882964114 3.497414562032638 4.99801055742914
vertex 26.353657272270862 2.690496637072374 7.263884838544558
vertex 26.353657637843416 3.063288843208109 6.97783131786832
endloop
endfacet
facet normal -0.9999999999984788 -3.331445363611023e-07 -1.7121486108854298e-06
outer loop
vertex 26.353660882964114 3.497414562032638 4.99801055742914
vertex 26.353657637843416 3.063288843208109 6.97783131786832
vertex 26.353657801096578 3.497414562023597 6.798010557359932
endloop
endfacet
facet normal -0.9999999999984788 -3.331445363611023e-07 -1.7121486108854298e-06
outer loop
vertex 26.353660882964114 3.497414562032638 4.99801055742914
vertex 26.353657801096578 3.497414562023597 6.798010557359932
vertex 26.353657750905267 3.963288843208113 6.736677044680373
endloop
endfacet
facet normal -0.9999999999984788 -3.331445363611023e-07 -1.7121486108854298e-06
outer loop
vertex 26.353660882964114 3.497414562032638 4.99801055742914
vertex 26.353657750905267 3.963288843208113 6.736677044680373
vertex 26.353660572557203 4.429163124384891 4.998010557428765
endloop
endfacet
facet normal -0.9999999999984788 -3.331445363611023e-07 -1.7121486108854298e-06
outer loop
vertex 26.353660572557203 4.429163124384891 4.998010557428765
vertex 26.353657750905267 3.963288843208113 6.736677044680373
vertex 26.353657490689685 4.429163124392692 6.798010557359953
endloop
endfacet
facet normal -0.9999999999984788 -3.331445363611023e-07 -1.7121486108854298e-06
outer loop
vertex 26.353660572557203 4.429163124384891 4.998010557428765
vertex 26.353657490689685 4.429163124392692 6.798010557359953
vertex 26.353659859835158 5.3291631243686295 5.239164830611695
endloop
endfacet
facet normal -0.9999999999984788 -3.331445363611023e-07 -1.7121486108854298e-06
outer loop
vertex 26.353659859835158 5.3291631243686295 5.239164830611695
vertex 26.353657490689685 4.429163124392692 6.798010557359953
vertex 26.353657038183144 4.863288843208151 6.977831317868337
endloop
endfacet
facet normal -0.9999999999984788 -3.331445363611023e-07 -1.7121486108854298e-06
outer loop
vertex 26.353659859835158 5.3291631243686295 5.239164830611695
vertex 26.353657038183144 4.863288843208151 6.977831317868337
vertex 26.353656424223345 5.236081049343965 7.263884838544607
endloop
endfacet
facet normal -0.9999999999984788 -3.331445363611023e-07 -1.7121486108854298e-06
outer loop
vertex 26.353659859835158 5.3291631243686295 5.239164830611695
vertex 26.353656424223345 5.236081049343965 7.263884838544607
vertex 26.35365569065056 5.522134570020162 7.636677044680432
endloop
endfacet
facet normal -0.9999999999984788 -3.331445363611023e-07 -1.7121486108854298e-06
outer loop
vertex 26.353659859835158 5.3291631243686295 5.239164830611695
vertex 26.35365569065056 5.522134570020162 7.636677044680432
vertex 26.353658793368798 6.136081049305206 5.705039111786831
endloop
endfacet
facet normal -0.9999999999984788 -3.331445363611023e-07 -1.7121486108854298e-06
outer loop
vertex 26.353658793368798 6.136081049305206 5.705039111786831
vertex 26.35365569065056 5.522134570020162 7.636677044680432
vertex 26.353654887456447 5.701955330528515 8.070802763495832
endloop
endfacet
facet normal -0.9999999999984788 -3.331445363611023e-07 -1.7121486108854298e-06
outer loop
vertex 26.353658793368798 6.136081049305206 5.705039111786831
vertex 26.353654887456447 5.701955330528515 8.070802763495832
vertex 26.353654069377534 5.763288843208172 8.536677044680394
endloop
endfacet
facet normal -0.9999999999984788 -3.331445363611023e-07 -1.7121486108854298e-06
outer loop
vertex 26.353658793368798 6.136081049305206 5.705039111786831
vertex 26.353654069377534 5.763288843208172 8.536677044680394
vertex 26.353649096998872 6.136081049304218 11.368314977572156
endloop
endfacet
facet normal -0.9999999999984788 -3.331445363611023e-07 -1.7121486108854298e-06
outer loop
vertex 26.353658793368798 6.136081049305206 5.705039111786831
vertex 26.353649096998872 6.136081049304218 11.368314977572156
vertex 26.353650005549817 6.794926776104476 10.709469250772745
endloop
endfacet
facet normal -0.9999999999984788 -3.331445363611023e-07 -1.7121486108854298e-06
outer loop
vertex 26.353658793368798 6.136081049305206 5.705039111786831
vertex 26.353650005549817 6.794926776104476 10.709469250772745
vertex 26.353657445836173 6.794926776105193 6.3638848385857365
endloop
endfacet
facet normal -0.9999999999984788 -3.331445363611023e-07 -1.7121486108854298e-06
outer loop
vertex 26.353657445836173 6.794926776105193 6.3638848385857365
vertex 26.353650005549817 6.794926776104476 10.709469250772745
vertex 26.35365123190978 7.260801057280724 9.90255132583702
endloop
endfacet
facet normal -0.9999999999984788 -3.331445363611023e-07 -1.7121486108854298e-06
outer loop
vertex 26.353657445836173 6.794926776105193 6.3638848385857365
vertex 26.35365123190978 7.260801057280724 9.90255132583702
vertex 26.353655909069335 7.26080105728121 7.170802763521073
endloop
endfacet
facet normal -0.9999999999984788 -3.331445363611023e-07 -1.7121486108854298e-06
outer loop
vertex 26.353655909069335 7.26080105728121 7.170802763521073
vertex 26.35365123190978 7.260801057280724 9.90255132583702
vertex 26.35365269250431 7.5019553304644875 9.002551325854416
endloop
endfacet
facet normal -0.9999999999984788 -3.331445363611023e-07 -1.7121486108854298e-06
outer loop
vertex 26.353655909069335 7.26080105728121 7.170802763521073
vertex 26.35365269250431 7.5019553304644875 9.002551325854416
vertex 26.353654287796264 7.501955330464685 8.070802763503483
endloop
endfacet
facet normal -1.068141999760406e-07 0.9914448613737767 -0.13052619222026265
outer loop
vertex 25.353655050280636 0.4246220228072267 9.002549613708666
vertex 26.35365664557112 0.4246223559518574 8.070802763506347
vertex 25.353656645572645 0.4246220228072944 8.070801051357744
endloop
endfacet
facet normal -5.537746773635025e-07 0.9914448613737341 0.1305261922194557
outer loop
vertex 26.35365664557112 0.4246223559518574 8.070802763506347
vertex 25.353655050280636 0.4246220228072267 9.002549613708666
vertex 26.353655050279134 0.42462235595166 9.00255132585731
endloop
endfacet
facet normal -5.537746773635007e-07 0.9914448613737343 0.13052619221945458
outer loop
vertex 25.353656645572645 0.4246220228072944 8.070801051357744
vertex 26.35365810616566 0.6657766291356708 7.170802763523741
vertex 25.35365810616715 0.6657762959910966 7.170801051375165
endloop
endfacet
facet normal -9.629963256445769e-07 0.9238795325111715 0.38268343236415653
outer loop
vertex 26.35365810616566 0.6657766291356708 7.170802763523741
vertex 25.353656645572645 0.4246220228072944 8.070801051357744
vertex 26.35365664557112 0.4246223559518574 8.070802763506347
endloop
endfacet
facet normal 1.3065913657596363e-06 -0.7933533402910893 -0.6087614290075086
outer loop
vertex 26.353650005549817 6.794926776104476 10.709469250772745
vertex 25.353649097000428 6.136080716159763 11.368313265423572
vertex 25.353650005551337 6.794926442959969 10.709467538624114
endloop
endfacet
facet normal 1.5611443635424971e-06 -0.6087614290085619 -0.7933533402898212
outer loop
vertex 25.353649097000428 6.136080716159763 11.368313265423572
vertex 26.353650005549817 6.794926776104476 10.709469250772745
vertex 26.353649096998872 6.136081049304218 11.368314977572156
endloop
endfacet
facet normal -9.629963256445703e-07 0.9238795325111729 0.38268343236415253
outer loop
vertex 25.35365810616715 0.6657762959910966 7.170801051375165
vertex 26.35365933252552 1.1316509103119359 6.3638848385880475
vertex 25.353659332527076 1.1316505771673673 6.3638831264394495
endloop
endfacet
facet normal -1.3065913657596363e-06 0.7933533402910898 0.6087614290075081
outer loop
vertex 26.35365933252552 1.1316509103119359 6.3638848385880475
vertex 25.35365810616715 0.6657762959910966 7.170801051375165
vertex 26.35365810616566 0.6657766291356708 7.170802763523741
endloop
endfacet
facet normal -1.7093079528629912e-06 0.3826834323649157 0.9238795325097777
outer loop
vertex 26.35366076990219 2.5974145620488596 5.239164830612832
vertex 25.353660882965613 3.4974142288880974 4.998008845280519
vertex 25.353660769903765 2.597414228904308 5.2391631184642184
endloop
endfacet
facet normal -1.740985029960819e-06 0.1305261922198863 0.9914448613723036
outer loop
vertex 25.353660882965613 3.4974142288880974 4.998008845280519
vertex 26.35366076990219 2.5974145620488596 5.239164830612832
vertex 26.353660882964114 3.497414562032638 4.99801055742914
endloop
endfacet
facet normal -1.5611443635425033e-06 0.6087614290085548 0.7933533402898264
outer loop
vertex 26.35366024107651 1.7904966371120976 5.7050391117886035
vertex 25.353660769903765 2.597414228904308 5.2391631184642184
vertex 25.35366024107803 1.7904963039675572 5.705037399640009
endloop
endfacet
facet normal -1.7093079528629895e-06 0.3826834323649191 0.9238795325097762
outer loop
vertex 25.353660769903765 2.597414228904308 5.2391631184642184
vertex 26.35366024107651 1.7904966371120976 5.7050391117886035
vertex 26.35366076990219 2.5974145620488596 5.239164830612832
endloop
endfacet
facet normal -1.6540168543806133e-06 -0.13052619222020795 0.9914448613724101
outer loop
vertex 25.353660572558667 4.429162791240357 4.998008845280144
vertex 26.353659859835158 5.3291631243686295 5.239164830611695
vertex 25.353659859836622 5.329162791224044 5.2391631184630985
endloop
endfacet
facet normal -1.454330163566458e-06 -0.38268343236522195 0.9238795325100873
outer loop
vertex 26.353659859835158 5.3291631243686295 5.239164830611695
vertex 25.353660572558667 4.429162791240357 4.998008845280144
vertex 26.353660572557203 4.429163124384891 4.998010557428765
endloop
endfacet
facet normal -1.3065913657596315e-06 0.7933533402910922 0.6087614290075047
outer loop
vertex 25.353659332527076 1.1316505771673673 6.3638831264394495
vertex 26.35366024107651 1.7904966371120976 5.7050391117886035
vertex 25.35366024107803 1.7904963039675572 5.705037399640009
endloop
endfacet
facet normal -1.5611443635425033e-06 0.6087614290085548 0.7933533402898264
outer loop
vertex 26.35366024107651 1.7904966371120976 5.7050391117886035
vertex 25.353659332527076 1.1316505771673673 6.3638831264394495
vertex 26.35365933252552 1.1316509103119359 6.3638848385880475
endloop
endfacet
facet normal -1.740985029960819e-06 0.1305261922198863 0.9914448613723036
outer loop
vertex 25.353660882965613 3.4974142288880974 4.998008845280519
vertex 26.353660572557203 4.429163124384891 4.998010557428765
vertex 25.353660572558667 4.429162791240357 4.998008845280144
endloop
endfacet
facet normal -1.6540168543806129e-06 -0.13052619222020845 0.9914448613724102
outer loop
vertex 26.353660572557203 4.429163124384891 4.998010557428765
vertex 25.353660882965613 3.4974142288880974 4.998008845280519
vertex 26.353660882964114 3.497414562032638 4.99801055742914
endloop
endfacet
facet normal 5.537746773635051e-07 -0.991444861373734 -0.13052619221945735
outer loop
vertex 26.35365269250431 7.5019553304644875 9.002551325854416
vertex 25.35365123191131 7.260800724136263 9.90254961368838
vertex 25.35365269250581 7.501954997320037 9.002549613705792
endloop
endfacet
facet normal 9.629963256445673e-07 -0.9238795325111736 -0.3826834323641513
outer loop
vertex 25.35365123191131 7.260800724136263 9.90254961368838
vertex 26.35365269250431 7.5019553304644875 9.002551325854416
vertex 26.35365123190978 7.260801057280724 9.90255132583702
endloop
endfacet
facet normal 0.29683214646743156 4.471737399568748e-06 0.954929671129524
outer loop
vertex 29.541480265660226 0.47073586860460986 18.05780843085734
vertex 29.541446801712336 2.6920593935034502 18.05780843085734
vertex 28.82960755839573 0.4707251443355365 18.27908829066829
endloop
endfacet
facet normal 0.29683214646743156 4.471737399568748e-06 0.954929671129524
outer loop
vertex 28.829560636120966 3.585407043378476 18.279088290668287
vertex 29.541446801712336 2.6920593935034502 18.05780843085734
vertex 33.020098759046384 3.5854701732863 16.976493488380346
endloop
endfacet
facet normal 0.29683214646743156 4.471737399568748e-06 0.954929671129524
outer loop
vertex 29.541446801712336 2.6920593935034502 18.05780843085734
vertex 28.829560636120966 3.585407043378476 18.279088290668287
vertex 28.82960755839573 0.4707251443355365 18.27908829066829
endloop
endfacet
facet normal 0.29683214646743156 4.471737399568748e-06 0.954929671129524
outer loop
vertex 33.020098759046384 3.5854701732863 16.976493488380346
vertex 29.541446801712336 2.6920593935034502 18.05780843085734
vertex 33.02011221737325 2.6921117991422014 16.976493488380346
endloop
endfacet
facet normal 0.9549296710211634 1.438589039061483e-05 -0.29683214650111467
outer loop
vertex 28.829560636120966 3.585407043378476 18.279088290668287
vertex 29.423271851330597 0.4707340878103357 20.18894763292734
vertex 28.82960755839573 0.4707251443355365 18.27908829066829
endloop
endfacet
facet normal 0.9549296710211634 1.438589039061483e-05 -0.29683214650111467
outer loop
vertex 29.423271851330597 0.4707340878103357 20.18894763292734
vertex 28.829560636120966 3.585407043378476 18.279088290668287
vertex 29.423224929055834 3.585415986853275 20.188947632927338
endloop
endfacet
facet normal -1.5064868989633217e-05 0.999999999886525 -6.470034392713501e-16
outer loop
vertex 28.82960755839573 0.4707251443355365 18.27908829066829
vertex 30.13514455859509 0.470744812079409 19.967667773116386
vertex 29.541480265660226 0.47073586860460986 18.05780843085734
endloop
endfacet
facet normal -1.5064868989633217e-05 0.999999999886525 -6.470034392713501e-16
outer loop
vertex 30.13514455859509 0.470744812079409 19.967667773116386
vertex 28.82960755839573 0.4707251443355365 18.27908829066829
vertex 29.423271851330597 0.4707340878103357 20.18894763292734
endloop
endfacet
facet normal -0.9549296710211632 -1.4385890389755871e-05 0.29683214650111467
outer loop
vertex 30.13514455859509 0.470744812079409 19.967667773116386
vertex 29.541446801712336 2.6920593935034502 18.05780843085734
vertex 29.541480265660226 0.47073586860460986 18.05780843085734
endloop
endfacet
facet normal -0.9549296710211632 -1.4385890389755871e-05 0.29683214650111467
outer loop
vertex 29.541446801712336 2.6920593935034502 18.05780843085734
vertex 30.13514455859509 0.470744812079409 19.967667773116386
vertex 30.1351110946472 2.692068336978249 19.967667773116386
endloop
endfacet
facet normal -1.506486898969495e-05 0.999999999886525 -6.278134405478292e-16
outer loop
vertex 29.541446801712336 2.6920593935034502 18.05780843085734
vertex 33.61377651030812 2.6921207426170004 18.886352830639392
vertex 33.02011221737325 2.6921117991422014 16.976493488380346
endloop
endfacet
facet normal -1.506486898969495e-05 0.999999999886525 -6.278134405478292e-16
outer loop
vertex 33.61377651030812 2.6921207426170004 18.886352830639392
vertex 29.541446801712336 2.6920593935034502 18.05780843085734
vertex 30.1351110946472 2.692068336978249 19.967667773116386
endloop
endfacet
facet normal -0.9549296710211633 -1.4385890387658958e-05 0.2968321465011146
outer loop
vertex 33.61377651030812 2.6921207426170004 18.886352830639392
vertex 33.020098759046384 3.5854701732863 16.976493488380346
vertex 33.02011221737325 2.6921117991422014 16.976493488380346
endloop
endfacet
facet normal -0.9549296710211633 -1.4385890387658958e-05 0.2968321465011146
outer loop
vertex 33.020098759046384 3.5854701732863 16.976493488380346
vertex 33.61377651030812 2.6921207426170004 18.886352830639392
vertex 33.61376305198125 3.585479116761099 18.886352830639392
endloop
endfacet
facet normal 1.5064868989607738e-05 -0.999999999886525 6.549227181074312e-16
outer loop
vertex 33.61376305198125 3.585479116761099 18.886352830639392
vertex 28.829560636120966 3.585407043378476 18.279088290668287
vertex 33.020098759046384 3.5854701732863 16.976493488380346
endloop
endfacet
facet normal 1.5064868989607738e-05 -0.999999999886525 6.549227181074312e-16
outer loop
vertex 28.829560636120966 3.585407043378476 18.279088290668287
vertex 33.61376305198125 3.585479116761099 18.886352830639392
vertex 29.423224929055834 3.585415986853275 20.188947632927338
endloop
endfacet
facet normal -0.44745180895153386 0.8943080441716142 2.8212447555790954e-05
outer loop
vertex 31.353649442116296 15.967890530387404 0.20707595680551122
vertex 33.35613167232569 16.969201875545796 18.453808920731724
vertex 33.35458942478155 16.969026800963533 0.2069070688911673
endloop
endfacet
facet normal -0.44745180895153386 0.8943080441716142 2.8212447555790954e-05
outer loop
vertex 33.35613167232569 16.969201875545796 18.453808920731724
vertex 31.353649442116296 15.967890530387404 0.20707595680551122
vertex 31.355191689660433 15.968065604969665 18.453977808646066
endloop
endfacet
facet normal 0.4477343639485064 0.8941666161723569 -4.3156730686058166e-05
outer loop
vertex 29.354305234934763 16.969018394048522 0.20720969088581076
vertex 31.355191689660433 15.968065604969665 18.453977808646066
vertex 31.353649442116296 15.967890530387404 0.20707595680551122
endloop
endfacet
facet normal 0.4477343639485064 0.8941666161723569 -4.3156730686058166e-05
outer loop
vertex 31.355191689660433 15.968065604969665 18.453977808646066
vertex 29.354305234934763 16.969018394048522 0.20720969088581076
vertex 29.355847482478897 16.96919346863078 18.454111542726363
endloop
endfacet
facet normal -3.9004078496687884e-05 2.2869180832157843e-06 -0.9999999992367261
outer loop
vertex 33.357722695780105 31.96777420770462 18.45399704715818
vertex 29.355847482478897 16.96919346863078 18.454111542726363
vertex 29.35521305863876 31.967851480513033 18.454006643477516
endloop
endfacet
facet normal -3.9004078496687884e-05 2.2869180832157843e-06 -0.9999999992367261
outer loop
vertex 29.355847482478897 16.96919346863078 18.454111542726363
vertex 33.357722695780105 31.96777420770462 18.45399704715818
vertex 31.355191689660433 15.968065604969665 18.453977808646066
endloop
endfacet
facet normal -3.9004078496687884e-05 2.2869180832157843e-06 -0.9999999992367261
outer loop
vertex 31.355191689660433 15.968065604969665 18.453977808646066
vertex 33.357722695780105 31.96777420770462 18.45399704715818
vertex 33.35613167232569 16.969201875545796 18.453808920731724
endloop
endfacet
endsolid glass_h_l
