<?xml version="1.0" encoding="UTF-8" standalone="no"?>
<!-- Created with Inkscape (http://www.inkscape.org/) -->

<svg
   xmlns:osb="http://www.openswatchbook.org/uri/2009/osb"
   xmlns:dc="http://purl.org/dc/elements/1.1/"
   xmlns:cc="http://creativecommons.org/ns#"
   xmlns:rdf="http://www.w3.org/1999/02/22-rdf-syntax-ns#"
   xmlns:svg="http://www.w3.org/2000/svg"
   xmlns="http://www.w3.org/2000/svg"
   xmlns:xlink="http://www.w3.org/1999/xlink"
   xmlns:sodipodi="http://sodipodi.sourceforge.net/DTD/sodipodi-0.dtd"
   xmlns:inkscape="http://www.inkscape.org/namespaces/inkscape"
   width="210mm"
   height="297mm"
   viewBox="0 0 210 297"
   version="1.1"
   id="svg8"
   inkscape:version="0.92.4 (5da689c313, 2019-01-14)"
   sodipodi:docname="Bed-Knob-Text.svg">
  <defs
     id="defs2">
    <linearGradient
       id="linearGradient4691"
       osb:paint="solid">
      <stop
         style="stop-color:#000000;stop-opacity:1;"
         offset="0"
         id="stop4689" />
    </linearGradient>
    <linearGradient
       id="linearGradient4528"
       osb:paint="solid">
      <stop
         style="stop-color:#000000;stop-opacity:1;"
         offset="0"
         id="stop4526" />
    </linearGradient>
    <linearGradient
       id="linearGradient4522"
       osb:paint="solid">
      <stop
         style="stop-color:#000000;stop-opacity:1;"
         offset="0"
         id="stop4520" />
    </linearGradient>
    <linearGradient
       inkscape:collect="always"
       xlink:href="#linearGradient4528"
       id="linearGradient4530"
       x1="39.093002"
       y1="133.6198"
       x2="167.093"
       y2="133.6198"
       gradientUnits="userSpaceOnUse"
       gradientTransform="translate(1.0392893,-0.75208841)" />
    <linearGradient
       gradientTransform="translate(1.039293,-0.75208196)"
       inkscape:collect="always"
       xlink:href="#linearGradient4528"
       id="linearGradient4530-6"
       x1="39.093002"
       y1="133.6198"
       x2="167.093"
       y2="133.6198"
       gradientUnits="userSpaceOnUse" />
    <linearGradient
       inkscape:collect="always"
       xlink:href="#linearGradient4528"
       id="linearGradient4590"
       gradientUnits="userSpaceOnUse"
       gradientTransform="translate(1.039293,-0.75208196)"
       x1="39.093002"
       y1="133.6198"
       x2="167.093"
       y2="133.6198" />
    <linearGradient
       inkscape:collect="always"
       xlink:href="#linearGradient4528"
       id="linearGradient4631"
       gradientUnits="userSpaceOnUse"
       gradientTransform="matrix(0.6899219,0,0,0.68992196,44.06467,36.803526)"
       x1="39.093002"
       y1="133.6198"
       x2="167.093"
       y2="133.6198" />
    <linearGradient
       inkscape:collect="always"
       xlink:href="#linearGradient4691"
       id="linearGradient4693"
       x1="-0.75595188"
       y1="277.03638"
       x2="15.578998"
       y2="277.03638"
       gradientUnits="userSpaceOnUse"
       gradientTransform="matrix(1.8944059,0,0,1.894406,-14.040435,-524.93938)" />
  </defs>
  <sodipodi:namedview
     id="base"
     pagecolor="#ffffff"
     bordercolor="#666666"
     borderopacity="1.0"
     inkscape:pageopacity="0.0"
     inkscape:pageshadow="2"
     inkscape:zoom="0.98994949"
     inkscape:cx="213.54948"
     inkscape:cy="1166.0309"
     inkscape:document-units="mm"
     inkscape:current-layer="layer1"
     showgrid="false"
     inkscape:window-width="1920"
     inkscape:window-height="1017"
     inkscape:window-x="1912"
     inkscape:window-y="-8"
     inkscape:window-maximized="1" />
  <metadata
     id="metadata5">
    <rdf:RDF>
      <cc:Work
         rdf:about="">
        <dc:format>image/svg+xml</dc:format>
        <dc:type
           rdf:resource="http://purl.org/dc/dcmitype/StillImage" />
        <dc:title></dc:title>
      </cc:Work>
    </rdf:RDF>
  </metadata>
  <g
     inkscape:label="Layer 1"
     inkscape:groupmode="layer"
     id="layer1">
    <circle
       style="fill:none;stroke:url(#linearGradient4693);stroke-width:0.50122827"
       id="path4687"
       cx="-1.0979176e-06"
       cy="-0.1199989"
       r="84.869385" />
    <g
       aria-label="&gt;&gt;&gt;&gt; ВВЕРХ &gt;&gt;&gt;&gt;&gt; ВВЕРХ &gt;&gt;&gt;&gt;&gt;  &lt;&lt;&lt;&lt; ВНИЗ &lt;&lt;&lt;&lt;&lt; ВНИЗ &lt;&lt;&lt;&lt;&lt;"
       style="font-style:normal;font-weight:normal;font-size:10.58333302px;line-height:1.25;font-family:sans-serif;letter-spacing:0px;word-spacing:0px;fill:#000000;fill-opacity:1;stroke:none;stroke-width:0.26458332"
       id="text4699">
      <path
         d="M 94.020117,3.2722476 89.037227,8.583076 84.649438,2.7642277 86.02328,1.5552514 89.170212,5.8246418 92.78503,1.9218314 Z"
         style="font-style:normal;font-variant:normal;font-weight:bold;font-stretch:normal;font-size:16.93333244px;font-family:Consolas;-inkscape-font-specification:'Consolas Bold';stroke-width:0.26458332"
         id="path4749" />
      <path
         d="m 93.091747,13.560332 -5.533443,4.734459 -3.725589,-6.26352 1.497737,-1.051593 2.661498,4.587734 4.019689,-3.484385 z"
         style="font-style:normal;font-variant:normal;font-weight:bold;font-stretch:normal;font-size:16.93333244px;font-family:Consolas;-inkscape-font-specification:'Consolas Bold';stroke-width:0.26458332"
         id="path4751" />
      <path
         d="m 91.038076,23.693731 -6.021852,4.095288 -3.012053,-6.636205 1.604581,-0.879992 2.139276,4.853284 4.379462,-3.019794 z"
         style="font-style:normal;font-variant:normal;font-weight:bold;font-stretch:normal;font-size:16.93333244px;font-family:Consolas;-inkscape-font-specification:'Consolas Bold';stroke-width:0.26458332"
         id="path4753" />
      <path
         d="m 87.877375,33.539945 -6.437457,3.404885 -2.260404,-6.928367 1.691984,-0.69732 1.58996,5.059931 4.686294,-2.517436 z"
         style="font-style:normal;font-variant:normal;font-weight:bold;font-stretch:normal;font-size:16.93333244px;font-family:Consolas;-inkscape-font-specification:'Consolas Bold';stroke-width:0.26458332"
         id="path4755" />
      <path
         d="m 71.890996,45.148925 8.88733,6.147961 -1.985034,2.869513 q -1.048964,1.516354 -2.101477,1.904229 -1.057218,0.394674 -2.131585,-0.348537 -0.33319,-0.23049 -0.596334,-0.53317 -0.261048,-0.291175 -0.413347,-0.637821 -0.152299,-0.346647 -0.186953,-0.732555 -0.03466,-0.385909 0.08024,-0.799065 -0.284888,0.295559 -0.655053,0.481857 -0.36807,0.197802 -0.78169,0.243448 -0.411524,0.05715 -0.847687,-0.05355 -0.440867,-0.103901 -0.869254,-0.400245 -1.359958,-0.940775 -1.416419,-2.327038 -0.04966,-1.38156 1.14042,-3.101908 z m 3.581034,8.630152 q 0.251592,0.174043 0.512032,0.233562 0.260441,0.05952 0.530241,-0.02529 0.265096,-0.07801 0.537457,-0.311862 0.274456,-0.222345 0.551984,-0.623532 l 0.700877,-1.01317 -2.352728,-1.62754 -0.700877,1.01317 q -0.282233,0.407987 -0.379894,0.752633 -0.09557,0.35615 -0.04787,0.650541 0.04979,0.305895 0.222441,0.535921 0.167947,0.236825 0.426339,0.415572 z m -4.171087,-4.85596 q -0.277528,0.401188 -0.382502,0.770937 -0.109677,0.376549 -0.074,0.702843 0.04248,0.330999 0.216713,0.602335 0.169531,0.278136 0.448322,0.470995 0.577983,0.399829 1.205421,0.190428 0.622734,-0.202601 1.238941,-1.093374 l 0.719692,-1.040368 -2.563522,-1.77336 z"
         style="font-style:normal;font-variant:normal;font-weight:bold;font-stretch:normal;font-size:16.93333244px;font-family:Consolas;-inkscape-font-specification:'Consolas Bold';stroke-width:0.26458332"
         id="path4757" />
      <path
         d="m 66.486799,52.754711 8.16266,7.081882 -2.286576,2.635534 q -1.208309,1.39271 -2.29689,1.663306 -1.094,0.276841 -2.080764,-0.57927 -0.306022,-0.265503 -0.534532,-0.595113 -0.227683,-0.317946 -0.341209,-0.679153 -0.113526,-0.361207 -0.105823,-0.748592 0.0077,-0.387385 0.167035,-0.78552 -0.315465,0.262674 -0.703764,0.407427 -0.387472,0.156417 -0.803603,0.156613 -0.415304,0.01186 -0.836766,-0.145819 -0.426881,-0.151432 -0.820338,-0.492793 -1.249068,-1.083685 -1.153778,-2.467822 0.101535,-1.378718 1.472396,-2.958789 z m 2.616997,8.969652 q 0.231078,0.200482 0.483459,0.288091 0.252381,0.08761 0.529831,0.03277 0.272031,-0.04859 0.568304,-0.251293 0.297099,-0.191038 0.616786,-0.559513 l 0.807346,-0.930556 -2.160888,-1.874775 -0.807345,0.930556 q -0.325106,0.37472 -0.459827,0.706637 -0.133893,0.343581 -0.118639,0.64142 0.01608,0.309503 0.162575,0.55701 0.141075,0.253752 0.378398,0.459652 z m -3.615749,-5.282487 q -0.319687,0.368475 -0.464417,0.724547 -0.150149,0.362316 -0.150323,0.690556 0.0061,0.333657 0.149627,0.622401 0.138138,0.294988 0.394197,0.517144 0.530853,0.460566 1.177409,0.320949 0.641137,-0.133372 1.350951,-0.951512 l 0.829019,-0.955537 -2.354493,-2.042746 z"
         style="font-style:normal;font-variant:normal;font-weight:bold;font-stretch:normal;font-size:16.93333244px;font-family:Consolas;-inkscape-font-specification:'Consolas Bold';stroke-width:0.26458332"
         id="path4759" />
      <path
         d="m 59.950943,60.034057 7.341928,7.929575 -4.774732,4.420886 -1.168417,-1.261937 3.257981,-3.016538 -1.825651,-1.971777 -3.106307,2.876104 -1.14033,-1.231602 3.106307,-2.876104 -2.039113,-2.202322 -3.257981,3.016538 -1.168417,-1.261937 z"
         style="font-style:normal;font-variant:normal;font-weight:bold;font-stretch:normal;font-size:16.93333244px;font-family:Consolas;-inkscape-font-specification:'Consolas Bold';stroke-width:0.26458332"
         id="path4761" />
      <path
         d="m 51.679129,76.391137 q -0.502017,-0.677668 -0.704317,-1.423019 -0.197379,-0.738706 -0.06231,-1.487022 0.135067,-0.748315 0.627188,-1.473021 0.49212,-0.724706 1.369103,-1.374374 l 0.830476,-0.615216 -2.067125,-2.7904 1.647665,-1.220589 6.432697,8.68346 -2.54458,1.885022 q -0.843764,0.625059 -1.626021,0.91644 -0.78398,0.302946 -1.483323,0.275658 -0.705987,-0.02237 -1.315771,-0.373245 -0.611507,-0.339313 -1.103679,-1.003694 z m 1.630433,-1.38275 q 0.25593,0.345478 0.575587,0.540849 0.317936,0.206936 0.691477,0.238912 0.366897,0.0369 0.784479,-0.10781 0.417582,-0.144707 0.882649,-0.489228 l 0.857052,-0.634903 -2.357507,-3.182385 -0.910202,0.674277 q -0.425204,0.31499 -0.667082,0.6691 -0.236955,0.360753 -0.293784,0.742415 -0.06347,0.386585 0.04998,0.77587 0.106811,0.394206 0.387349,0.772903 z"
         style="font-style:normal;font-variant:normal;font-weight:bold;font-stretch:normal;font-size:16.93333244px;font-family:Consolas;-inkscape-font-specification:'Consolas Bold';stroke-width:0.26458332"
         id="path4763" />
      <path
         d="m 40.964983,74.252825 3.803126,2.386267 -0.231692,-4.468515 2.121433,-1.236855 0.09735,6.355737 5.167074,3.084105 -2.064289,1.20354 -3.587706,-2.26302 0.259129,4.203675 -2.064289,1.203539 -0.15278,-6.007581 -5.583074,-3.157404 z"
         style="font-style:normal;font-variant:normal;font-weight:bold;font-stretch:normal;font-size:16.93333244px;font-family:Consolas;-inkscape-font-specification:'Consolas Bold';stroke-width:0.26458332"
         id="path4765" />
      <path
         d="m 30.135087,89.027874 -6.728784,-2.785241 3.893398,-6.160612 1.616386,0.858114 -2.882256,4.452356 4.92823,2.002846 z"
         style="font-style:normal;font-variant:normal;font-weight:bold;font-stretch:normal;font-size:16.93333244px;font-family:Consolas;-inkscape-font-specification:'Consolas Bold';stroke-width:0.26458332"
         id="path4767" />
      <path
         d="m 20.170659,91.790978 -6.380089,-3.511204 4.549846,-5.69303 1.511749,1.03135 -3.356262,4.10687 4.676939,2.534775 z"
         style="font-style:normal;font-variant:normal;font-weight:bold;font-stretch:normal;font-size:16.93333244px;font-family:Consolas;-inkscape-font-specification:'Consolas Bold';stroke-width:0.26458332"
         id="path4769" />
      <path
         d="M 9.9689291,93.43745 4.0124446,89.247655 9.1592584,84.088004 10.548767,85.278941 6.7623086,88.992916 11.133014,92.02537 Z"
         style="font-style:normal;font-variant:normal;font-weight:bold;font-stretch:normal;font-size:16.93333244px;font-family:Consolas;-inkscape-font-specification:'Consolas Bold';stroke-width:0.26458332"
         id="path4771" />
      <path
         d="m -0.33905025,93.95954 -5.46787115,-4.810039 5.6751643,-4.572111 1.2524061,1.33437 -4.1662906,3.282209 4.01671078,3.487819 z"
         style="font-style:normal;font-variant:normal;font-weight:bold;font-stretch:normal;font-size:16.93333244px;font-family:Consolas;-inkscape-font-specification:'Consolas Bold';stroke-width:0.26458332"
         id="path4773" />
      <path
         d="m -10.647656,93.363655 -4.911972,-5.376487 6.1389981,-3.927389 1.0997628,1.462733 -4.4987179,2.809342 3.6133133,3.904204 z"
         style="font-style:normal;font-variant:normal;font-weight:bold;font-stretch:normal;font-size:16.93333244px;font-family:Consolas;-inkscape-font-specification:'Consolas Bold';stroke-width:0.26458332"
         id="path4775" />
      <path
         d="m -25.898634,80.805788 -3.727509,10.143359 -3.275056,-1.203526 q -1.730657,-0.635986 -2.369653,-1.557896 -0.646756,-0.924761 -0.196147,-2.150967 0.139746,-0.380279 0.366918,-0.710813 0.216559,-0.325625 0.514044,-0.559849 0.297486,-0.234224 0.662433,-0.364377 0.364947,-0.130153 0.79371,-0.122341 -0.357464,-0.201832 -0.630492,-0.513578 -0.28364,-0.306836 -0.431372,-0.695861 -0.158345,-0.384116 -0.16035,-0.834104 -0.0098,-0.452839 0.169907,-0.941769 0.570392,-1.552159 1.898386,-1.953837 1.325143,-0.393917 3.288624,0.327628 z m -7.458967,5.627357 q -0.105522,0.28715 -0.09795,0.554197 0.0076,0.267047 0.157221,0.507027 0.141889,0.237128 0.436471,0.442279 0.283969,0.210059 0.741856,0.378325 l 1.156359,0.424942 0.986777,-2.685235 -1.156358,-0.424942 q -0.465648,-0.171118 -0.823768,-0.179397 -0.368733,-0.0034 -0.641813,0.116499 -0.283692,0.124778 -0.463175,0.349512 -0.187244,0.221883 -0.295619,0.516793 z m 3.657233,-5.253852 q -0.457887,-0.168265 -0.842142,-0.177339 -0.392015,-0.01193 -0.69899,0.104295 -0.309826,0.123983 -0.528909,0.360592 -0.226843,0.233758 -0.343773,0.55195 -0.242417,0.659668 0.11738,1.214711 0.352036,0.552192 1.368701,0.925798 l 1.187401,0.43635 1.075188,-2.92582 z"
         style="font-style:normal;font-variant:normal;font-weight:bold;font-stretch:normal;font-size:16.93333244px;font-family:Consolas;-inkscape-font-specification:'Consolas Bold';stroke-width:0.26458332"
         id="path4777" />
      <path
         d="m -34.61469,77.4764 -4.823583,9.670321 -3.122322,-1.557423 q -1.649948,-0.822998 -2.183358,-1.809764 -0.540808,-0.990456 0.0423,-2.159477 0.180838,-0.362545 0.443082,-0.666005 0.251154,-0.299751 0.572659,-0.499733 0.321505,-0.199982 0.698582,-0.289088 0.377076,-0.08911 0.802361,-0.03405 -0.33302,-0.240029 -0.569997,-0.579987 -0.248066,-0.33625 -0.351986,-0.739196 -0.115011,-0.399238 -0.06737,-0.846701 0.04024,-0.451154 0.272749,-0.917282 0.738115,-1.479774 2.102311,-1.732523 1.360506,-0.245349 3.23242,0.688366 z m -8.034155,4.770293 q -0.136551,0.273758 -0.158482,0.540011 -0.02193,0.266253 0.100336,0.521275 0.114869,0.251331 0.385025,0.487723 0.259067,0.2401 0.6956,0.457844 l 1.102431,0.549895 1.27694,-2.560008 -1.102432,-0.549896 q -0.443932,-0.221435 -0.798954,-0.269164 -0.366111,-0.04402 -0.650746,0.045 -0.295724,0.09273 -0.498901,0.296291 -0.210575,0.199876 -0.350817,0.481033 z m 4.21442,-4.8184 q -0.436534,-0.217744 -0.817443,-0.269146 -0.388307,-0.05509 -0.706228,0.02656 -0.321612,0.08905 -0.565456,0.300053 -0.251242,0.20731 -0.402556,0.510664 -0.313699,0.628903 -0.01732,1.220246 0.288981,0.587652 1.258233,1.071117 l 1.132027,0.564658 1.391347,-2.789373 z"
         style="font-style:normal;font-variant:normal;font-weight:bold;font-stretch:normal;font-size:16.93333244px;font-family:Consolas;-inkscape-font-specification:'Consolas Bold';stroke-width:0.26458332"
         id="path4779" />
      <path
         d="m -43.29267,72.959828 -5.856401,9.082105 -5.46872,-3.526387 0.932006,-1.445354 3.731515,2.406187 1.456259,-2.258365 -3.557795,-2.294168 0.909602,-1.41061 3.557795,2.294168 1.626529,-2.522421 -3.731516,-2.406188 0.932006,-1.445354 z"
         style="font-style:normal;font-variant:normal;font-weight:bold;font-stretch:normal;font-size:16.93333244px;font-family:Consolas;-inkscape-font-specification:'Consolas Bold';stroke-width:0.26458332"
         id="path4781" />
      <path
         d="m -61.19181,69.009181 q 0.531796,-0.65456 1.203573,-1.035595 0.666563,-0.374619 1.424981,-0.429589 0.758418,-0.05497 1.582622,0.241795 0.824204,0.296764 1.671281,0.98497 l 0.802157,0.651711 2.189747,-2.695246 1.591478,1.292993 -6.814284,8.387348 -2.457807,-1.99684 q -0.814991,-0.662138 -1.291481,-1.347548 -0.488121,-0.684207 -0.635335,-1.368425 -0.15363,-0.689431 0.03485,-1.367242 0.17685,-0.676607 0.698218,-1.318332 z m 1.744284,1.236037 q -0.271112,0.333697 -0.380993,0.691854 -0.121512,0.359361 -0.05974,0.729144 0.05536,0.364569 0.299219,0.733143 0.243861,0.368574 0.693069,0.733531 l 0.827825,0.672565 2.497354,-3.073863 -0.879163,-0.714275 q -0.410704,-0.333675 -0.813782,-0.480052 -0.408292,-0.13996 -0.792112,-0.100243 -0.390239,0.0345 -0.739161,0.241065 -0.35534,0.201348 -0.65252,0.567131 z"
         style="font-style:normal;font-variant:normal;font-weight:bold;font-stretch:normal;font-size:16.93333244px;font-family:Consolas;-inkscape-font-specification:'Consolas Bold';stroke-width:0.26458332"
         id="path4783" />
      <path
         d="m -61.78248,58.101331 -1.365201,4.277179 4.270416,-1.335984 1.725698,1.74707 -6.131733,1.675327 -1.701811,5.771845 -1.679214,-1.70001 1.299415,-4.037872 -4.007076,1.296678 -1.679214,-1.70001 5.780733,-1.642408 1.669322,-6.193003 z"
         style="font-style:normal;font-variant:normal;font-weight:bold;font-stretch:normal;font-size:16.93333244px;font-family:Consolas;-inkscape-font-specification:'Consolas Bold';stroke-width:0.26458332"
         id="path4785" />
      <path
         d="m -78.788981,51.311871 1.009242,-7.212179 6.939992,2.224455 -0.425447,1.779905 -5.032784,-1.673903 -0.703271,5.272974 z"
         style="font-style:normal;font-variant:normal;font-weight:bold;font-stretch:normal;font-size:16.93333244px;font-family:Consolas;-inkscape-font-specification:'Consolas Bold';stroke-width:0.26458332"
         id="path4787" />
      <path
         d="m -83.962194,42.364157 1.7956,-7.057614 6.653548,2.973547 -0.618445,1.722379 -4.818384,-2.216765 -1.278402,5.163771 z"
         style="font-style:normal;font-variant:normal;font-weight:bold;font-stretch:normal;font-size:16.93333244px;font-family:Consolas;-inkscape-font-specification:'Consolas Bold';stroke-width:0.26458332"
         id="path4789" />
      <path
         d="m -88.120911,32.897579 2.563389,-6.816386 6.284811,3.689558 -0.80472,1.643621 -4.544357,-2.734902 -1.840379,4.991177 z"
         style="font-style:normal;font-variant:normal;font-weight:bold;font-stretch:normal;font-size:16.93333244px;font-family:Consolas;-inkscape-font-specification:'Consolas Bold';stroke-width:0.26458332"
         id="path4791" />
      <path
         d="m -91.20901,23.028404 3.300812,-6.491436 5.838688,4.361354 -0.981391,1.544648 -4.214366,-3.220246 -2.380568,4.757283 z"
         style="font-style:normal;font-variant:normal;font-weight:bold;font-stretch:normal;font-size:16.93333244px;font-family:Consolas;-inkscape-font-specification:'Consolas Bold';stroke-width:0.26458332"
         id="path4793" />
      <path
         d="m -93.187753,12.883169 3.994805,-6.0889754 5.323535,4.9771134 -1.145338,1.427328 -3.834586,-3.6642634 -2.889398,4.4665674 z"
         style="font-style:normal;font-variant:normal;font-weight:bold;font-stretch:normal;font-size:16.93333244px;font-family:Consolas;-inkscape-font-specification:'Consolas Bold';stroke-width:0.26458332"
         id="path4795" />
      <path
         d="m -83.54172,-14.143829 -5.449461,4.8389103 -3.83729,-6.1894503 1.478406,-1.088413 2.739947,4.542642 3.961242,-3.568111 z"
         style="font-style:normal;font-variant:normal;font-weight:bold;font-stretch:normal;font-size:16.93333244px;font-family:Consolas;-inkscape-font-specification:'Consolas Bold';stroke-width:0.26458332"
         id="path4797" />
      <path
         d="m -81.508632,-23.221714 -5.949444,4.209014 -3.131958,-6.574567 1.589329,-0.918891 2.222745,4.816877 4.330266,-3.109928 z"
         style="font-style:normal;font-variant:normal;font-weight:bold;font-stretch:normal;font-size:16.93333244px;font-family:Consolas;-inkscape-font-specification:'Consolas Bold';stroke-width:0.26458332"
         id="path4799" />
      <path
         d="m -78.484993,-32.01939 -6.378099,3.525838 -2.386303,-6.880382 1.681132,-0.737647 1.676879,5.032989 4.64739,-2.612397 z"
         style="font-style:normal;font-variant:normal;font-weight:bold;font-stretch:normal;font-size:16.93333244px;font-family:Consolas;-inkscape-font-specification:'Consolas Bold';stroke-width:0.26458332"
         id="path4801" />
      <path
         d="m -74.508689,-40.429692 -6.727946,2.801148 -1.613182,-7.10153 1.75221,-0.547802 1.111761,5.187185 4.907079,-2.08409 z"
         style="font-style:normal;font-variant:normal;font-weight:bold;font-stretch:normal;font-size:16.93333244px;font-family:Consolas;-inkscape-font-specification:'Consolas Bold';stroke-width:0.26458332"
         id="path4803" />
      <path
         d="m -67.491439,-51.708084 -8.296536,-6.924562 2.235781,-2.678759 q 1.181467,-1.415552 2.264678,-1.706906 1.088508,-0.297702 2.091456,0.539391 0.311041,0.259605 0.545809,0.584787 0.233719,0.313536 0.354129,0.672507 0.120409,0.358971 0.120112,0.746432 -2.97e-4,0.387462 -0.15199,0.788569 0.310387,-0.268656 0.695848,-0.420804 0.384412,-0.163795 0.800463,-0.171945 0.415001,-0.0198 0.839401,0.129797 0.429697,0.143246 0.829607,0.477024 1.269554,1.059611 1.200739,2.445316 -0.07516,1.380407 -1.415572,2.986393 z m -2.78797,-8.91799 q -0.234867,-0.196028 -0.488877,-0.278797 -0.25401,-0.08277 -0.530361,-0.02264 -0.271052,0.05378 -0.563396,0.262111 -0.293394,0.196682 -0.605979,0.5712 l -0.789411,0.945818 2.196328,1.833128 0.789411,-0.945818 q 0.317883,-0.380866 0.446235,-0.715297 0.127302,-0.346078 0.106357,-0.643571 -0.02199,-0.309139 -0.173192,-0.553801 -0.1459,-0.251009 -0.387115,-0.452335 z m 3.71606,5.212408 q 0.312586,-0.374518 0.450484,-0.733291 0.143196,-0.36512 0.137096,-0.693303 -0.01245,-0.333481 -0.161497,-0.619427 -0.143751,-0.292295 -0.40401,-0.509515 -0.53956,-0.450335 -1.183329,-0.298385 -0.63847,0.145603 -1.332516,0.977161 l -0.810603,0.971209 2.393109,1.997368 z"
         style="font-style:normal;font-variant:normal;font-weight:bold;font-stretch:normal;font-size:16.93333244px;font-family:Consolas;-inkscape-font-specification:'Consolas Bold';stroke-width:0.26458332"
         id="path4805" />
      <path
         d="m -57.514741,-62.556045 -3.261651,-3.390444 -2.645618,2.54512 3.261651,3.390443 -1.465816,1.410134 -7.492051,-7.78789 1.465815,-1.410134 3.009432,3.128265 2.645618,-2.545119 -3.009432,-3.128265 1.465816,-1.410134 7.492052,7.78789 z"
         style="font-style:normal;font-variant:normal;font-weight:bold;font-stretch:normal;font-size:16.93333244px;font-family:Consolas;-inkscape-font-specification:'Consolas Bold';stroke-width:0.26458332"
         id="path4807" />
      <path
         d="m -50.323549,-68.491189 -4.220134,-5.474443 -0.0131,0.0101 1.260269,7.756142 -1.558514,1.201426 -6.597746,-8.558727 1.623997,-1.251906 4.220135,5.474442 0.0131,-0.0101 -1.253721,-7.76119 1.551965,-1.196377 6.597747,8.558727 z"
         style="font-style:normal;font-variant:normal;font-weight:bold;font-stretch:normal;font-size:16.93333244px;font-family:Consolas;-inkscape-font-specification:'Consolas Bold';stroke-width:0.26458332"
         id="path4809" />
      <path
         d="m -48.495616,-72.389484 q 1.006517,-0.254852 1.77166,-0.556311 0.760842,-0.308519 1.523482,-0.773034 0.416628,-0.253762 0.665577,-0.560293 0.244649,-0.313593 0.336064,-0.640346 0.08711,-0.333815 0.0339,-0.659606 -0.05046,-0.337153 -0.231101,-0.633735 -0.180645,-0.296582 -0.444165,-0.474917 -0.267822,-0.185397 -0.601316,-0.2243 -0.333494,-0.0389 -0.739721,0.07299 -0.399166,0.10759 -0.858162,0.387159 l -2.203182,1.34193 -0.808599,-1.327558 2.09726,-1.277414 q 0.43075,-0.262365 0.669878,-0.553233 0.241888,-0.30223 0.323481,-0.61332 0.08159,-0.311089 0.02285,-0.614155 -0.06304,-0.310127 -0.23078,-0.585524 -0.159139,-0.261275 -0.384271,-0.424267 -0.222372,-0.174355 -0.511956,-0.220641 -0.289584,-0.04628 -0.656203,0.05116 -0.359558,0.09315 -0.797369,0.359812 -0.324829,0.197849 -0.604207,0.406739 -0.272316,0.204589 -0.53449,0.441726 -0.266475,0.230074 -0.53969,0.512661 -0.266154,0.278285 -0.582958,0.616464 l -0.881717,-1.447603 q 0.488399,-0.549189 1.110387,-1.053889 0.617687,-0.511763 1.323835,-0.941868 1.645325,-1.002147 2.834348,-0.893782 1.189023,0.108365 1.920203,1.308816 0.477417,0.783825 0.466566,1.497161 -0.0081,0.701975 -0.577824,1.387834 0.380421,-0.15426 0.798652,-0.166969 0.425293,-0.01701 0.830364,0.123514 0.407832,0.129161 0.769956,0.4217 0.364885,0.281176 0.635851,0.726049 0.864513,1.419357 0.385549,2.746977 -0.476203,1.316256 -2.276881,2.413026 -0.81207,0.494621 -1.568611,0.810203 -0.745178,0.318342 -1.570536,0.520939 z"
         style="font-style:normal;font-variant:normal;font-weight:bold;font-stretch:normal;font-size:16.93333244px;font-family:Consolas;-inkscape-font-specification:'Consolas Bold';stroke-width:0.26458332"
         id="path4811" />
      <path
         d="m -25.498841,-80.911878 -6.784113,-2.662237 3.776007,-6.227027 1.640534,0.824 -2.80597,4.502159 4.976576,1.912208 z"
         style="font-style:normal;font-variant:normal;font-weight:bold;font-stretch:normal;font-size:16.93333244px;font-family:Consolas;-inkscape-font-specification:'Consolas Bold';stroke-width:0.26458332"
         id="path4813" />
      <path
         d="m -16.485466,-83.21415 -6.448506,-3.395359 4.440775,-5.771795 1.539469,1.00018 -3.286134,4.16464 4.734884,2.450249 z"
         style="font-style:normal;font-variant:normal;font-weight:bold;font-stretch:normal;font-size:16.93333244px;font-family:Consolas;-inkscape-font-specification:'Consolas Bold';stroke-width:0.26458332"
         id="path4815" />
      <path
         d="m -7.2732432,-84.509473 -6.0363838,-4.083351 5.0480793,-5.248903 1.42025,1.163278 -3.7238393,3.778349 4.4369858,2.955674 z"
         style="font-style:normal;font-variant:normal;font-weight:bold;font-stretch:normal;font-size:16.93333244px;font-family:Consolas;-inkscape-font-specification:'Consolas Bold';stroke-width:0.26458332"
         id="path4817" />
      <path
         d="m 2.0263465,-84.793211 -5.5578391,-4.714033 5.5876508,-4.670359 1.2856872,1.310471 -4.111711,3.352124 4.0901992,3.419521 z"
         style="font-style:normal;font-variant:normal;font-weight:bold;font-stretch:normal;font-size:16.93333244px;font-family:Consolas;-inkscape-font-specification:'Consolas Bold';stroke-width:0.26458332"
         id="path4819" />
      <path
         d="m 11.30131,-84.069823 -5.0132832,-5.289487 6.0616052,-4.036215 1.135837,1.44229 -4.4512913,2.885985 3.6948363,3.84331 z"
         style="font-style:normal;font-variant:normal;font-weight:bold;font-stretch:normal;font-size:16.93333244px;font-family:Consolas;-inkscape-font-specification:'Consolas Bold';stroke-width:0.26458332"
         id="path4821" />
      <path
         d="m 24.33911,-81.527885 3.530419,-10.213629 3.297744,1.139891 q 1.742646,0.602359 2.399372,1.511723 0.66454,0.912066 0.237756,2.146767 -0.132357,0.382913 -0.353086,0.717783 -0.210214,0.329757 -0.503109,0.569697 -0.292894,0.23994 -0.655253,0.377135 -0.362359,0.137195 -0.791193,0.137685 0.361305,0.194874 0.640317,0.501274 0.289529,0.301287 0.444765,0.687379 0.165752,0.380978 0.176469,0.830843 0.01853,0.452566 -0.151641,0.944883 -0.540232,1.562912 -1.860201,1.990226 -1.317267,0.4195 -3.29435,-0.263894 z m 7.348614,-5.77072 q 0.09994,-0.289139 0.0872,-0.555989 -0.01274,-0.266851 -0.167009,-0.503888 -0.146454,-0.234336 -0.444952,-0.433745 -0.287983,-0.204522 -0.749042,-0.363891 l -1.16437,-0.402473 -0.934602,2.703837 1.16437,0.402473 q 0.468873,0.16207 0.827086,0.163414 0.368729,-0.0038 0.639437,-0.128903 0.281223,-0.130248 0.456322,-0.358415 0.182913,-0.225467 0.285557,-0.52242 z m -3.554824,5.323677 q 0.461059,0.159368 0.845417,0.161001 0.392173,0.0043 0.696839,-0.11781 0.307369,-0.129958 0.521829,-0.370765 0.222275,-0.238105 0.333022,-0.558502 0.229599,-0.664237 -0.140877,-1.212211 -0.362661,-0.545272 -1.386369,-0.899124 l -1.195627,-0.413278 -1.018338,2.946089 z"
         style="font-style:normal;font-variant:normal;font-weight:bold;font-stretch:normal;font-size:16.93333244px;font-family:Consolas;-inkscape-font-specification:'Consolas Bold';stroke-width:0.26458332"
         id="path4823" />
      <path
         d="m 38.017466,-76.040949 2.018306,-4.249696 -3.316106,-1.574917 -2.018307,4.249695 -1.837302,-0.872589 4.636074,-9.761602 1.837303,0.872589 -1.862234,3.921072 3.316107,1.574918 1.862233,-3.921072 1.837303,0.872589 -4.636075,9.761602 z"
         style="font-style:normal;font-variant:normal;font-weight:bold;font-stretch:normal;font-size:16.93333244px;font-family:Consolas;-inkscape-font-specification:'Consolas Bold';stroke-width:0.26458332"
         id="path4825" />
      <path
         d="m 46.108551,-71.407225 3.633692,-5.880079 -0.01407,-0.0087 -6.812874,3.915451 -1.673993,-1.034472 5.680903,-9.192899 1.74433,1.077937 -3.633692,5.88008 0.01407,0.0087 6.819907,-3.911106 1.666961,1.030126 -5.680904,9.192899 z"
         style="font-style:normal;font-variant:normal;font-weight:bold;font-stretch:normal;font-size:16.93333244px;font-family:Consolas;-inkscape-font-specification:'Consolas Bold';stroke-width:0.26458332"
         id="path4827" />
      <path
         d="m 50.400402,-71.071258 q 0.593568,0.851882 1.145588,1.461469 0.557109,0.60307 1.260816,1.152788 0.384433,0.300309 0.759084,0.425105 0.379741,0.11828 0.717734,0.08854 0.343084,-0.03626 0.62915,-0.200994 0.297672,-0.166161 0.511451,-0.439825 0.213779,-0.273664 0.287675,-0.583157 0.07899,-0.316008 -0.0023,-0.641783 -0.08126,-0.325774 -0.329271,-0.666404 -0.241499,-0.335541 -0.665027,-0.666389 l -2.032932,-1.588073 0.956916,-1.224971 1.935195,1.511722 q 0.397464,0.310489 0.753993,0.431621 0.368135,0.119706 0.688007,0.0863 0.319872,-0.03341 0.582727,-0.195291 0.267945,-0.168399 0.466454,-0.422515 0.188329,-0.241085 0.261413,-0.509245 0.08469,-0.269586 0.02583,-0.556879 -0.05886,-0.287292 -0.279383,-0.595957 -0.21401,-0.303574 -0.61799,-0.619153 -0.299728,-0.234139 -0.593751,-0.421855 -0.287508,-0.182625 -0.601892,-0.344278 -0.309294,-0.168168 -0.670101,-0.324118 -0.354291,-0.150859 -0.782494,-0.32798 l 1.043445,-1.335741 q 0.686183,0.263237 1.37787,0.667169 0.696778,0.397417 1.348358,0.906414 1.518183,1.185965 1.836279,2.336762 0.318096,1.150796 -0.5472,2.258483 -0.564987,0.723255 -1.236283,0.96477 -0.659689,0.240089 -1.502451,-0.05103 0.278555,0.301535 0.438001,0.68839 0.165962,0.391944 0.177384,0.820545 0.02303,0.427176 -0.12294,0.869223 -0.134362,0.440622 -0.455031,0.851118 -1.023085,1.309677 -2.434315,1.329901 -1.399624,0.0188 -3.061155,-1.279145 -0.749318,-0.585347 -1.311517,-1.181902 -0.560774,-0.584949 -1.041534,-1.285757 z"
         style="font-style:normal;font-variant:normal;font-weight:bold;font-stretch:normal;font-size:16.93333244px;font-family:Consolas;-inkscape-font-specification:'Consolas Bold';stroke-width:0.26458332"
         id="path4829" />
      <path
         d="m 66.504072,-52.574008 0.08142,-7.287322 7.161748,1.320399 -0.188177,1.826175 -5.204903,-1.025617 -0.02167,5.331265 z"
         style="font-style:normal;font-variant:normal;font-weight:bold;font-stretch:normal;font-size:16.93333244px;font-family:Consolas;-inkscape-font-specification:'Consolas Bold';stroke-width:0.26458332"
         id="path4831" />
      <path
         d="m 71.862015,-44.968744 0.877512,-7.234753 6.9745,2.095337 -0.386668,1.794662 -5.061604,-1.588419 -0.604298,5.29695 z"
         style="font-style:normal;font-variant:normal;font-weight:bold;font-stretch:normal;font-size:16.93333244px;font-family:Consolas;-inkscape-font-specification:'Consolas Bold';stroke-width:0.26458332"
         id="path4833" />
      <path
         d="m 76.353875,-36.822118 1.666495,-7.094679 6.702298,2.848385 -0.581363,1.741362 -4.856618,-2.134519 -1.182185,5.198585 z"
         style="font-style:normal;font-variant:normal;font-weight:bold;font-stretch:normal;font-size:16.93333244px;font-family:Consolas;-inkscape-font-specification:'Consolas Bold';stroke-width:0.26458332"
         id="path4835" />
      <path
         d="m 79.921114,-28.230408 2.438706,-6.867635 6.347311,3.570117 -0.769849,1.666631 -4.59161,-2.65707 -1.748255,5.036512 z"
         style="font-style:normal;font-variant:normal;font-weight:bold;font-stretch:normal;font-size:16.93333244px;font-family:Consolas;-inkscape-font-specification:'Consolas Bold';stroke-width:0.26458332"
         id="path4837" />
      <path
         d="m 82.517293,-19.297196 3.182628,-6.556109 5.913954,4.249617 -0.949293,1.571359 -4.269893,-3.14816 -2.294072,4.812492 z"
         style="font-style:normal;font-variant:normal;font-weight:bold;font-stretch:normal;font-size:16.93333244px;font-family:Consolas;-inkscape-font-specification:'Consolas Bold';stroke-width:0.26458332"
         id="path4839" />
    </g>
  </g>
</svg>
