<?xml version="1.0" encoding="UTF-8" standalone="no"?>
<svg xmlns:dc="http://purl.org/dc/elements/1.1/"
     xmlns:cc="http://creativecommons.org/ns#"
     xmlns:rdf="http://www.w3.org/1999/02/22-rdf-syntax-ns#"
     xmlns:svg="http://www.w3.org/2000/svg"
     xmlns="http://www.w3.org/2000/svg"
     xmlns:sodipodi="http://sodipodi.sourceforge.net/DTD/sodipodi-0.dtd"
     xmlns:inkscape="http://www.inkscape.org/namespaces/inkscape"
     version="1.1"
     width="800"
     height="600"
>
  <defs id="defs14" />
  <path
     d="M165.43 229.454
	    c60.803 56.406 159.333 -45.304  33.413 -119.013
		 93.707 104.11   3.745 136.026 -28.829 103.909l
		  -1.64 -1.355
		c -1.33  1.493  -2.663   2.984  -3.991    4.478
		 -2.524 -2.382  -6.444  -3.082   -7.65     .991
          -4.96  -.343   -7.87   2.405  -9.167    7.553
         -9.224   6.11  -19.21  11.472 -24.949   21.068
          -3.28  10.15   3.208  14.564  10.547   13.724
         12.031 -4.998   15.75 -15.801  22.188  -24.714
          4.552 -1.449   8.407  -3.397   9.114    -7.54
"
     id="Серп"
     style="fill:#ff0000;fill-opacity:1" />
</svg>
