solid OpenSCAD_Model
  facet normal -0.866036 -0.499982 0
    outer loop
      vertex -30.75 -36.1651 -6
      vertex -31.7113 -34.5 6
      vertex -31.7113 -34.5 -6
    endloop
  endfacet
  facet normal -0.866036 -0.499982 0
    outer loop
      vertex -31.7113 -34.5 6
      vertex -30.75 -36.1651 -6
      vertex -30.75 -36.1651 6
    endloop
  endfacet
  facet normal -0 0 1
    outer loop
      vertex 28.25 -31.8349 6
      vertex 30 -33.125 6
      vertex 30 -31.8349 6
    endloop
  endfacet
  facet normal 0 0 1
    outer loop
      vertex 30 -33.125 6
      vertex 28.25 -31.8349 6
      vertex 28.25 -33.125 6
    endloop
  endfacet
  facet normal 0 0 1
    outer loop
      vertex 41 1.5 6
      vertex 33 -1.5 6
      vertex 41 -1.5 6
    endloop
  endfacet
  facet normal -0 0 1
    outer loop
      vertex 30 -31.8349 6
      vertex 33 -34.5 6
      vertex 33 -1.5 6
    endloop
  endfacet
  facet normal 0 0 1
    outer loop
      vertex 33 -34.5 6
      vertex 30 -31.8349 6
      vertex 31.7113 -34.5 6
    endloop
  endfacet
  facet normal 0 0 1
    outer loop
      vertex 30 -34.866 6
      vertex 31.7113 -34.5 6
      vertex 30.5 -34 6
    endloop
  endfacet
  facet normal 0 0 1
    outer loop
      vertex 30 -31.8349 6
      vertex 33 -1.5 6
      vertex 30 -1.5 6
    endloop
  endfacet
  facet normal -0 0 1
    outer loop
      vertex 27.0032 1.5 6
      vertex 33 -1.5 6
      vertex 41 1.5 6
    endloop
  endfacet
  facet normal 0 0 1
    outer loop
      vertex 33 -1.5 6
      vertex 27.0032 1.5 6
      vertex 30 -1.5 6
    endloop
  endfacet
  facet normal 0 0 1
    outer loop
      vertex 30 -1.5 6
      vertex 27.0032 1.5 6
      vertex 27.0032 -1.5 6
    endloop
  endfacet
  facet normal 0 0 1
    outer loop
      vertex 31.7113 -34.5 6
      vertex 30 -34.866 6
      vertex 30 -34.875 6
    endloop
  endfacet
  facet normal 0 0 1
    outer loop
      vertex 31.7113 -34.5 6
      vertex 30 -34.875 6
      vertex 30.75 -36.1651 6
    endloop
  endfacet
  facet normal 0 0 1
    outer loop
      vertex 28.25 -36.1651 6
      vertex 30 -34.875 6
      vertex 28.25 -34.875 6
    endloop
  endfacet
  facet normal 0 0 1
    outer loop
      vertex 30 -34.875 6
      vertex 28.25 -36.1651 6
      vertex 30.75 -36.1651 6
    endloop
  endfacet
  facet normal -0 0 1
    outer loop
      vertex 30 -33.125 6
      vertex 31.7113 -34.5 6
      vertex 30 -31.8349 6
    endloop
  endfacet
  facet normal 0 0 1
    outer loop
      vertex 31.7113 -34.5 6
      vertex 30 -33.125 6
      vertex 30.5 -34 6
    endloop
  endfacet
  facet normal 0 0 1
    outer loop
      vertex 30.5 -34 6
      vertex 30 -33.125 6
      vertex 30 -33.134 6
    endloop
  endfacet
  facet normal -0 0 1
    outer loop
      vertex -31.7113 -34.5 6
      vertex -30 -34.866 6
      vertex -30.5 -34 6
    endloop
  endfacet
  facet normal -0 0 1
    outer loop
      vertex -30 -34.875 6
      vertex -28.25 -36.1651 6
      vertex -28.25 -34.875 6
    endloop
  endfacet
  facet normal 0 0 1
    outer loop
      vertex -30 -34.875 6
      vertex -30.75 -36.1651 6
      vertex -28.25 -36.1651 6
    endloop
  endfacet
  facet normal 0 0 1
    outer loop
      vertex -30 -34.866 6
      vertex -31.7113 -34.5 6
      vertex -30 -34.875 6
    endloop
  endfacet
  facet normal 0 0 1
    outer loop
      vertex -27.0032 1.5 6
      vertex -30 -1.5 6
      vertex -27.0032 -1.5 6
    endloop
  endfacet
  facet normal -0 0 1
    outer loop
      vertex -33 -1.5 6
      vertex -30 -31.8349 6
      vertex -30 -1.5 6
    endloop
  endfacet
  facet normal 0 0 1
    outer loop
      vertex -33 -34.5 6
      vertex -30 -31.8349 6
      vertex -33 -1.5 6
    endloop
  endfacet
  facet normal 0 -0 1
    outer loop
      vertex -31.7113 -34.5 6
      vertex -30 -31.8349 6
      vertex -33 -34.5 6
    endloop
  endfacet
  facet normal 0 0 1
    outer loop
      vertex -30 -31.8349 6
      vertex -31.7113 -34.5 6
      vertex -30 -33.125 6
    endloop
  endfacet
  facet normal 0 0 1
    outer loop
      vertex -30 -34.875 6
      vertex -31.7113 -34.5 6
      vertex -30.75 -36.1651 6
    endloop
  endfacet
  facet normal 0 -0 1
    outer loop
      vertex -30.5 -34 6
      vertex -30 -33.125 6
      vertex -31.7113 -34.5 6
    endloop
  endfacet
  facet normal 0 0 1
    outer loop
      vertex -27.0032 1.5 6
      vertex -33 -1.5 6
      vertex -30 -1.5 6
    endloop
  endfacet
  facet normal -0 0 1
    outer loop
      vertex -41 1.5 6
      vertex -33 -1.5 6
      vertex -27.0032 1.5 6
    endloop
  endfacet
  facet normal 0 0 1
    outer loop
      vertex -33 -1.5 6
      vertex -41 1.5 6
      vertex -41 -1.5 6
    endloop
  endfacet
  facet normal -0 0 1
    outer loop
      vertex -30 -31.8349 6
      vertex -28.25 -33.125 6
      vertex -28.25 -31.8349 6
    endloop
  endfacet
  facet normal 0 0 1
    outer loop
      vertex -28.25 -33.125 6
      vertex -30 -31.8349 6
      vertex -30 -33.125 6
    endloop
  endfacet
  facet normal 0 0 1
    outer loop
      vertex -30 -33.125 6
      vertex -30.5 -34 6
      vertex -30 -33.134 6
    endloop
  endfacet
  facet normal 0 1 -0
    outer loop
      vertex -28.25 -31.8349 -6
      vertex -30 -31.8349 6
      vertex -28.25 -31.8349 6
    endloop
  endfacet
  facet normal 0 1 0
    outer loop
      vertex -30 -31.8349 6
      vertex -28.25 -31.8349 -6
      vertex -30 -31.8349 -6
    endloop
  endfacet
  facet normal 0 -1 0
    outer loop
      vertex -30.75 -36.1651 -6
      vertex -28.25 -36.1651 6
      vertex -30.75 -36.1651 6
    endloop
  endfacet
  facet normal 0 -1 -0
    outer loop
      vertex -28.25 -36.1651 6
      vertex -30.75 -36.1651 -6
      vertex -28.25 -36.1651 -6
    endloop
  endfacet
  facet normal 0 0 -1
    outer loop
      vertex -28.25 -36.1651 -6
      vertex -30 -34.875 -6
      vertex -28.25 -34.875 -6
    endloop
  endfacet
  facet normal 0 0 -1
    outer loop
      vertex -31.7113 -34.5 -6
      vertex -30 -34.866 -6
      vertex -30 -34.875 -6
    endloop
  endfacet
  facet normal 0 0 -1
    outer loop
      vertex -31.7113 -34.5 -6
      vertex -30 -34.875 -6
      vertex -30.75 -36.1651 -6
    endloop
  endfacet
  facet normal 0 0 -1
    outer loop
      vertex -30.75 -36.1651 -6
      vertex -30 -34.875 -6
      vertex -28.25 -36.1651 -6
    endloop
  endfacet
  facet normal 0 0 -1
    outer loop
      vertex -30.5 -34 -6
      vertex -30 -33.125 -6
      vertex -30 -33.134 -6
    endloop
  endfacet
  facet normal -0 0 -1
    outer loop
      vertex -30 -33.125 -6
      vertex -31.7113 -34.5 -6
      vertex -30 -31.8349 -6
    endloop
  endfacet
  facet normal 0 0 -1
    outer loop
      vertex -30 -33.125 -6
      vertex -30.5 -34 -6
      vertex -31.7113 -34.5 -6
    endloop
  endfacet
  facet normal 0 0 -1
    outer loop
      vertex -30 -33.125 -6
      vertex -28.25 -31.8349 -6
      vertex -28.25 -33.125 -6
    endloop
  endfacet
  facet normal -0 0 -1
    outer loop
      vertex -28.25 -31.8349 -6
      vertex -30 -33.125 -6
      vertex -30 -31.8349 -6
    endloop
  endfacet
  facet normal 0 0 -1
    outer loop
      vertex 30 -31.8349 -6
      vertex 33 -34.5 -6
      vertex 31.7113 -34.5 -6
    endloop
  endfacet
  facet normal 0 0 -1
    outer loop
      vertex 33 -1.5 -6
      vertex 41 1.5 -6
      vertex 41 -1.5 -6
    endloop
  endfacet
  facet normal 0 0 -1
    outer loop
      vertex 30 -34.875 -6
      vertex 31.7113 -34.5 -6
      vertex 30.75 -36.1651 -6
    endloop
  endfacet
  facet normal 0 0 -1
    outer loop
      vertex 30 -33.125 -6
      vertex 31.7113 -34.5 -6
      vertex 30.5 -34 -6
    endloop
  endfacet
  facet normal 0 0 -1
    outer loop
      vertex 30 -33.125 -6
      vertex 30.5 -34 -6
      vertex 30 -33.134 -6
    endloop
  endfacet
  facet normal 0 0 -1
    outer loop
      vertex 31.7113 -34.5 -6
      vertex 30 -33.125 -6
      vertex 30 -31.8349 -6
    endloop
  endfacet
  facet normal 0 0 -1
    outer loop
      vertex 33 -34.5 -6
      vertex 30 -31.8349 -6
      vertex 30 -10 -6
    endloop
  endfacet
  facet normal 0 0 -1
    outer loop
      vertex 33 -34.5 -6
      vertex 30 -10 -6
      vertex 33 -1.5 -6
    endloop
  endfacet
  facet normal 0 0 -1
    outer loop
      vertex -30 -10 -6
      vertex 33 -1.5 -6
      vertex 30 -10 -6
    endloop
  endfacet
  facet normal 0 0 -1
    outer loop
      vertex -33 -1.5 -6
      vertex 33 -1.5 -6
      vertex -30 -10 -6
    endloop
  endfacet
  facet normal 0 0 -1
    outer loop
      vertex -30 -34.866 -6
      vertex -31.7113 -34.5 -6
      vertex -30.5 -34 -6
    endloop
  endfacet
  facet normal 0 0 -1
    outer loop
      vertex -30 -31.8349 -6
      vertex -31.7113 -34.5 -6
      vertex -33 -34.5 -6
    endloop
  endfacet
  facet normal -0 0 -1
    outer loop
      vertex -30 -31.8349 -6
      vertex -33 -34.5 -6
      vertex -30 -10 -6
    endloop
  endfacet
  facet normal 0 0 -1
    outer loop
      vertex -33 -1.5 -6
      vertex -30 -10 -6
      vertex -33 -34.5 -6
    endloop
  endfacet
  facet normal 0 0 -1
    outer loop
      vertex 33 -1.5 -6
      vertex -33 -1.5 -6
      vertex 41 1.5 -6
    endloop
  endfacet
  facet normal 0 0 -1
    outer loop
      vertex -41 1.5 -6
      vertex -33 -1.5 -6
      vertex -41 -1.5 -6
    endloop
  endfacet
  facet normal 0 0 -1
    outer loop
      vertex -33 -1.5 -6
      vertex -41 1.5 -6
      vertex 41 1.5 -6
    endloop
  endfacet
  facet normal 0 0 -1
    outer loop
      vertex 28.25 -33.125 -6
      vertex 30 -31.8349 -6
      vertex 30 -33.125 -6
    endloop
  endfacet
  facet normal -0 0 -1
    outer loop
      vertex 30 -31.8349 -6
      vertex 28.25 -33.125 -6
      vertex 28.25 -31.8349 -6
    endloop
  endfacet
  facet normal 0 0 -1
    outer loop
      vertex 30 -34.866 -6
      vertex 31.7113 -34.5 -6
      vertex 30 -34.875 -6
    endloop
  endfacet
  facet normal 0 0 -1
    outer loop
      vertex 28.25 -36.1651 -6
      vertex 30 -34.875 -6
      vertex 30.75 -36.1651 -6
    endloop
  endfacet
  facet normal -0 0 -1
    outer loop
      vertex 30 -34.875 -6
      vertex 28.25 -36.1651 -6
      vertex 28.25 -34.875 -6
    endloop
  endfacet
  facet normal -0 0 -1
    outer loop
      vertex 31.7113 -34.5 -6
      vertex 30 -34.866 -6
      vertex 30.5 -34 -6
    endloop
  endfacet
  facet normal -1 0 0
    outer loop
      vertex -33 -1.5 -6
      vertex -33 -5 -2.84808
      vertex -33 -1.5 -2.84808
    endloop
  endfacet
  facet normal -1 -0 0
    outer loop
      vertex -33 -5 -2.84808
      vertex -33 -34.5 -6
      vertex -33 -5 2.34808
    endloop
  endfacet
  facet normal -1 0 0
    outer loop
      vertex -33 -34.5 -6
      vertex -33 -5 -2.84808
      vertex -33 -1.5 -6
    endloop
  endfacet
  facet normal -1 0 0
    outer loop
      vertex -33 -5 2.34808
      vertex -33 -1.5 6
      vertex -33 -1.5 2.34808
    endloop
  endfacet
  facet normal -1 0 0
    outer loop
      vertex -33 -34.5 6
      vertex -33 -5 2.34808
      vertex -33 -34.5 -6
    endloop
  endfacet
  facet normal -1 0 0
    outer loop
      vertex -33 -5 2.34808
      vertex -33 -34.5 6
      vertex -33 -1.5 6
    endloop
  endfacet
  facet normal 1 0 0
    outer loop
      vertex -30 -1.5 6
      vertex -30 -10 -4.5
      vertex -30 -1.5 -4.5
    endloop
  endfacet
  facet normal 1 -0 0
    outer loop
      vertex -30 -31.8349 6
      vertex -30 -10 -4.5
      vertex -30 -1.5 6
    endloop
  endfacet
  facet normal 1 0 0
    outer loop
      vertex -30 -31.8349 -6
      vertex -30 -10 -4.5
      vertex -30 -31.8349 6
    endloop
  endfacet
  facet normal 1 0 0
    outer loop
      vertex -30 -10 -4.5
      vertex -30 -31.8349 -6
      vertex -30 -10 -6
    endloop
  endfacet
  facet normal 0 1 -0
    outer loop
      vertex 35.0933 1.5 1.771
      vertex 27.0032 1.5 6
      vertex 41 1.5 6
    endloop
  endfacet
  facet normal 0 1 -0
    outer loop
      vertex 34.501 1.5 1.46916
      vertex 27.0032 1.5 6
      vertex 35.0933 1.5 1.771
    endloop
  endfacet
  facet normal 0 1 -0
    outer loop
      vertex 34.0308 1.5 0.999044
      vertex 27.0032 1.5 6
      vertex 34.501 1.5 1.46916
    endloop
  endfacet
  facet normal 0 1 0
    outer loop
      vertex 27.0032 1.5 6
      vertex 34.0308 1.5 0.999044
      vertex 26.7652 1.5 5.77421
    endloop
  endfacet
  facet normal 0 1 0
    outer loop
      vertex 35.0933 1.5 1.771
      vertex 41 1.5 6
      vertex 35.75 1.5 1.875
    endloop
  endfacet
  facet normal 0 1 0
    outer loop
      vertex 41 1.5 6
      vertex 36.4067 1.5 1.771
      vertex 35.75 1.5 1.875
    endloop
  endfacet
  facet normal 0 1 0
    outer loop
      vertex 41 1.5 6
      vertex 36.999 1.5 1.46916
      vertex 36.4067 1.5 1.771
    endloop
  endfacet
  facet normal 0 1 0
    outer loop
      vertex 41 1.5 6
      vertex 37.4692 1.5 0.999044
      vertex 36.999 1.5 1.46916
    endloop
  endfacet
  facet normal 0 1 0
    outer loop
      vertex 41 1.5 6
      vertex 37.771 1.5 0.406662
      vertex 37.4692 1.5 0.999044
    endloop
  endfacet
  facet normal 0 1 0
    outer loop
      vertex 41 1.5 6
      vertex 37.875 1.5 -0.25
      vertex 37.771 1.5 0.406662
    endloop
  endfacet
  facet normal 0 1 -0
    outer loop
      vertex 41 1.5 -6
      vertex 37.875 1.5 -0.25
      vertex 41 1.5 6
    endloop
  endfacet
  facet normal 0 1 0
    outer loop
      vertex 35.0933 1.5 -2.27099
      vertex 10.3528 1.5 -3.13703
      vertex 12.3607 1.5 -2.54226
    endloop
  endfacet
  facet normal 0 1 0
    outer loop
      vertex 35.0933 1.5 -2.27099
      vertex 41 1.5 -6
      vertex 10.3528 1.5 -3.13703
    endloop
  endfacet
  facet normal 0 1 0
    outer loop
      vertex 10.3528 1.5 -3.13703
      vertex 41 1.5 -6
      vertex 8.31647 1.5 -3.6259
    endloop
  endfacet
  facet normal 0 1 0
    outer loop
      vertex 8.31647 1.5 -3.6259
      vertex 41 1.5 -6
      vertex 6.25738 1.5 -4.00753
    endloop
  endfacet
  facet normal 0 1 0
    outer loop
      vertex 6.25738 1.5 -4.00753
      vertex 41 1.5 -6
      vertex 4.18114 1.5 -4.28088
    endloop
  endfacet
  facet normal 0 1 0
    outer loop
      vertex 2.09344 1.5 -4.44518
      vertex 41 1.5 -6
      vertex 0 1.5 -4.5
    endloop
  endfacet
  facet normal 0 1 0
    outer loop
      vertex 4.18114 1.5 -4.28088
      vertex 41 1.5 -6
      vertex 2.09344 1.5 -4.44518
    endloop
  endfacet
  facet normal 0 1 0
    outer loop
      vertex 36.4067 1.5 -2.27099
      vertex 41 1.5 -6
      vertex 35.75 1.5 -2.375
    endloop
  endfacet
  facet normal 0 1 0
    outer loop
      vertex 36.999 1.5 -1.96916
      vertex 41 1.5 -6
      vertex 36.4067 1.5 -2.27099
    endloop
  endfacet
  facet normal 0 1 0
    outer loop
      vertex 37.4692 1.5 -1.49904
      vertex 41 1.5 -6
      vertex 36.999 1.5 -1.96916
    endloop
  endfacet
  facet normal 0 1 0
    outer loop
      vertex 37.771 1.5 -0.906661
      vertex 41 1.5 -6
      vertex 37.4692 1.5 -1.49904
    endloop
  endfacet
  facet normal 0 1 0
    outer loop
      vertex 37.875 1.5 -0.25
      vertex 41 1.5 -6
      vertex 37.771 1.5 -0.906661
    endloop
  endfacet
  facet normal 0 1 -0
    outer loop
      vertex 33.729 1.5 0.406662
      vertex 26.7652 1.5 5.77421
      vertex 34.0308 1.5 0.999044
    endloop
  endfacet
  facet normal 0 1 0
    outer loop
      vertex 26.7652 1.5 5.77421
      vertex 33.729 1.5 0.406662
      vertex 25.1728 1.5 4.41416
    endloop
  endfacet
  facet normal 0 1 -0
    outer loop
      vertex 33.625 1.5 -0.25
      vertex 25.1728 1.5 4.41416
      vertex 33.729 1.5 0.406662
    endloop
  endfacet
  facet normal 0 1 0
    outer loop
      vertex 25.1728 1.5 4.41416
      vertex 33.625 1.5 -0.25
      vertex 23.5114 1.5 3.13932
    endloop
  endfacet
  facet normal 0 1 0
    outer loop
      vertex 33.729 1.5 -0.906661
      vertex 23.5114 1.5 3.13932
      vertex 33.625 1.5 -0.25
    endloop
  endfacet
  facet normal 0 1 0
    outer loop
      vertex 23.5114 1.5 3.13932
      vertex 33.729 1.5 -0.906661
      vertex 21.7856 1.5 1.95318
    endloop
  endfacet
  facet normal 0 1 0
    outer loop
      vertex 34.0308 1.5 -1.49904
      vertex 21.7856 1.5 1.95318
      vertex 33.729 1.5 -0.906661
    endloop
  endfacet
  facet normal 0 1 0
    outer loop
      vertex 21.7856 1.5 1.95318
      vertex 34.0308 1.5 -1.49904
      vertex 20 1.5 0.858984
    endloop
  endfacet
  facet normal 0 1 0
    outer loop
      vertex 34.501 1.5 -1.96916
      vertex 20 1.5 0.858984
      vertex 34.0308 1.5 -1.49904
    endloop
  endfacet
  facet normal 0 1 0
    outer loop
      vertex 20 1.5 0.858984
      vertex 34.501 1.5 -1.96916
      vertex 18.1596 1.5 -0.140261
    endloop
  endfacet
  facet normal 0 1 0
    outer loop
      vertex 18.1596 1.5 -0.140261
      vertex 34.501 1.5 -1.96916
      vertex 16.2695 1.5 -1.04182
    endloop
  endfacet
  facet normal 0 1 0
    outer loop
      vertex 16.2695 1.5 -1.04182
      vertex 34.501 1.5 -1.96916
      vertex 14.3347 1.5 -1.84322
    endloop
  endfacet
  facet normal 0 1 0
    outer loop
      vertex 35.0933 1.5 -2.27099
      vertex 14.3347 1.5 -1.84322
      vertex 34.501 1.5 -1.96916
    endloop
  endfacet
  facet normal 0 1 0
    outer loop
      vertex 41 1.5 -6
      vertex 35.0933 1.5 -2.27099
      vertex 35.75 1.5 -2.375
    endloop
  endfacet
  facet normal 0 1 0
    outer loop
      vertex 35.0933 1.5 -2.27099
      vertex 12.3607 1.5 -2.54226
      vertex 14.3347 1.5 -1.84322
    endloop
  endfacet
  facet normal 0 1 0
    outer loop
      vertex -41 1.5 6
      vertex -35.0933 1.5 1.771
      vertex -35.75 1.5 1.875
    endloop
  endfacet
  facet normal 0 1 0
    outer loop
      vertex -23.5114 1.5 3.13932
      vertex -34.501 1.5 1.46916
      vertex -35.0933 1.5 1.771
    endloop
  endfacet
  facet normal 0 1 0
    outer loop
      vertex -23.5114 1.5 3.13932
      vertex -34.0308 1.5 0.999044
      vertex -34.501 1.5 1.46916
    endloop
  endfacet
  facet normal 0 1 0
    outer loop
      vertex -34.0308 1.5 -1.49904
      vertex -21.7856 1.5 1.95318
      vertex -20 1.5 0.858984
    endloop
  endfacet
  facet normal 0 1 0
    outer loop
      vertex -23.5114 1.5 3.13932
      vertex -33.729 1.5 0.406662
      vertex -34.0308 1.5 0.999044
    endloop
  endfacet
  facet normal 0 1 0
    outer loop
      vertex -34.501 1.5 -1.96916
      vertex -20 1.5 0.858984
      vertex -18.1596 1.5 -0.140261
    endloop
  endfacet
  facet normal 0 1 0
    outer loop
      vertex -23.5114 1.5 3.13932
      vertex -33.625 1.5 -0.25
      vertex -33.729 1.5 0.406662
    endloop
  endfacet
  facet normal 0 1 0
    outer loop
      vertex -23.5114 1.5 3.13932
      vertex -33.729 1.5 -0.906661
      vertex -33.625 1.5 -0.25
    endloop
  endfacet
  facet normal 0 1 0
    outer loop
      vertex -34.501 1.5 -1.96916
      vertex -18.1596 1.5 -0.140261
      vertex -16.2695 1.5 -1.04182
    endloop
  endfacet
  facet normal 0 1 0
    outer loop
      vertex -21.7856 1.5 1.95318
      vertex -34.0308 1.5 -1.49904
      vertex -33.729 1.5 -0.906661
    endloop
  endfacet
  facet normal 0 1 0
    outer loop
      vertex -34.501 1.5 -1.96916
      vertex -16.2695 1.5 -1.04182
      vertex -14.3347 1.5 -1.84322
    endloop
  endfacet
  facet normal 0 1 0
    outer loop
      vertex -20 1.5 0.858984
      vertex -34.501 1.5 -1.96916
      vertex -34.0308 1.5 -1.49904
    endloop
  endfacet
  facet normal 0 1 0
    outer loop
      vertex -14.3347 1.5 -1.84322
      vertex -35.0933 1.5 -2.27099
      vertex -34.501 1.5 -1.96916
    endloop
  endfacet
  facet normal 0 1 0
    outer loop
      vertex -41 1.5 -6
      vertex -35.0933 1.5 -2.27099
      vertex -14.3347 1.5 -1.84322
    endloop
  endfacet
  facet normal 0 1 0
    outer loop
      vertex -41 1.5 -6
      vertex -14.3347 1.5 -1.84322
      vertex -12.3607 1.5 -2.54226
    endloop
  endfacet
  facet normal 0 1 0
    outer loop
      vertex -35.0933 1.5 1.771
      vertex -27.0032 1.5 6
      vertex -26.7652 1.5 5.77421
    endloop
  endfacet
  facet normal 0 1 0
    outer loop
      vertex -35.0933 1.5 1.771
      vertex -26.7652 1.5 5.77421
      vertex -25.1728 1.5 4.41416
    endloop
  endfacet
  facet normal 0 1 0
    outer loop
      vertex -35.0933 1.5 1.771
      vertex -25.1728 1.5 4.41416
      vertex -23.5114 1.5 3.13932
    endloop
  endfacet
  facet normal 0 1 0
    outer loop
      vertex -33.729 1.5 -0.906661
      vertex -23.5114 1.5 3.13932
      vertex -21.7856 1.5 1.95318
    endloop
  endfacet
  facet normal 0 1 -0
    outer loop
      vertex -35.0933 1.5 1.771
      vertex -41 1.5 6
      vertex -27.0032 1.5 6
    endloop
  endfacet
  facet normal 0 1 -0
    outer loop
      vertex -36.4067 1.5 1.771
      vertex -41 1.5 6
      vertex -35.75 1.5 1.875
    endloop
  endfacet
  facet normal 0 1 -0
    outer loop
      vertex -36.999 1.5 1.46916
      vertex -41 1.5 6
      vertex -36.4067 1.5 1.771
    endloop
  endfacet
  facet normal 0 1 -0
    outer loop
      vertex -37.4692 1.5 0.999044
      vertex -41 1.5 6
      vertex -36.999 1.5 1.46916
    endloop
  endfacet
  facet normal 0 1 -0
    outer loop
      vertex -37.771 1.5 0.406662
      vertex -41 1.5 6
      vertex -37.4692 1.5 0.999044
    endloop
  endfacet
  facet normal 0 1 -0
    outer loop
      vertex -37.875 1.5 -0.25
      vertex -41 1.5 6
      vertex -37.771 1.5 0.406662
    endloop
  endfacet
  facet normal 0 1 0
    outer loop
      vertex -41 1.5 -6
      vertex -37.875 1.5 -0.25
      vertex -37.771 1.5 -0.906661
    endloop
  endfacet
  facet normal 0 1 0
    outer loop
      vertex -41 1.5 -6
      vertex -12.3607 1.5 -2.54226
      vertex -10.3528 1.5 -3.13703
    endloop
  endfacet
  facet normal 0 1 0
    outer loop
      vertex -41 1.5 -6
      vertex -10.3528 1.5 -3.13703
      vertex -8.31647 1.5 -3.6259
    endloop
  endfacet
  facet normal 0 1 0
    outer loop
      vertex -41 1.5 -6
      vertex -8.31647 1.5 -3.6259
      vertex -6.25738 1.5 -4.00753
    endloop
  endfacet
  facet normal 0 1 0
    outer loop
      vertex -41 1.5 -6
      vertex -6.25738 1.5 -4.00753
      vertex -4.18114 1.5 -4.28088
    endloop
  endfacet
  facet normal 0 1 0
    outer loop
      vertex -41 1.5 -6
      vertex -4.18114 1.5 -4.28088
      vertex -2.09344 1.5 -4.44518
    endloop
  endfacet
  facet normal 0 1 0
    outer loop
      vertex -41 1.5 -6
      vertex 0 1.5 -4.5
      vertex 41 1.5 -6
    endloop
  endfacet
  facet normal 0 1 0
    outer loop
      vertex -37.875 1.5 -0.25
      vertex -41 1.5 -6
      vertex -41 1.5 6
    endloop
  endfacet
  facet normal 0 1 0
    outer loop
      vertex -37.4692 1.5 -1.49904
      vertex -41 1.5 -6
      vertex -37.771 1.5 -0.906661
    endloop
  endfacet
  facet normal 0 1 0
    outer loop
      vertex -36.999 1.5 -1.96916
      vertex -41 1.5 -6
      vertex -37.4692 1.5 -1.49904
    endloop
  endfacet
  facet normal 0 1 0
    outer loop
      vertex -36.4067 1.5 -2.27099
      vertex -41 1.5 -6
      vertex -36.999 1.5 -1.96916
    endloop
  endfacet
  facet normal 0 1 0
    outer loop
      vertex -35.75 1.5 -2.375
      vertex -41 1.5 -6
      vertex -36.4067 1.5 -2.27099
    endloop
  endfacet
  facet normal 0 1 0
    outer loop
      vertex -35.0933 1.5 -2.27099
      vertex -41 1.5 -6
      vertex -35.75 1.5 -2.375
    endloop
  endfacet
  facet normal 0 1 0
    outer loop
      vertex 0 1.5 -4.5
      vertex -41 1.5 -6
      vertex -2.09344 1.5 -4.44518
    endloop
  endfacet
  facet normal 0 -1 0
    outer loop
      vertex -33 -34.5 -6
      vertex -31.7113 -34.5 6
      vertex -33 -34.5 6
    endloop
  endfacet
  facet normal 0 -1 -0
    outer loop
      vertex -31.7113 -34.5 6
      vertex -33 -34.5 -6
      vertex -31.7113 -34.5 -6
    endloop
  endfacet
  facet normal 0 1 -0
    outer loop
      vertex 30 -31.8349 -6
      vertex 28.25 -31.8349 6
      vertex 30 -31.8349 6
    endloop
  endfacet
  facet normal 0 1 0
    outer loop
      vertex 28.25 -31.8349 6
      vertex 30 -31.8349 -6
      vertex 28.25 -31.8349 -6
    endloop
  endfacet
  facet normal 0 -1 0
    outer loop
      vertex 28.25 -36.1651 -6
      vertex 30.75 -36.1651 6
      vertex 28.25 -36.1651 6
    endloop
  endfacet
  facet normal 0 -1 -0
    outer loop
      vertex 30.75 -36.1651 6
      vertex 28.25 -36.1651 -6
      vertex 30.75 -36.1651 -6
    endloop
  endfacet
  facet normal 0.866036 -0.499982 0
    outer loop
      vertex 30.75 -36.1651 6
      vertex 31.7113 -34.5 -6
      vertex 31.7113 -34.5 6
    endloop
  endfacet
  facet normal 0.866036 -0.499982 0
    outer loop
      vertex 31.7113 -34.5 -6
      vertex 30.75 -36.1651 6
      vertex 30.75 -36.1651 -6
    endloop
  endfacet
  facet normal -1 0 0
    outer loop
      vertex 30 -10 -6
      vertex 30 -31.8349 -6
      vertex 30 -10 -4.5
    endloop
  endfacet
  facet normal -1 0 0
    outer loop
      vertex 30 -10 -4.5
      vertex 30 -1.5 6
      vertex 30 -1.5 -4.5
    endloop
  endfacet
  facet normal -1 0 0
    outer loop
      vertex 30 -31.8349 6
      vertex 30 -10 -4.5
      vertex 30 -31.8349 -6
    endloop
  endfacet
  facet normal -1 0 0
    outer loop
      vertex 30 -10 -4.5
      vertex 30 -31.8349 6
      vertex 30 -1.5 6
    endloop
  endfacet
  facet normal 1 0 0
    outer loop
      vertex 33 -1.5 6
      vertex 33 -5 2.34808
      vertex 33 -1.5 2.34808
    endloop
  endfacet
  facet normal 1 0 0
    outer loop
      vertex 33 -34.5 -6
      vertex 33 -5 2.34808
      vertex 33 -34.5 6
    endloop
  endfacet
  facet normal 1 -0 0
    outer loop
      vertex 33 -34.5 6
      vertex 33 -5 2.34808
      vertex 33 -1.5 6
    endloop
  endfacet
  facet normal 1 -0 0
    outer loop
      vertex 33 -5 -2.84808
      vertex 33 -1.5 -6
      vertex 33 -1.5 -2.84808
    endloop
  endfacet
  facet normal 1 0 0
    outer loop
      vertex 33 -5 2.34808
      vertex 33 -34.5 -6
      vertex 33 -5 -2.84808
    endloop
  endfacet
  facet normal 1 0 0
    outer loop
      vertex 33 -5 -2.84808
      vertex 33 -34.5 -6
      vertex 33 -1.5 -6
    endloop
  endfacet
  facet normal 0 -1 0
    outer loop
      vertex 31.7113 -34.5 -6
      vertex 33 -34.5 6
      vertex 31.7113 -34.5 6
    endloop
  endfacet
  facet normal 0 -1 -0
    outer loop
      vertex 33 -34.5 6
      vertex 31.7113 -34.5 -6
      vertex 33 -34.5 -6
    endloop
  endfacet
  facet normal 0.866019 0.500011 0
    outer loop
      vertex -30 -34.866 6
      vertex -30.5 -34 -6
      vertex -30.5 -34 6
    endloop
  endfacet
  facet normal 0.866019 0.500011 0
    outer loop
      vertex -30.5 -34 -6
      vertex -30 -34.866 6
      vertex -30 -34.866 -6
    endloop
  endfacet
  facet normal 0.866019 -0.500011 0
    outer loop
      vertex -30.5 -34 6
      vertex -30 -33.134 -6
      vertex -30 -33.134 6
    endloop
  endfacet
  facet normal 0.866019 -0.500011 0
    outer loop
      vertex -30 -33.134 -6
      vertex -30.5 -34 6
      vertex -30.5 -34 -6
    endloop
  endfacet
  facet normal -0.866019 -0.500011 0
    outer loop
      vertex 30.5 -34 -6
      vertex 30 -33.134 6
      vertex 30 -33.134 -6
    endloop
  endfacet
  facet normal -0.866019 -0.500011 0
    outer loop
      vertex 30 -33.134 6
      vertex 30.5 -34 -6
      vertex 30.5 -34 6
    endloop
  endfacet
  facet normal -0.866019 0.500011 0
    outer loop
      vertex 30 -34.866 -6
      vertex 30.5 -34 6
      vertex 30.5 -34 -6
    endloop
  endfacet
  facet normal -0.866019 0.500011 0
    outer loop
      vertex 30.5 -34 6
      vertex 30 -34.866 -6
      vertex 30 -34.866 6
    endloop
  endfacet
  facet normal 1 -0 0
    outer loop
      vertex -28.25 -33.125 6
      vertex -28.25 -31.8349 -6
      vertex -28.25 -31.8349 6
    endloop
  endfacet
  facet normal 1 0 0
    outer loop
      vertex -28.25 -31.8349 -6
      vertex -28.25 -33.125 6
      vertex -28.25 -33.125 -6
    endloop
  endfacet
  facet normal 1 -0 0
    outer loop
      vertex -28.25 -36.1651 6
      vertex -28.25 -34.875 -6
      vertex -28.25 -34.875 6
    endloop
  endfacet
  facet normal 1 0 0
    outer loop
      vertex -28.25 -34.875 -6
      vertex -28.25 -36.1651 6
      vertex -28.25 -36.1651 -6
    endloop
  endfacet
  facet normal -1 0 0
    outer loop
      vertex 28.25 -36.1651 -6
      vertex 28.25 -34.875 6
      vertex 28.25 -34.875 -6
    endloop
  endfacet
  facet normal -1 -0 0
    outer loop
      vertex 28.25 -34.875 6
      vertex 28.25 -36.1651 -6
      vertex 28.25 -36.1651 6
    endloop
  endfacet
  facet normal -1 0 0
    outer loop
      vertex 28.25 -33.125 -6
      vertex 28.25 -31.8349 6
      vertex 28.25 -31.8349 -6
    endloop
  endfacet
  facet normal -1 -0 0
    outer loop
      vertex 28.25 -31.8349 6
      vertex 28.25 -33.125 -6
      vertex 28.25 -33.125 6
    endloop
  endfacet
  facet normal 1 -0 0
    outer loop
      vertex -30 -34.875 6
      vertex -30 -34.866 -6
      vertex -30 -34.866 6
    endloop
  endfacet
  facet normal 1 0 0
    outer loop
      vertex -30 -34.866 -6
      vertex -30 -34.875 6
      vertex -30 -34.875 -6
    endloop
  endfacet
  facet normal 1 -0 0
    outer loop
      vertex -30 -33.134 6
      vertex -30 -33.125 -6
      vertex -30 -33.125 6
    endloop
  endfacet
  facet normal 1 0 0
    outer loop
      vertex -30 -33.125 -6
      vertex -30 -33.134 6
      vertex -30 -33.134 -6
    endloop
  endfacet
  facet normal -1 0 0
    outer loop
      vertex 30 -33.134 -6
      vertex 30 -33.125 6
      vertex 30 -33.125 -6
    endloop
  endfacet
  facet normal -1 -0 0
    outer loop
      vertex 30 -33.125 6
      vertex 30 -33.134 -6
      vertex 30 -33.134 6
    endloop
  endfacet
  facet normal -1 0 0
    outer loop
      vertex 30 -34.875 -6
      vertex 30 -34.866 6
      vertex 30 -34.866 -6
    endloop
  endfacet
  facet normal -1 -0 0
    outer loop
      vertex 30 -34.866 6
      vertex 30 -34.875 -6
      vertex 30 -34.875 6
    endloop
  endfacet
  facet normal 0 1 -0
    outer loop
      vertex -28.25 -34.875 -6
      vertex -30 -34.875 6
      vertex -28.25 -34.875 6
    endloop
  endfacet
  facet normal 0 1 0
    outer loop
      vertex -30 -34.875 6
      vertex -28.25 -34.875 -6
      vertex -30 -34.875 -6
    endloop
  endfacet
  facet normal 0 1 -0
    outer loop
      vertex 30 -34.875 -6
      vertex 28.25 -34.875 6
      vertex 30 -34.875 6
    endloop
  endfacet
  facet normal 0 1 0
    outer loop
      vertex 28.25 -34.875 6
      vertex 30 -34.875 -6
      vertex 28.25 -34.875 -6
    endloop
  endfacet
  facet normal 0 -1 0
    outer loop
      vertex -30 -33.125 -6
      vertex -28.25 -33.125 6
      vertex -30 -33.125 6
    endloop
  endfacet
  facet normal 0 -1 -0
    outer loop
      vertex -28.25 -33.125 6
      vertex -30 -33.125 -6
      vertex -28.25 -33.125 -6
    endloop
  endfacet
  facet normal 0 -1 0
    outer loop
      vertex 28.25 -33.125 -6
      vertex 30 -33.125 6
      vertex 28.25 -33.125 6
    endloop
  endfacet
  facet normal 0 -1 -0
    outer loop
      vertex 30 -33.125 6
      vertex 28.25 -33.125 -6
      vertex 30 -33.125 -6
    endloop
  endfacet
  facet normal -1 0 0
    outer loop
      vertex -41 -1.5 -6
      vertex -41 1.5 6
      vertex -41 1.5 -6
    endloop
  endfacet
  facet normal -1 -0 0
    outer loop
      vertex -41 1.5 6
      vertex -41 -1.5 -6
      vertex -41 -1.5 6
    endloop
  endfacet
  facet normal 1 -0 0
    outer loop
      vertex 41 -1.5 6
      vertex 41 1.5 -6
      vertex 41 1.5 6
    endloop
  endfacet
  facet normal 1 0 0
    outer loop
      vertex 41 1.5 -6
      vertex 41 -1.5 6
      vertex 41 -1.5 -6
    endloop
  endfacet
  facet normal 0 -1 -0
    outer loop
      vertex 33.625 -1.5 -3.93061
      vertex 33 -1.5 -6
      vertex 37.875 -1.5 -3.93061
    endloop
  endfacet
  facet normal 0 -1 0
    outer loop
      vertex 33 -1.5 -6
      vertex 33.625 -1.5 -3.93061
      vertex 33 -1.5 -2.84808
    endloop
  endfacet
  facet normal 0 -1 0
    outer loop
      vertex 37.875 -1.5 3.43061
      vertex 33 -1.5 6
      vertex 33.625 -1.5 3.43061
    endloop
  endfacet
  facet normal -0 -1 0
    outer loop
      vertex 33.625 -1.5 3.43061
      vertex 33 -1.5 6
      vertex 33 -1.5 2.34808
    endloop
  endfacet
  facet normal 0 -1 0
    outer loop
      vertex 33 -1.5 6
      vertex 37.875 -1.5 3.43061
      vertex 41 -1.5 6
    endloop
  endfacet
  facet normal 0 -1 0
    outer loop
      vertex 40 -1.5 -0.25
      vertex 41 -1.5 6
      vertex 37.875 -1.5 3.43061
    endloop
  endfacet
  facet normal 0 -1 0
    outer loop
      vertex 40 -1.5 -0.25
      vertex 41 -1.5 -6
      vertex 41 -1.5 6
    endloop
  endfacet
  facet normal 0 -1 0
    outer loop
      vertex 37.875 -1.5 -3.93061
      vertex 41 -1.5 -6
      vertex 40 -1.5 -0.25
    endloop
  endfacet
  facet normal 0 -1 0
    outer loop
      vertex 41 -1.5 -6
      vertex 37.875 -1.5 -3.93061
      vertex 33 -1.5 -6
    endloop
  endfacet
  facet normal 0 -1 0
    outer loop
      vertex -41 -1.5 6
      vertex -37.875 -1.5 3.43061
      vertex -33 -1.5 6
    endloop
  endfacet
  facet normal 0 -1 0
    outer loop
      vertex -41 -1.5 6
      vertex -40 -1.5 -0.25
      vertex -37.875 -1.5 3.43061
    endloop
  endfacet
  facet normal 0 -1 0
    outer loop
      vertex -33 -1.5 -6
      vertex -37.875 -1.5 -3.93061
      vertex -41 -1.5 -6
    endloop
  endfacet
  facet normal 0 -1 -0
    outer loop
      vertex -40 -1.5 -0.25
      vertex -41 -1.5 -6
      vertex -37.875 -1.5 -3.93061
    endloop
  endfacet
  facet normal 0 -1 0
    outer loop
      vertex -41 -1.5 -6
      vertex -40 -1.5 -0.25
      vertex -41 -1.5 6
    endloop
  endfacet
  facet normal 0 -1 0
    outer loop
      vertex -33.625 -1.5 3.43061
      vertex -33 -1.5 6
      vertex -37.875 -1.5 3.43061
    endloop
  endfacet
  facet normal 0 -1 -0
    outer loop
      vertex -33 -1.5 6
      vertex -33.625 -1.5 3.43061
      vertex -33 -1.5 2.34808
    endloop
  endfacet
  facet normal 0 -1 0
    outer loop
      vertex -33.625 -1.5 -3.93061
      vertex -33 -1.5 -6
      vertex -33 -1.5 -2.84808
    endloop
  endfacet
  facet normal 0 -1 0
    outer loop
      vertex -37.875 -1.5 -3.93061
      vertex -33 -1.5 -6
      vertex -33.625 -1.5 -3.93061
    endloop
  endfacet
  facet normal 0 -1 0
    outer loop
      vertex -30 -1.5 6
      vertex -26.7652 -1.5 5.77421
      vertex -27.0032 -1.5 6
    endloop
  endfacet
  facet normal 0 -1 0
    outer loop
      vertex -30 -1.5 6
      vertex -25.1728 -1.5 4.41416
      vertex -26.7652 -1.5 5.77421
    endloop
  endfacet
  facet normal 0 -1 0
    outer loop
      vertex -30 -1.5 -4.5
      vertex -25.1728 -1.5 4.41416
      vertex -30 -1.5 6
    endloop
  endfacet
  facet normal 0 -1 -0
    outer loop
      vertex -25.1728 -1.5 4.41416
      vertex -30 -1.5 -4.5
      vertex -23.5114 -1.5 3.13932
    endloop
  endfacet
  facet normal 0 -1 -0
    outer loop
      vertex -23.5114 -1.5 3.13932
      vertex -30 -1.5 -4.5
      vertex -21.7856 -1.5 1.95318
    endloop
  endfacet
  facet normal 0 -1 -0
    outer loop
      vertex -21.7856 -1.5 1.95318
      vertex -30 -1.5 -4.5
      vertex -20 -1.5 0.858984
    endloop
  endfacet
  facet normal 0 -1 -0
    outer loop
      vertex -20 -1.5 0.858984
      vertex -30 -1.5 -4.5
      vertex -18.1596 -1.5 -0.140261
    endloop
  endfacet
  facet normal 0 -1 0
    outer loop
      vertex -30 -1.5 -4.5
      vertex -16.2695 -1.5 -1.04182
      vertex -18.1596 -1.5 -0.140261
    endloop
  endfacet
  facet normal 0 -1 0
    outer loop
      vertex -30 -1.5 -4.5
      vertex -14.3347 -1.5 -1.84322
      vertex -16.2695 -1.5 -1.04182
    endloop
  endfacet
  facet normal 0 -1 0
    outer loop
      vertex -30 -1.5 -4.5
      vertex -12.3607 -1.5 -2.54226
      vertex -14.3347 -1.5 -1.84322
    endloop
  endfacet
  facet normal 0 -1 0
    outer loop
      vertex -30 -1.5 -4.5
      vertex -10.3528 -1.5 -3.13703
      vertex -12.3607 -1.5 -2.54226
    endloop
  endfacet
  facet normal 0 -1 0
    outer loop
      vertex -30 -1.5 -4.5
      vertex -8.31647 -1.5 -3.6259
      vertex -10.3528 -1.5 -3.13703
    endloop
  endfacet
  facet normal 0 -1 0
    outer loop
      vertex -30 -1.5 -4.5
      vertex -6.25738 -1.5 -4.00753
      vertex -8.31647 -1.5 -3.6259
    endloop
  endfacet
  facet normal 0 -1 0
    outer loop
      vertex -30 -1.5 -4.5
      vertex -4.18114 -1.5 -4.28088
      vertex -6.25738 -1.5 -4.00753
    endloop
  endfacet
  facet normal 0 -1 0
    outer loop
      vertex -30 -1.5 -4.5
      vertex -2.09344 -1.5 -4.44518
      vertex -4.18114 -1.5 -4.28088
    endloop
  endfacet
  facet normal 0 -1 -0
    outer loop
      vertex -2.09344 -1.5 -4.44518
      vertex -30 -1.5 -4.5
      vertex 0 -1.5 -4.5
    endloop
  endfacet
  facet normal 0 -1 0
    outer loop
      vertex 26.7652 -1.5 5.77421
      vertex 30 -1.5 6
      vertex 27.0032 -1.5 6
    endloop
  endfacet
  facet normal 0 -1 0
    outer loop
      vertex 25.1728 -1.5 4.41416
      vertex 30 -1.5 6
      vertex 26.7652 -1.5 5.77421
    endloop
  endfacet
  facet normal 0 -1 0
    outer loop
      vertex 30 -1.5 -4.5
      vertex 25.1728 -1.5 4.41416
      vertex 23.5114 -1.5 3.13932
    endloop
  endfacet
  facet normal 0 -1 0
    outer loop
      vertex 30 -1.5 -4.5
      vertex 23.5114 -1.5 3.13932
      vertex 21.7856 -1.5 1.95318
    endloop
  endfacet
  facet normal 0 -1 0
    outer loop
      vertex 30 -1.5 -4.5
      vertex 21.7856 -1.5 1.95318
      vertex 20 -1.5 0.858984
    endloop
  endfacet
  facet normal 0 -1 0
    outer loop
      vertex 30 -1.5 -4.5
      vertex 20 -1.5 0.858984
      vertex 18.1596 -1.5 -0.140261
    endloop
  endfacet
  facet normal 0 -1 0
    outer loop
      vertex 25.1728 -1.5 4.41416
      vertex 30 -1.5 -4.5
      vertex 30 -1.5 6
    endloop
  endfacet
  facet normal 0 -1 0
    outer loop
      vertex 16.2695 -1.5 -1.04182
      vertex 30 -1.5 -4.5
      vertex 18.1596 -1.5 -0.140261
    endloop
  endfacet
  facet normal 0 -1 0
    outer loop
      vertex 14.3347 -1.5 -1.84322
      vertex 30 -1.5 -4.5
      vertex 16.2695 -1.5 -1.04182
    endloop
  endfacet
  facet normal 0 -1 0
    outer loop
      vertex 12.3607 -1.5 -2.54226
      vertex 30 -1.5 -4.5
      vertex 14.3347 -1.5 -1.84322
    endloop
  endfacet
  facet normal 0 -1 0
    outer loop
      vertex 10.3528 -1.5 -3.13703
      vertex 30 -1.5 -4.5
      vertex 12.3607 -1.5 -2.54226
    endloop
  endfacet
  facet normal 0 -1 0
    outer loop
      vertex 8.31647 -1.5 -3.6259
      vertex 30 -1.5 -4.5
      vertex 10.3528 -1.5 -3.13703
    endloop
  endfacet
  facet normal 0 -1 0
    outer loop
      vertex 6.25738 -1.5 -4.00753
      vertex 30 -1.5 -4.5
      vertex 8.31647 -1.5 -3.6259
    endloop
  endfacet
  facet normal 0 -1 0
    outer loop
      vertex 4.18114 -1.5 -4.28088
      vertex 30 -1.5 -4.5
      vertex 6.25738 -1.5 -4.00753
    endloop
  endfacet
  facet normal 0 -1 0
    outer loop
      vertex 2.09344 -1.5 -4.44518
      vertex 30 -1.5 -4.5
      vertex 4.18114 -1.5 -4.28088
    endloop
  endfacet
  facet normal 0 -1 0
    outer loop
      vertex 30 -1.5 -4.5
      vertex 2.09344 -1.5 -4.44518
      vertex 0 -1.5 -4.5
    endloop
  endfacet
  facet normal -0 0 1
    outer loop
      vertex -30 -1.5 -4.5
      vertex 0 -10 -4.5
      vertex 0 -1.5 -4.5
    endloop
  endfacet
  facet normal 0 0 1
    outer loop
      vertex 0 -10 -4.5
      vertex -30 -1.5 -4.5
      vertex -30 -10 -4.5
    endloop
  endfacet
  facet normal -0 0 1
    outer loop
      vertex 0 -1.5 -4.5
      vertex 30 -10 -4.5
      vertex 30 -1.5 -4.5
    endloop
  endfacet
  facet normal 0 0 1
    outer loop
      vertex 30 -10 -4.5
      vertex 0 -1.5 -4.5
      vertex 0 -10 -4.5
    endloop
  endfacet
  facet normal 0 -1 0
    outer loop
      vertex -30 -10 -6
      vertex 0 -10 -4.5
      vertex -30 -10 -4.5
    endloop
  endfacet
  facet normal 0 -1 0
    outer loop
      vertex 30 -10 -6
      vertex 0 -10 -4.5
      vertex -30 -10 -6
    endloop
  endfacet
  facet normal 0 -1 0
    outer loop
      vertex 0 -10 -4.5
      vertex 30 -10 -6
      vertex 30 -10 -4.5
    endloop
  endfacet
  facet normal -0.98769 0 -0.156427
    outer loop
      vertex -33.625 -1 -0.25
      vertex -33.729 1.5 0.406662
      vertex -33.625 1.5 -0.25
    endloop
  endfacet
  facet normal -0.98769 -0 -0.156427
    outer loop
      vertex -33.729 1.5 0.406662
      vertex -33.625 -1 -0.25
      vertex -33.729 -1 0.406662
    endloop
  endfacet
  facet normal 0.98769 0 -0.156427
    outer loop
      vertex -37.771 -1 0.406662
      vertex -37.875 1.5 -0.25
      vertex -37.771 1.5 0.406662
    endloop
  endfacet
  facet normal 0.98769 0 -0.156427
    outer loop
      vertex -37.875 1.5 -0.25
      vertex -37.771 -1 0.406662
      vertex -37.875 -1 -0.25
    endloop
  endfacet
  facet normal -0.454048 0 -0.890977
    outer loop
      vertex -35.0933 -1 1.771
      vertex -34.501 1.5 1.46916
      vertex -34.501 -1 1.46916
    endloop
  endfacet
  facet normal -0.454048 0 -0.890977
    outer loop
      vertex -34.501 1.5 1.46916
      vertex -35.0933 -1 1.771
      vertex -35.0933 1.5 1.771
    endloop
  endfacet
  facet normal 0.454036 0 0.890983
    outer loop
      vertex -36.999 1.5 -1.96916
      vertex -36.4067 -1 -2.27099
      vertex -36.4067 1.5 -2.27099
    endloop
  endfacet
  facet normal 0.454036 0 0.890983
    outer loop
      vertex -36.4067 -1 -2.27099
      vertex -36.999 1.5 -1.96916
      vertex -36.999 -1 -1.96916
    endloop
  endfacet
  facet normal -0.707044 0 -0.70717
    outer loop
      vertex -34.0308 -1 0.999044
      vertex -34.501 1.5 1.46916
      vertex -34.0308 1.5 0.999044
    endloop
  endfacet
  facet normal -0.707044 -0 -0.70717
    outer loop
      vertex -34.501 1.5 1.46916
      vertex -34.0308 -1 0.999044
      vertex -34.501 -1 1.46916
    endloop
  endfacet
  facet normal -0.891027 0 -0.45395
    outer loop
      vertex -33.729 -1 0.406662
      vertex -34.0308 1.5 0.999044
      vertex -33.729 1.5 0.406662
    endloop
  endfacet
  facet normal -0.891027 -0 -0.45395
    outer loop
      vertex -34.0308 1.5 0.999044
      vertex -33.729 -1 0.406662
      vertex -34.0308 -1 0.999044
    endloop
  endfacet
  facet normal 0.156418 0 -0.987691
    outer loop
      vertex -36.4067 -1 1.771
      vertex -35.75 1.5 1.875
      vertex -35.75 -1 1.875
    endloop
  endfacet
  facet normal 0.156418 0 -0.987691
    outer loop
      vertex -35.75 1.5 1.875
      vertex -36.4067 -1 1.771
      vertex -36.4067 1.5 1.771
    endloop
  endfacet
  facet normal 0.454048 0 -0.890977
    outer loop
      vertex -36.999 -1 1.46916
      vertex -36.4067 1.5 1.771
      vertex -36.4067 -1 1.771
    endloop
  endfacet
  facet normal 0.454048 0 -0.890977
    outer loop
      vertex -36.4067 1.5 1.771
      vertex -36.999 -1 1.46916
      vertex -36.999 1.5 1.46916
    endloop
  endfacet
  facet normal 0.707044 0 -0.70717
    outer loop
      vertex -37.4692 -1 0.999044
      vertex -36.999 1.5 1.46916
      vertex -36.999 -1 1.46916
    endloop
  endfacet
  facet normal 0.707044 0 -0.70717
    outer loop
      vertex -36.999 1.5 1.46916
      vertex -37.4692 -1 0.999044
      vertex -37.4692 1.5 0.999044
    endloop
  endfacet
  facet normal -0.707047 0 0.707167
    outer loop
      vertex -34.501 -1 -1.96916
      vertex -34.0308 1.5 -1.49904
      vertex -34.501 1.5 -1.96916
    endloop
  endfacet
  facet normal -0.707047 0 0.707167
    outer loop
      vertex -34.0308 1.5 -1.49904
      vertex -34.501 -1 -1.96916
      vertex -34.0308 -1 -1.49904
    endloop
  endfacet
  facet normal 0.987689 -0 0.156427
    outer loop
      vertex -37.875 -1 -0.25
      vertex -37.771 1.5 -0.906661
      vertex -37.875 1.5 -0.25
    endloop
  endfacet
  facet normal 0.987689 0 0.156427
    outer loop
      vertex -37.771 1.5 -0.906661
      vertex -37.875 -1 -0.25
      vertex -37.771 -1 -0.906661
    endloop
  endfacet
  facet normal 0.707047 0 0.707167
    outer loop
      vertex -37.4692 1.5 -1.49904
      vertex -36.999 -1 -1.96916
      vertex -36.999 1.5 -1.96916
    endloop
  endfacet
  facet normal 0.707047 0 0.707167
    outer loop
      vertex -36.999 -1 -1.96916
      vertex -37.4692 1.5 -1.49904
      vertex -37.4692 -1 -1.49904
    endloop
  endfacet
  facet normal 0.891026 -0 0.453952
    outer loop
      vertex -37.771 -1 -0.906661
      vertex -37.4692 1.5 -1.49904
      vertex -37.771 1.5 -0.906661
    endloop
  endfacet
  facet normal 0.891026 0 0.453952
    outer loop
      vertex -37.4692 1.5 -1.49904
      vertex -37.771 -1 -0.906661
      vertex -37.4692 -1 -1.49904
    endloop
  endfacet
  facet normal -0.156418 0 -0.987691
    outer loop
      vertex -35.75 -1 1.875
      vertex -35.0933 1.5 1.771
      vertex -35.0933 -1 1.771
    endloop
  endfacet
  facet normal -0.156418 0 -0.987691
    outer loop
      vertex -35.0933 1.5 1.771
      vertex -35.75 -1 1.875
      vertex -35.75 1.5 1.875
    endloop
  endfacet
  facet normal 0.891027 0 -0.45395
    outer loop
      vertex -37.4692 -1 0.999044
      vertex -37.771 1.5 0.406662
      vertex -37.4692 1.5 0.999044
    endloop
  endfacet
  facet normal 0.891027 0 -0.45395
    outer loop
      vertex -37.771 1.5 0.406662
      vertex -37.4692 -1 0.999044
      vertex -37.771 -1 0.406662
    endloop
  endfacet
  facet normal -0.891026 0 0.453952
    outer loop
      vertex -34.0308 -1 -1.49904
      vertex -33.729 1.5 -0.906661
      vertex -34.0308 1.5 -1.49904
    endloop
  endfacet
  facet normal -0.891026 0 0.453952
    outer loop
      vertex -33.729 1.5 -0.906661
      vertex -34.0308 -1 -1.49904
      vertex -33.729 -1 -0.906661
    endloop
  endfacet
  facet normal -0.156433 0 0.987689
    outer loop
      vertex -35.75 1.5 -2.375
      vertex -35.0933 -1 -2.27099
      vertex -35.0933 1.5 -2.27099
    endloop
  endfacet
  facet normal -0.156433 0 0.987689
    outer loop
      vertex -35.0933 -1 -2.27099
      vertex -35.75 1.5 -2.375
      vertex -35.75 -1 -2.375
    endloop
  endfacet
  facet normal -0.454036 0 0.890983
    outer loop
      vertex -35.0933 1.5 -2.27099
      vertex -34.501 -1 -1.96916
      vertex -34.501 1.5 -1.96916
    endloop
  endfacet
  facet normal -0.454036 0 0.890983
    outer loop
      vertex -34.501 -1 -1.96916
      vertex -35.0933 1.5 -2.27099
      vertex -35.0933 -1 -2.27099
    endloop
  endfacet
  facet normal 0.156433 0 0.987689
    outer loop
      vertex -36.4067 1.5 -2.27099
      vertex -35.75 -1 -2.375
      vertex -35.75 1.5 -2.375
    endloop
  endfacet
  facet normal 0.156433 0 0.987689
    outer loop
      vertex -35.75 -1 -2.375
      vertex -36.4067 1.5 -2.27099
      vertex -36.4067 -1 -2.27099
    endloop
  endfacet
  facet normal -0.987689 0 0.156427
    outer loop
      vertex -33.729 -1 -0.906661
      vertex -33.625 1.5 -0.25
      vertex -33.729 1.5 -0.906661
    endloop
  endfacet
  facet normal -0.987689 0 0.156427
    outer loop
      vertex -33.625 1.5 -0.25
      vertex -33.729 -1 -0.906661
      vertex -33.625 -1 -0.25
    endloop
  endfacet
  facet normal -0.98769 0 -0.156427
    outer loop
      vertex 37.875 -1 -0.25
      vertex 37.771 1.5 0.406662
      vertex 37.875 1.5 -0.25
    endloop
  endfacet
  facet normal -0.98769 -0 -0.156427
    outer loop
      vertex 37.771 1.5 0.406662
      vertex 37.875 -1 -0.25
      vertex 37.771 -1 0.406662
    endloop
  endfacet
  facet normal 0.891026 -0 0.453952
    outer loop
      vertex 33.729 -1 -0.906661
      vertex 34.0308 1.5 -1.49904
      vertex 33.729 1.5 -0.906661
    endloop
  endfacet
  facet normal 0.891026 0 0.453952
    outer loop
      vertex 34.0308 1.5 -1.49904
      vertex 33.729 -1 -0.906661
      vertex 34.0308 -1 -1.49904
    endloop
  endfacet
  facet normal 0.156418 0 -0.987691
    outer loop
      vertex 35.0933 -1 1.771
      vertex 35.75 1.5 1.875
      vertex 35.75 -1 1.875
    endloop
  endfacet
  facet normal 0.156418 0 -0.987691
    outer loop
      vertex 35.75 1.5 1.875
      vertex 35.0933 -1 1.771
      vertex 35.0933 1.5 1.771
    endloop
  endfacet
  facet normal 0.987689 -0 0.156427
    outer loop
      vertex 33.625 -1 -0.25
      vertex 33.729 1.5 -0.906661
      vertex 33.625 1.5 -0.25
    endloop
  endfacet
  facet normal 0.987689 0 0.156427
    outer loop
      vertex 33.729 1.5 -0.906661
      vertex 33.625 -1 -0.25
      vertex 33.729 -1 -0.906661
    endloop
  endfacet
  facet normal -0.707044 0 -0.70717
    outer loop
      vertex 36.999 -1 1.46916
      vertex 37.4692 1.5 0.999044
      vertex 37.4692 -1 0.999044
    endloop
  endfacet
  facet normal -0.707044 0 -0.70717
    outer loop
      vertex 37.4692 1.5 0.999044
      vertex 36.999 -1 1.46916
      vertex 36.999 1.5 1.46916
    endloop
  endfacet
  facet normal -0.891027 0 -0.45395
    outer loop
      vertex 37.771 -1 0.406662
      vertex 37.4692 1.5 0.999044
      vertex 37.771 1.5 0.406662
    endloop
  endfacet
  facet normal -0.891027 -0 -0.45395
    outer loop
      vertex 37.4692 1.5 0.999044
      vertex 37.771 -1 0.406662
      vertex 37.4692 -1 0.999044
    endloop
  endfacet
  facet normal -0.156418 0 -0.987691
    outer loop
      vertex 35.75 -1 1.875
      vertex 36.4067 1.5 1.771
      vertex 36.4067 -1 1.771
    endloop
  endfacet
  facet normal -0.156418 0 -0.987691
    outer loop
      vertex 36.4067 1.5 1.771
      vertex 35.75 -1 1.875
      vertex 35.75 1.5 1.875
    endloop
  endfacet
  facet normal 0.454048 0 -0.890977
    outer loop
      vertex 34.501 -1 1.46916
      vertex 35.0933 1.5 1.771
      vertex 35.0933 -1 1.771
    endloop
  endfacet
  facet normal 0.454048 0 -0.890977
    outer loop
      vertex 35.0933 1.5 1.771
      vertex 34.501 -1 1.46916
      vertex 34.501 1.5 1.46916
    endloop
  endfacet
  facet normal 0.98769 0 -0.156427
    outer loop
      vertex 33.729 -1 0.406662
      vertex 33.625 1.5 -0.25
      vertex 33.729 1.5 0.406662
    endloop
  endfacet
  facet normal 0.98769 0 -0.156427
    outer loop
      vertex 33.625 1.5 -0.25
      vertex 33.729 -1 0.406662
      vertex 33.625 -1 -0.25
    endloop
  endfacet
  facet normal 0.707044 0 -0.70717
    outer loop
      vertex 34.501 -1 1.46916
      vertex 34.0308 1.5 0.999044
      vertex 34.501 1.5 1.46916
    endloop
  endfacet
  facet normal 0.707044 0 -0.70717
    outer loop
      vertex 34.0308 1.5 0.999044
      vertex 34.501 -1 1.46916
      vertex 34.0308 -1 0.999044
    endloop
  endfacet
  facet normal -0.454048 0 -0.890977
    outer loop
      vertex 36.4067 -1 1.771
      vertex 36.999 1.5 1.46916
      vertex 36.999 -1 1.46916
    endloop
  endfacet
  facet normal -0.454048 0 -0.890977
    outer loop
      vertex 36.999 1.5 1.46916
      vertex 36.4067 -1 1.771
      vertex 36.4067 1.5 1.771
    endloop
  endfacet
  facet normal 0.891027 0 -0.45395
    outer loop
      vertex 34.0308 -1 0.999044
      vertex 33.729 1.5 0.406662
      vertex 34.0308 1.5 0.999044
    endloop
  endfacet
  facet normal 0.891027 0 -0.45395
    outer loop
      vertex 33.729 1.5 0.406662
      vertex 34.0308 -1 0.999044
      vertex 33.729 -1 0.406662
    endloop
  endfacet
  facet normal -0.891026 0 0.453952
    outer loop
      vertex 37.4692 -1 -1.49904
      vertex 37.771 1.5 -0.906661
      vertex 37.4692 1.5 -1.49904
    endloop
  endfacet
  facet normal -0.891026 0 0.453952
    outer loop
      vertex 37.771 1.5 -0.906661
      vertex 37.4692 -1 -1.49904
      vertex 37.771 -1 -0.906661
    endloop
  endfacet
  facet normal 0.707047 -0 0.707167
    outer loop
      vertex 34.0308 -1 -1.49904
      vertex 34.501 1.5 -1.96916
      vertex 34.0308 1.5 -1.49904
    endloop
  endfacet
  facet normal 0.707047 0 0.707167
    outer loop
      vertex 34.501 1.5 -1.96916
      vertex 34.0308 -1 -1.49904
      vertex 34.501 -1 -1.96916
    endloop
  endfacet
  facet normal -0.454036 0 0.890983
    outer loop
      vertex 36.4067 1.5 -2.27099
      vertex 36.999 -1 -1.96916
      vertex 36.999 1.5 -1.96916
    endloop
  endfacet
  facet normal -0.454036 0 0.890983
    outer loop
      vertex 36.999 -1 -1.96916
      vertex 36.4067 1.5 -2.27099
      vertex 36.4067 -1 -2.27099
    endloop
  endfacet
  facet normal -0.707047 0 0.707167
    outer loop
      vertex 36.999 1.5 -1.96916
      vertex 37.4692 -1 -1.49904
      vertex 37.4692 1.5 -1.49904
    endloop
  endfacet
  facet normal -0.707047 0 0.707167
    outer loop
      vertex 37.4692 -1 -1.49904
      vertex 36.999 1.5 -1.96916
      vertex 36.999 -1 -1.96916
    endloop
  endfacet
  facet normal -0.987689 0 0.156427
    outer loop
      vertex 37.771 -1 -0.906661
      vertex 37.875 1.5 -0.25
      vertex 37.771 1.5 -0.906661
    endloop
  endfacet
  facet normal -0.987689 0 0.156427
    outer loop
      vertex 37.875 1.5 -0.25
      vertex 37.771 -1 -0.906661
      vertex 37.875 -1 -0.25
    endloop
  endfacet
  facet normal -0.156433 0 0.987689
    outer loop
      vertex 35.75 1.5 -2.375
      vertex 36.4067 -1 -2.27099
      vertex 36.4067 1.5 -2.27099
    endloop
  endfacet
  facet normal -0.156433 0 0.987689
    outer loop
      vertex 36.4067 -1 -2.27099
      vertex 35.75 1.5 -2.375
      vertex 35.75 -1 -2.375
    endloop
  endfacet
  facet normal 0.156433 0 0.987689
    outer loop
      vertex 35.0933 1.5 -2.27099
      vertex 35.75 -1 -2.375
      vertex 35.75 1.5 -2.375
    endloop
  endfacet
  facet normal 0.156433 0 0.987689
    outer loop
      vertex 35.75 -1 -2.375
      vertex 35.0933 1.5 -2.27099
      vertex 35.0933 -1 -2.27099
    endloop
  endfacet
  facet normal 0.454036 0 0.890983
    outer loop
      vertex 34.501 1.5 -1.96916
      vertex 35.0933 -1 -2.27099
      vertex 35.0933 1.5 -2.27099
    endloop
  endfacet
  facet normal 0.454036 0 0.890983
    outer loop
      vertex 35.0933 -1 -2.27099
      vertex 34.501 1.5 -1.96916
      vertex 34.501 -1 -1.96916
    endloop
  endfacet
  facet normal -0.866026 -2.35294e-06 -0.5
    outer loop
      vertex -31.5 -1 -0.25
      vertex -33 -1.5 2.34808
      vertex -33.625 -1 3.43061
    endloop
  endfacet
  facet normal -0.866026 0 -0.499999
    outer loop
      vertex -31.5 -5 -0.25
      vertex -33 -1.5 2.34808
      vertex -31.5 -1 -0.25
    endloop
  endfacet
  facet normal -0.866026 -0 -0.499999
    outer loop
      vertex -33 -1.5 2.34808
      vertex -31.5 -5 -0.25
      vertex -33 -5 2.34808
    endloop
  endfacet
  facet normal -0.866025 -0 -0.500001
    outer loop
      vertex -33.625 -1 3.43061
      vertex -33 -1.5 2.34808
      vertex -33.625 -1.5 3.43061
    endloop
  endfacet
  facet normal 0.866026 0 -0.5
    outer loop
      vertex -37.875 -1.5 3.43061
      vertex -40 -1 -0.25
      vertex -37.875 -1 3.43061
    endloop
  endfacet
  facet normal 0.866026 0 -0.5
    outer loop
      vertex -40 -1 -0.25
      vertex -37.875 -1.5 3.43061
      vertex -40 -1.5 -0.25
    endloop
  endfacet
  facet normal 0 0 -1
    outer loop
      vertex -37.875 -1.5 3.43061
      vertex -33.625 -1 3.43061
      vertex -33.625 -1.5 3.43061
    endloop
  endfacet
  facet normal -0 0 -1
    outer loop
      vertex -33.625 -1 3.43061
      vertex -37.875 -1.5 3.43061
      vertex -37.875 -1 3.43061
    endloop
  endfacet
  facet normal 0.866026 -0 0.5
    outer loop
      vertex -40 -1.5 -0.25
      vertex -37.875 -1 -3.93061
      vertex -40 -1 -0.25
    endloop
  endfacet
  facet normal 0.866026 0 0.5
    outer loop
      vertex -37.875 -1 -3.93061
      vertex -40 -1.5 -0.25
      vertex -37.875 -1.5 -3.93061
    endloop
  endfacet
  facet normal 0 1 0
    outer loop
      vertex -33 -5 2.34808
      vertex -31.5 -5 -0.25
      vertex -33 -5 -2.84808
    endloop
  endfacet
  facet normal -0.866025 0 0.500001
    outer loop
      vertex -33 -1.5 -2.84808
      vertex -33.625 -1 -3.93061
      vertex -33.625 -1.5 -3.93061
    endloop
  endfacet
  facet normal -0.866026 -2.35294e-06 0.5
    outer loop
      vertex -33.625 -1 -3.93061
      vertex -33 -1.5 -2.84808
      vertex -31.5 -1 -0.25
    endloop
  endfacet
  facet normal -0.866026 0 0.499999
    outer loop
      vertex -31.5 -5 -0.25
      vertex -33 -1.5 -2.84808
      vertex -33 -5 -2.84808
    endloop
  endfacet
  facet normal -0.866026 0 0.499999
    outer loop
      vertex -33 -1.5 -2.84808
      vertex -31.5 -5 -0.25
      vertex -31.5 -1 -0.25
    endloop
  endfacet
  facet normal 0 -1 0
    outer loop
      vertex -37.875 -1 3.43061
      vertex -35.75 -1 1.875
      vertex -33.625 -1 3.43061
    endloop
  endfacet
  facet normal 0 -1 0
    outer loop
      vertex -37.875 -1 3.43061
      vertex -36.4067 -1 1.771
      vertex -35.75 -1 1.875
    endloop
  endfacet
  facet normal 0 -1 0
    outer loop
      vertex -37.875 -1 3.43061
      vertex -36.999 -1 1.46916
      vertex -36.4067 -1 1.771
    endloop
  endfacet
  facet normal 0 -1 0
    outer loop
      vertex -37.875 -1 3.43061
      vertex -37.4692 -1 0.999044
      vertex -36.999 -1 1.46916
    endloop
  endfacet
  facet normal 0 -1 0
    outer loop
      vertex -40 -1 -0.25
      vertex -37.4692 -1 0.999044
      vertex -37.875 -1 3.43061
    endloop
  endfacet
  facet normal 0 -1 0
    outer loop
      vertex -37.4692 -1 0.999044
      vertex -40 -1 -0.25
      vertex -37.771 -1 0.406662
    endloop
  endfacet
  facet normal 0 -1 0
    outer loop
      vertex -40 -1 -0.25
      vertex -37.875 -1 -0.25
      vertex -37.771 -1 0.406662
    endloop
  endfacet
  facet normal 0 -1 0
    outer loop
      vertex -40 -1 -0.25
      vertex -37.771 -1 -0.906661
      vertex -37.875 -1 -0.25
    endloop
  endfacet
  facet normal 0 -1 0
    outer loop
      vertex -40 -1 -0.25
      vertex -37.4692 -1 -1.49904
      vertex -37.771 -1 -0.906661
    endloop
  endfacet
  facet normal 0 -1 0
    outer loop
      vertex -37.875 -1 -3.93061
      vertex -37.4692 -1 -1.49904
      vertex -40 -1 -0.25
    endloop
  endfacet
  facet normal 0 -1 -0
    outer loop
      vertex -36.4067 -1 -2.27099
      vertex -37.875 -1 -3.93061
      vertex -35.75 -1 -2.375
    endloop
  endfacet
  facet normal 0 -1 -0
    outer loop
      vertex -36.999 -1 -1.96916
      vertex -37.875 -1 -3.93061
      vertex -36.4067 -1 -2.27099
    endloop
  endfacet
  facet normal 0 -1 -0
    outer loop
      vertex -37.4692 -1 -1.49904
      vertex -37.875 -1 -3.93061
      vertex -36.999 -1 -1.96916
    endloop
  endfacet
  facet normal 0 -1 0
    outer loop
      vertex -35.0933 -1 1.771
      vertex -33.625 -1 3.43061
      vertex -35.75 -1 1.875
    endloop
  endfacet
  facet normal 0 -1 0
    outer loop
      vertex -34.501 -1 1.46916
      vertex -33.625 -1 3.43061
      vertex -35.0933 -1 1.771
    endloop
  endfacet
  facet normal 0 -1 0
    outer loop
      vertex -34.0308 -1 0.999044
      vertex -33.625 -1 3.43061
      vertex -34.501 -1 1.46916
    endloop
  endfacet
  facet normal 0 -1 0
    outer loop
      vertex -31.5 -1 -0.25
      vertex -34.0308 -1 0.999044
      vertex -33.729 -1 0.406662
    endloop
  endfacet
  facet normal 0 -1 0
    outer loop
      vertex -31.5 -1 -0.25
      vertex -33.729 -1 0.406662
      vertex -33.625 -1 -0.25
    endloop
  endfacet
  facet normal 0 -1 0
    outer loop
      vertex -34.0308 -1 0.999044
      vertex -31.5 -1 -0.25
      vertex -33.625 -1 3.43061
    endloop
  endfacet
  facet normal 0 -1 0
    outer loop
      vertex -33.729 -1 -0.906661
      vertex -31.5 -1 -0.25
      vertex -33.625 -1 -0.25
    endloop
  endfacet
  facet normal 0 -1 0
    outer loop
      vertex -34.0308 -1 -1.49904
      vertex -31.5 -1 -0.25
      vertex -33.729 -1 -0.906661
    endloop
  endfacet
  facet normal 0 -1 0
    outer loop
      vertex -33.625 -1 -3.93061
      vertex -34.0308 -1 -1.49904
      vertex -34.501 -1 -1.96916
    endloop
  endfacet
  facet normal 0 -1 0
    outer loop
      vertex -33.625 -1 -3.93061
      vertex -35.75 -1 -2.375
      vertex -37.875 -1 -3.93061
    endloop
  endfacet
  facet normal 0 -1 0
    outer loop
      vertex -35.75 -1 -2.375
      vertex -33.625 -1 -3.93061
      vertex -35.0933 -1 -2.27099
    endloop
  endfacet
  facet normal 0 -1 0
    outer loop
      vertex -35.0933 -1 -2.27099
      vertex -33.625 -1 -3.93061
      vertex -34.501 -1 -1.96916
    endloop
  endfacet
  facet normal 0 -1 0
    outer loop
      vertex -34.0308 -1 -1.49904
      vertex -33.625 -1 -3.93061
      vertex -31.5 -1 -0.25
    endloop
  endfacet
  facet normal -0 0 1
    outer loop
      vertex -37.875 -1 -3.93061
      vertex -33.625 -1.5 -3.93061
      vertex -33.625 -1 -3.93061
    endloop
  endfacet
  facet normal 0 0 1
    outer loop
      vertex -33.625 -1.5 -3.93061
      vertex -37.875 -1 -3.93061
      vertex -37.875 -1.5 -3.93061
    endloop
  endfacet
  facet normal -0.866026 0 -0.5
    outer loop
      vertex 40 -1.5 -0.25
      vertex 37.875 -1 3.43061
      vertex 40 -1 -0.25
    endloop
  endfacet
  facet normal -0.866026 -0 -0.5
    outer loop
      vertex 37.875 -1 3.43061
      vertex 40 -1.5 -0.25
      vertex 37.875 -1.5 3.43061
    endloop
  endfacet
  facet normal 0.866025 0 -0.500001
    outer loop
      vertex 33 -1.5 2.34808
      vertex 33.625 -1 3.43061
      vertex 33.625 -1.5 3.43061
    endloop
  endfacet
  facet normal 0.866026 -2.35294e-06 -0.5
    outer loop
      vertex 33.625 -1 3.43061
      vertex 33 -1.5 2.34808
      vertex 31.5 -1 -0.25
    endloop
  endfacet
  facet normal 0.866026 0 -0.499999
    outer loop
      vertex 31.5 -5 -0.25
      vertex 33 -1.5 2.34808
      vertex 33 -5 2.34808
    endloop
  endfacet
  facet normal 0.866026 0 -0.499999
    outer loop
      vertex 33 -1.5 2.34808
      vertex 31.5 -5 -0.25
      vertex 31.5 -1 -0.25
    endloop
  endfacet
  facet normal 0 0 -1
    outer loop
      vertex 33.625 -1.5 3.43061
      vertex 37.875 -1 3.43061
      vertex 37.875 -1.5 3.43061
    endloop
  endfacet
  facet normal -0 0 -1
    outer loop
      vertex 37.875 -1 3.43061
      vertex 33.625 -1.5 3.43061
      vertex 33.625 -1 3.43061
    endloop
  endfacet
  facet normal 0 1 0
    outer loop
      vertex 33 -5 2.34808
      vertex 33 -5 -2.84808
      vertex 31.5 -5 -0.25
    endloop
  endfacet
  facet normal -0.866026 0 0.5
    outer loop
      vertex 37.875 -1.5 -3.93061
      vertex 40 -1 -0.25
      vertex 37.875 -1 -3.93061
    endloop
  endfacet
  facet normal -0.866026 0 0.5
    outer loop
      vertex 40 -1 -0.25
      vertex 37.875 -1.5 -3.93061
      vertex 40 -1.5 -0.25
    endloop
  endfacet
  facet normal 0 -1 0
    outer loop
      vertex 33.625 -1 3.43061
      vertex 35.75 -1 1.875
      vertex 37.875 -1 3.43061
    endloop
  endfacet
  facet normal 0 -1 0
    outer loop
      vertex 33.625 -1 3.43061
      vertex 35.0933 -1 1.771
      vertex 35.75 -1 1.875
    endloop
  endfacet
  facet normal 0 -1 0
    outer loop
      vertex 33.625 -1 3.43061
      vertex 34.501 -1 1.46916
      vertex 35.0933 -1 1.771
    endloop
  endfacet
  facet normal 0 -1 0
    outer loop
      vertex 33.625 -1 3.43061
      vertex 34.0308 -1 0.999044
      vertex 34.501 -1 1.46916
    endloop
  endfacet
  facet normal 0 -1 0
    outer loop
      vertex 31.5 -1 -0.25
      vertex 34.0308 -1 0.999044
      vertex 33.625 -1 3.43061
    endloop
  endfacet
  facet normal 0 -1 0
    outer loop
      vertex 34.0308 -1 0.999044
      vertex 31.5 -1 -0.25
      vertex 33.729 -1 0.406662
    endloop
  endfacet
  facet normal 0 -1 0
    outer loop
      vertex 31.5 -1 -0.25
      vertex 33.625 -1 -0.25
      vertex 33.729 -1 0.406662
    endloop
  endfacet
  facet normal 0 -1 0
    outer loop
      vertex 31.5 -1 -0.25
      vertex 33.729 -1 -0.906661
      vertex 33.625 -1 -0.25
    endloop
  endfacet
  facet normal 0 -1 0
    outer loop
      vertex 31.5 -1 -0.25
      vertex 34.0308 -1 -1.49904
      vertex 33.729 -1 -0.906661
    endloop
  endfacet
  facet normal 0 -1 0
    outer loop
      vertex 33.625 -1 -3.93061
      vertex 34.0308 -1 -1.49904
      vertex 31.5 -1 -0.25
    endloop
  endfacet
  facet normal 0 -1 -0
    outer loop
      vertex 35.0933 -1 -2.27099
      vertex 33.625 -1 -3.93061
      vertex 35.75 -1 -2.375
    endloop
  endfacet
  facet normal 0 -1 -0
    outer loop
      vertex 34.501 -1 -1.96916
      vertex 33.625 -1 -3.93061
      vertex 35.0933 -1 -2.27099
    endloop
  endfacet
  facet normal 0 -1 -0
    outer loop
      vertex 34.0308 -1 -1.49904
      vertex 33.625 -1 -3.93061
      vertex 34.501 -1 -1.96916
    endloop
  endfacet
  facet normal 0 -1 0
    outer loop
      vertex 36.4067 -1 1.771
      vertex 37.875 -1 3.43061
      vertex 35.75 -1 1.875
    endloop
  endfacet
  facet normal 0 -1 0
    outer loop
      vertex 36.999 -1 1.46916
      vertex 37.875 -1 3.43061
      vertex 36.4067 -1 1.771
    endloop
  endfacet
  facet normal 0 -1 0
    outer loop
      vertex 37.4692 -1 0.999044
      vertex 37.875 -1 3.43061
      vertex 36.999 -1 1.46916
    endloop
  endfacet
  facet normal 0 -1 0
    outer loop
      vertex 40 -1 -0.25
      vertex 37.4692 -1 0.999044
      vertex 37.771 -1 0.406662
    endloop
  endfacet
  facet normal 0 -1 0
    outer loop
      vertex 40 -1 -0.25
      vertex 37.771 -1 0.406662
      vertex 37.875 -1 -0.25
    endloop
  endfacet
  facet normal 0 -1 0
    outer loop
      vertex 37.4692 -1 0.999044
      vertex 40 -1 -0.25
      vertex 37.875 -1 3.43061
    endloop
  endfacet
  facet normal 0 -1 0
    outer loop
      vertex 37.771 -1 -0.906661
      vertex 40 -1 -0.25
      vertex 37.875 -1 -0.25
    endloop
  endfacet
  facet normal 0 -1 0
    outer loop
      vertex 37.4692 -1 -1.49904
      vertex 40 -1 -0.25
      vertex 37.771 -1 -0.906661
    endloop
  endfacet
  facet normal 0 -1 0
    outer loop
      vertex 37.875 -1 -3.93061
      vertex 37.4692 -1 -1.49904
      vertex 36.999 -1 -1.96916
    endloop
  endfacet
  facet normal 0 -1 0
    outer loop
      vertex 37.875 -1 -3.93061
      vertex 35.75 -1 -2.375
      vertex 33.625 -1 -3.93061
    endloop
  endfacet
  facet normal 0 -1 0
    outer loop
      vertex 35.75 -1 -2.375
      vertex 37.875 -1 -3.93061
      vertex 36.4067 -1 -2.27099
    endloop
  endfacet
  facet normal 0 -1 0
    outer loop
      vertex 36.4067 -1 -2.27099
      vertex 37.875 -1 -3.93061
      vertex 36.999 -1 -1.96916
    endloop
  endfacet
  facet normal 0 -1 0
    outer loop
      vertex 37.4692 -1 -1.49904
      vertex 37.875 -1 -3.93061
      vertex 40 -1 -0.25
    endloop
  endfacet
  facet normal -0 0 1
    outer loop
      vertex 33.625 -1 -3.93061
      vertex 37.875 -1.5 -3.93061
      vertex 37.875 -1 -3.93061
    endloop
  endfacet
  facet normal 0 0 1
    outer loop
      vertex 37.875 -1.5 -3.93061
      vertex 33.625 -1 -3.93061
      vertex 33.625 -1.5 -3.93061
    endloop
  endfacet
  facet normal 0.866026 -2.35294e-06 0.5
    outer loop
      vertex 31.5 -1 -0.25
      vertex 33 -1.5 -2.84808
      vertex 33.625 -1 -3.93061
    endloop
  endfacet
  facet normal 0.866026 -0 0.499999
    outer loop
      vertex 31.5 -5 -0.25
      vertex 33 -1.5 -2.84808
      vertex 31.5 -1 -0.25
    endloop
  endfacet
  facet normal 0.866026 0 0.499999
    outer loop
      vertex 33 -1.5 -2.84808
      vertex 31.5 -5 -0.25
      vertex 33 -5 -2.84808
    endloop
  endfacet
  facet normal 0.866025 0 0.500001
    outer loop
      vertex 33.625 -1 -3.93061
      vertex 33 -1.5 -2.84808
      vertex 33.625 -1.5 -3.93061
    endloop
  endfacet
  facet normal -0.522491 0 0.852645
    outer loop
      vertex 20 1.5 0.858984
      vertex 21.7856 -1.5 1.95318
      vertex 21.7856 1.5 1.95318
    endloop
  endfacet
  facet normal -0.522491 0 0.852645
    outer loop
      vertex 21.7856 -1.5 1.95318
      vertex 20 1.5 0.858984
      vertex 20 -1.5 0.858984
    endloop
  endfacet
  facet normal 0.13053 0 0.991444
    outer loop
      vertex -6.25738 1.5 -4.00753
      vertex -4.18114 -1.5 -4.28088
      vertex -4.18114 1.5 -4.28088
    endloop
  endfacet
  facet normal 0.13053 0 0.991444
    outer loop
      vertex -4.18114 -1.5 -4.28088
      vertex -6.25738 1.5 -4.00753
      vertex -6.25738 -1.5 -4.00753
    endloop
  endfacet
  facet normal 0.688253 0 0.725471
    outer loop
      vertex -27.0032 1.5 6
      vertex -26.7652 -1.5 5.77421
      vertex -26.7652 1.5 5.77421
    endloop
  endfacet
  facet normal 0.688253 0 0.725471
    outer loop
      vertex -26.7652 -1.5 5.77421
      vertex -27.0032 1.5 6
      vertex -27.0032 -1.5 6
    endloop
  endfacet
  facet normal -0.13053 0 0.991444
    outer loop
      vertex 4.18114 1.5 -4.28088
      vertex 6.25738 -1.5 -4.00753
      vertex 6.25738 1.5 -4.00753
    endloop
  endfacet
  facet normal -0.13053 0 0.991444
    outer loop
      vertex 6.25738 -1.5 -4.00753
      vertex 4.18114 1.5 -4.28088
      vertex 4.18114 -1.5 -4.28088
    endloop
  endfacet
  facet normal 0.0784565 0 0.996918
    outer loop
      vertex -4.18114 1.5 -4.28088
      vertex -2.09344 -1.5 -4.44518
      vertex -2.09344 1.5 -4.44518
    endloop
  endfacet
  facet normal 0.0784565 0 0.996918
    outer loop
      vertex -2.09344 -1.5 -4.44518
      vertex -4.18114 1.5 -4.28088
      vertex -4.18114 -1.5 -4.28088
    endloop
  endfacet
  facet normal 0.182236 0 0.983255
    outer loop
      vertex -8.31647 1.5 -3.6259
      vertex -6.25738 -1.5 -4.00753
      vertex -6.25738 1.5 -4.00753
    endloop
  endfacet
  facet normal 0.182236 0 0.983255
    outer loop
      vertex -6.25738 -1.5 -4.00753
      vertex -8.31647 1.5 -3.6259
      vertex -8.31647 -1.5 -3.6259
    endloop
  endfacet
  facet normal 0.566416 0 0.824119
    outer loop
      vertex -23.5114 1.5 3.13932
      vertex -21.7856 -1.5 1.95318
      vertex -21.7856 1.5 1.95318
    endloop
  endfacet
  facet normal 0.566416 0 0.824119
    outer loop
      vertex -21.7856 -1.5 1.95318
      vertex -23.5114 1.5 3.13932
      vertex -23.5114 -1.5 3.13932
    endloop
  endfacet
  facet normal -0.0261776 0 0.999657
    outer loop
      vertex 0 1.5 -4.5
      vertex 2.09344 -1.5 -4.44518
      vertex 2.09344 1.5 -4.44518
    endloop
  endfacet
  facet normal -0.0261776 0 0.999657
    outer loop
      vertex 2.09344 -1.5 -4.44518
      vertex 0 1.5 -4.5
      vertex 0 -1.5 -4.5
    endloop
  endfacet
  facet normal -0.284017 0 0.958819
    outer loop
      vertex 10.3528 1.5 -3.13703
      vertex 12.3607 -1.5 -2.54226
      vertex 12.3607 1.5 -2.54226
    endloop
  endfacet
  facet normal -0.284017 0 0.958819
    outer loop
      vertex 12.3607 -1.5 -2.54226
      vertex 10.3528 1.5 -3.13703
      vertex 10.3528 -1.5 -3.13703
    endloop
  endfacet
  facet normal -0.182236 0 0.983255
    outer loop
      vertex 6.25738 1.5 -4.00753
      vertex 8.31647 -1.5 -3.6259
      vertex 8.31647 1.5 -3.6259
    endloop
  endfacet
  facet normal -0.182236 0 0.983255
    outer loop
      vertex 8.31647 -1.5 -3.6259
      vertex 6.25738 1.5 -4.00753
      vertex 6.25738 -1.5 -4.00753
    endloop
  endfacet
  facet normal -0.566416 0 0.824119
    outer loop
      vertex 21.7856 1.5 1.95318
      vertex 23.5114 -1.5 3.13932
      vertex 23.5114 1.5 3.13932
    endloop
  endfacet
  facet normal -0.566416 0 0.824119
    outer loop
      vertex 23.5114 -1.5 3.13932
      vertex 21.7856 1.5 1.95318
      vertex 21.7856 -1.5 1.95318
    endloop
  endfacet
  facet normal -0.649451 0 0.760403
    outer loop
      vertex 25.1728 1.5 4.41416
      vertex 26.7652 -1.5 5.77421
      vertex 26.7652 1.5 5.77421
    endloop
  endfacet
  facet normal -0.649451 0 0.760403
    outer loop
      vertex 26.7652 -1.5 5.77421
      vertex 25.1728 1.5 4.41416
      vertex 25.1728 -1.5 4.41416
    endloop
  endfacet
  facet normal -0.477155 0 0.878819
    outer loop
      vertex 18.1596 1.5 -0.140261
      vertex 20 -1.5 0.858984
      vertex 20 1.5 0.858984
    endloop
  endfacet
  facet normal -0.477155 0 0.878819
    outer loop
      vertex 20 -1.5 0.858984
      vertex 18.1596 1.5 -0.140261
      vertex 18.1596 -1.5 -0.140261
    endloop
  endfacet
  facet normal -0.382675 0 0.923883
    outer loop
      vertex 14.3347 1.5 -1.84322
      vertex 16.2695 -1.5 -1.04182
      vertex 16.2695 1.5 -1.04182
    endloop
  endfacet
  facet normal -0.382675 0 0.923883
    outer loop
      vertex 16.2695 -1.5 -1.04182
      vertex 14.3347 1.5 -1.84322
      vertex 14.3347 -1.5 -1.84322
    endloop
  endfacet
  facet normal 0.333811 0 0.94264
    outer loop
      vertex -14.3347 1.5 -1.84322
      vertex -12.3607 -1.5 -2.54226
      vertex -12.3607 1.5 -2.54226
    endloop
  endfacet
  facet normal 0.333811 0 0.94264
    outer loop
      vertex -12.3607 -1.5 -2.54226
      vertex -14.3347 1.5 -1.84322
      vertex -14.3347 -1.5 -1.84322
    endloop
  endfacet
  facet normal 0.233441 0 0.972371
    outer loop
      vertex -10.3528 1.5 -3.13703
      vertex -8.31647 -1.5 -3.6259
      vertex -8.31647 1.5 -3.6259
    endloop
  endfacet
  facet normal 0.233441 0 0.972371
    outer loop
      vertex -8.31647 -1.5 -3.6259
      vertex -10.3528 1.5 -3.13703
      vertex -10.3528 -1.5 -3.13703
    endloop
  endfacet
  facet normal 0.522491 0 0.852645
    outer loop
      vertex -21.7856 1.5 1.95318
      vertex -20 -1.5 0.858984
      vertex -20 1.5 0.858984
    endloop
  endfacet
  facet normal 0.522491 0 0.852645
    outer loop
      vertex -20 -1.5 0.858984
      vertex -21.7856 1.5 1.95318
      vertex -21.7856 -1.5 1.95318
    endloop
  endfacet
  facet normal 0.430522 0 0.90258
    outer loop
      vertex -18.1596 1.5 -0.140261
      vertex -16.2695 -1.5 -1.04182
      vertex -16.2695 1.5 -1.04182
    endloop
  endfacet
  facet normal 0.430522 0 0.90258
    outer loop
      vertex -16.2695 -1.5 -1.04182
      vertex -18.1596 1.5 -0.140261
      vertex -18.1596 -1.5 -0.140261
    endloop
  endfacet
  facet normal 0.608762 0 0.793353
    outer loop
      vertex -25.1728 1.5 4.41416
      vertex -23.5114 -1.5 3.13932
      vertex -23.5114 1.5 3.13932
    endloop
  endfacet
  facet normal 0.608762 0 0.793353
    outer loop
      vertex -23.5114 -1.5 3.13932
      vertex -25.1728 1.5 4.41416
      vertex -25.1728 -1.5 4.41416
    endloop
  endfacet
  facet normal -0.0784565 0 0.996918
    outer loop
      vertex 2.09344 1.5 -4.44518
      vertex 4.18114 -1.5 -4.28088
      vertex 4.18114 1.5 -4.28088
    endloop
  endfacet
  facet normal -0.0784565 0 0.996918
    outer loop
      vertex 4.18114 -1.5 -4.28088
      vertex 2.09344 1.5 -4.44518
      vertex 2.09344 -1.5 -4.44518
    endloop
  endfacet
  facet normal -0.333811 0 0.94264
    outer loop
      vertex 12.3607 1.5 -2.54226
      vertex 14.3347 -1.5 -1.84322
      vertex 14.3347 1.5 -1.84322
    endloop
  endfacet
  facet normal -0.333811 0 0.94264
    outer loop
      vertex 14.3347 -1.5 -1.84322
      vertex 12.3607 1.5 -2.54226
      vertex 12.3607 -1.5 -2.54226
    endloop
  endfacet
  facet normal -0.233441 0 0.972371
    outer loop
      vertex 8.31647 1.5 -3.6259
      vertex 10.3528 -1.5 -3.13703
      vertex 10.3528 1.5 -3.13703
    endloop
  endfacet
  facet normal -0.233441 0 0.972371
    outer loop
      vertex 10.3528 -1.5 -3.13703
      vertex 8.31647 1.5 -3.6259
      vertex 8.31647 -1.5 -3.6259
    endloop
  endfacet
  facet normal -0.608762 0 0.793353
    outer loop
      vertex 23.5114 1.5 3.13932
      vertex 25.1728 -1.5 4.41416
      vertex 25.1728 1.5 4.41416
    endloop
  endfacet
  facet normal -0.608762 0 0.793353
    outer loop
      vertex 25.1728 -1.5 4.41416
      vertex 23.5114 1.5 3.13932
      vertex 23.5114 -1.5 3.13932
    endloop
  endfacet
  facet normal -0.688253 0 0.725471
    outer loop
      vertex 26.7652 1.5 5.77421
      vertex 27.0032 -1.5 6
      vertex 27.0032 1.5 6
    endloop
  endfacet
  facet normal -0.688253 0 0.725471
    outer loop
      vertex 27.0032 -1.5 6
      vertex 26.7652 1.5 5.77421
      vertex 26.7652 -1.5 5.77421
    endloop
  endfacet
  facet normal -0.430522 0 0.90258
    outer loop
      vertex 16.2695 1.5 -1.04182
      vertex 18.1596 -1.5 -0.140261
      vertex 18.1596 1.5 -0.140261
    endloop
  endfacet
  facet normal -0.430522 0 0.90258
    outer loop
      vertex 18.1596 -1.5 -0.140261
      vertex 16.2695 1.5 -1.04182
      vertex 16.2695 -1.5 -1.04182
    endloop
  endfacet
  facet normal 0.0261776 0 0.999657
    outer loop
      vertex -2.09344 1.5 -4.44518
      vertex 0 -1.5 -4.5
      vertex 0 1.5 -4.5
    endloop
  endfacet
  facet normal 0.0261776 0 0.999657
    outer loop
      vertex 0 -1.5 -4.5
      vertex -2.09344 1.5 -4.44518
      vertex -2.09344 -1.5 -4.44518
    endloop
  endfacet
  facet normal 0.284017 0 0.958819
    outer loop
      vertex -12.3607 1.5 -2.54226
      vertex -10.3528 -1.5 -3.13703
      vertex -10.3528 1.5 -3.13703
    endloop
  endfacet
  facet normal 0.284017 0 0.958819
    outer loop
      vertex -10.3528 -1.5 -3.13703
      vertex -12.3607 1.5 -2.54226
      vertex -12.3607 -1.5 -2.54226
    endloop
  endfacet
  facet normal 0.477155 0 0.878819
    outer loop
      vertex -20 1.5 0.858984
      vertex -18.1596 -1.5 -0.140261
      vertex -18.1596 1.5 -0.140261
    endloop
  endfacet
  facet normal 0.477155 0 0.878819
    outer loop
      vertex -18.1596 -1.5 -0.140261
      vertex -20 1.5 0.858984
      vertex -20 -1.5 0.858984
    endloop
  endfacet
  facet normal 0.382675 0 0.923883
    outer loop
      vertex -16.2695 1.5 -1.04182
      vertex -14.3347 -1.5 -1.84322
      vertex -14.3347 1.5 -1.84322
    endloop
  endfacet
  facet normal 0.382675 0 0.923883
    outer loop
      vertex -14.3347 -1.5 -1.84322
      vertex -16.2695 1.5 -1.04182
      vertex -16.2695 -1.5 -1.04182
    endloop
  endfacet
  facet normal 0.649451 0 0.760403
    outer loop
      vertex -26.7652 1.5 5.77421
      vertex -25.1728 -1.5 4.41416
      vertex -25.1728 1.5 4.41416
    endloop
  endfacet
  facet normal 0.649451 0 0.760403
    outer loop
      vertex -25.1728 -1.5 4.41416
      vertex -26.7652 1.5 5.77421
      vertex -26.7652 -1.5 5.77421
    endloop
  endfacet
endsolid OpenSCAD_Model
